999
dxflib 2.2.0.0
  0
SECTION
  2
HEADER
  9
$ACADVER
  1
AC1015
  9
$HANDSEED
  5
FFFF
  9
$DIMASZ
 40
2.5
  9
$PLIMMIN
 10
0.0
 20
0.0
  9
$DIMEXE
 40
1.25
  9
$DIMGAP
 40
0.625
  9
$PLIMMAX
 10
210.0
 20
297.0
  9
$INSUNITS
 70
0
  9
$DIMSTYLE
  2
Standard
  9
$DIMEXO
 40
0.625
  9
$DIMTXT
 40
2.5
  0
ENDSEC
  0
SECTION
  2
TABLES
  0
TABLE
  2
VPORT
  5
8
100
AcDbSymbolTable
 70
1
  0
VPORT
  5
30
100
AcDbSymbolTableRecord
100
AcDbViewportTableRecord
  2
*Active
 70
0
 10
0.0
 20
0.0
 11
1.0
 21
1.0
 12
286.3055555555554861
 22
148.5
 13
0.0
 23
0.0
 14
10.0
 24
10.0
 15
10.0
 25
10.0
 16
0.0
 26
0.0
 36
1.0
 17
0.0
 27
0.0
 37
0.0
 40
297.0
 41
1.92798353909465
 42
50.0
 43
0.0
 44
0.0
 50
0.0
 51
0.0
 71
0
 72
100
 73
1
 74
3
 75
1
 76
1
 77
0
 78
0
281
0
 65
1
110
0.0
120
0.0
130
0.0
111
1.0
121
0.0
131
0.0
112
0.0
122
1.0
132
0.0
 79
0
146
0.0
  0
ENDTAB
  0
TABLE
  2
LTYPE
  5
5
100
AcDbSymbolTable
 70
21
  0
LTYPE
  5
14
100
AcDbSymbolTableRecord
100
AcDbLinetypeTableRecord
  2
ByBlock
 70
0
  3

 72
65
 73
0
 40
0.0
  0
LTYPE
  5
15
100
AcDbSymbolTableRecord
100
AcDbLinetypeTableRecord
  2
ByLayer
 70
0
  3

 72
65
 73
0
 40
0.0
  0
LTYPE
  5
16
100
AcDbSymbolTableRecord
100
AcDbLinetypeTableRecord
  2
CONTINUOUS
 70
0
  3
Solid line
 72
65
 73
0
 40
0.0
  0
LTYPE
  5
31
100
AcDbSymbolTableRecord
100
AcDbLinetypeTableRecord
  2
DOT
 70
0
  3
Dot . . . . . . . . . . . . . . . . . . . . . .
 72
65
 73
2
 40
6.3499999999999996
 49
0.0
 74
0
 49
-6.3499999999999996
 74
0
  0
LTYPE
  5
32
100
AcDbSymbolTableRecord
100
AcDbLinetypeTableRecord
  2
DOT2
 70
0
  3
Dot (.5x) .....................................
 72
65
 73
2
 40
3.1749999999999998
 49
0.0
 74
0
 49
-3.1749999999999998
 74
0
  0
LTYPE
  5
33
100
AcDbSymbolTableRecord
100
AcDbLinetypeTableRecord
  2
DOTX2
 70
0
  3
Dot (2x) .  .  .  .  .  .  .  .  .  .  .  .  .
 72
65
 73
2
 40
12.6999999999999993
 49
0.0
 74
0
 49
-12.6999999999999993
 74
0
  0
LTYPE
  5
34
100
AcDbSymbolTableRecord
100
AcDbLinetypeTableRecord
  2
DASHED
 70
0
  3
Dashed __ __ __ __ __ __ __ __ __ __ __ __ __ _
 72
65
 73
2
 40
19.0500000000000007
 49
12.6999999999999993
 74
0
 49
-6.3499999999999996
 74
0
  0
LTYPE
  5
35
100
AcDbSymbolTableRecord
100
AcDbLinetypeTableRecord
  2
DASHED2
 70
0
  3
Dashed (.5x) _ _ _ _ _ _ _ _ _ _ _ _ _ _ _ _ _
 72
65
 73
2
 40
9.5250000000000004
 49
6.3499999999999996
 74
0
 49
-3.1749999999999998
 74
0
  0
LTYPE
  5
36
100
AcDbSymbolTableRecord
100
AcDbLinetypeTableRecord
  2
DASHEDX2
 70
0
  3
Dashed (2x) ____  ____  ____  ____  ____  ___
 72
65
 73
2
 40
38.1000000000000014
 49
25.3999999999999986
 74
0
 49
-12.6999999999999993
 74
0
  0
LTYPE
  5
37
100
AcDbSymbolTableRecord
100
AcDbLinetypeTableRecord
  2
DASHDOT
 70
0
  3
Dash dot __ . __ . __ . __ . __ . __ . __ . __
 72
65
 73
4
 40
25.3999999999999986
 49
12.6999999999999993
 74
0
 49
-6.3499999999999996
 74
0
 49
0.0
 74
0
 49
-6.3499999999999996
 74
0
  0
LTYPE
  5
38
100
AcDbSymbolTableRecord
100
AcDbLinetypeTableRecord
  2
DASHDOT2
 70
0
  3
Dash dot (.5x) _._._._._._._._._._._._._._._.
 72
65
 73
4
 40
12.6999999999999993
 49
6.3499999999999996
 74
0
 49
-3.1749999999999998
 74
0
 49
0.0
 74
0
 49
-3.1749999999999998
 74
0
  0
LTYPE
  5
39
100
AcDbSymbolTableRecord
100
AcDbLinetypeTableRecord
  2
DASHDOTX2
 70
0
  3
Dash dot (2x) ____  .  ____  .  ____  .  ___
 72
65
 73
4
 40
50.7999999999999972
 49
25.3999999999999986
 74
0
 49
-12.6999999999999993
 74
0
 49
0.0
 74
0
 49
-12.6999999999999993
 74
0
  0
LTYPE
  5
3A
100
AcDbSymbolTableRecord
100
AcDbLinetypeTableRecord
  2
DIVIDE
 70
0
  3
Divide ____ . . ____ . . ____ . . ____ . . ____
 72
65
 73
6
 40
31.75
 49
12.6999999999999993
 74
0
 49
-6.3499999999999996
 74
0
 49
0.0
 74
0
 49
-6.3499999999999996
 74
0
 49
0.0
 74
0
 49
-6.3499999999999996
 74
0
  0
LTYPE
  5
3B
100
AcDbSymbolTableRecord
100
AcDbLinetypeTableRecord
  2
DIVIDE2
 70
0
  3
Divide (.5x) __..__..__..__..__..__..__..__.._
 72
65
 73
6
 40
15.875
 49
6.3499999999999996
 74
0
 49
-3.1749999999999998
 74
0
 49
0.0
 74
0
 49
-3.1749999999999998
 74
0
 49
0.0
 74
0
 49
-3.1749999999999998
 74
0
  0
LTYPE
  5
3C
100
AcDbSymbolTableRecord
100
AcDbLinetypeTableRecord
  2
DIVIDEX2
 70
0
  3
Divide (2x) ________  .  .  ________  .  .  _
 72
65
 73
6
 40
63.5
 49
25.3999999999999986
 74
0
 49
-12.6999999999999993
 74
0
 49
0.0
 74
0
 49
-12.6999999999999993
 74
0
 49
0.0
 74
0
 49
-12.6999999999999993
 74
0
  0
LTYPE
  5
3D
100
AcDbSymbolTableRecord
100
AcDbLinetypeTableRecord
  2
CENTER
 70
0
  3
Center ____ _ ____ _ ____ _ ____ _ ____ _ ____
 72
65
 73
4
 40
50.7999999999999972
 49
31.75
 74
0
 49
-6.3499999999999996
 74
0
 49
6.3499999999999996
 74
0
 49
-6.3499999999999996
 74
0
  0
LTYPE
  5
3E
100
AcDbSymbolTableRecord
100
AcDbLinetypeTableRecord
  2
CENTER2
 70
0
  3
Center (.5x) ___ _ ___ _ ___ _ ___ _ ___ _ ___
 72
65
 73
4
 40
28.5749999999999993
 49
19.0500000000000007
 74
0
 49
-3.1749999999999998
 74
0
 49
3.1749999999999998
 74
0
 49
-3.1749999999999998
 74
0
  0
LTYPE
  5
3F
100
AcDbSymbolTableRecord
100
AcDbLinetypeTableRecord
  2
CENTERX2
 70
0
  3
Center (2x) ________  __  ________  __  _____
 72
65
 73
4
 40
101.5999999999999943
 49
63.5
 74
0
 49
-12.6999999999999993
 74
0
 49
12.6999999999999993
 74
0
 49
-12.6999999999999993
 74
0
  0
LTYPE
  5
40
100
AcDbSymbolTableRecord
100
AcDbLinetypeTableRecord
  2
BORDER
 70
0
  3
Border __ __ . __ __ . __ __ . __ __ . __ __ .
 72
65
 73
6
 40
44.4500000000000028
 49
12.6999999999999993
 74
0
 49
-6.3499999999999996
 74
0
 49
12.6999999999999993
 74
0
 49
-6.3499999999999996
 74
0
 49
0.0
 74
0
 49
-6.3499999999999996
 74
0
  0
LTYPE
  5
41
100
AcDbSymbolTableRecord
100
AcDbLinetypeTableRecord
  2
BORDER2
 70
0
  3
Border (.5x) __.__.__.__.__.__.__.__.__.__.__.
 72
65
 73
6
 40
22.2250000000000014
 49
6.3499999999999996
 74
0
 49
-3.1749999999999998
 74
0
 49
6.3499999999999996
 74
0
 49
-3.1749999999999998
 74
0
 49
0.0
 74
0
 49
-3.1749999999999998
 74
0
  0
LTYPE
  5
42
100
AcDbSymbolTableRecord
100
AcDbLinetypeTableRecord
  2
BORDERX2
 70
0
  3
Border (2x) ____  ____  .  ____  ____  .  ___
 72
65
 73
6
 40
88.9000000000000057
 49
25.3999999999999986
 74
0
 49
-12.6999999999999993
 74
0
 49
25.3999999999999986
 74
0
 49
-12.6999999999999993
 74
0
 49
0.0
 74
0
 49
-12.6999999999999993
 74
0
  0
ENDTAB
  0
TABLE
  2
LAYER
  5
2
100
AcDbSymbolTable
 70
4
  0
LAYER
  5
10
100
AcDbSymbolTableRecord
100
AcDbLayerTableRecord
  2
0
 70
0
 62
7
  6
CONTINUOUS
290
1
370
0
390
F
  0
LAYER
  5
43
100
AcDbSymbolTableRecord
100
AcDbLayerTableRecord
  2
grande
 70
0
 62
7
  6
CONTINUOUS
290
1
370
-3
390
F
  0
LAYER
  5
44
100
AcDbSymbolTableRecord
100
AcDbLayerTableRecord
  2
piccolo
 70
0
 62
7
  6
CONTINUOUS
290
1
370
-3
390
F
  0
LAYER
  5
45
100
AcDbSymbolTableRecord
100
AcDbLayerTableRecord
  2
misure
 70
0
 62
7
  6
CONTINUOUS
290
1
370
0
390
F
  0
ENDTAB
  0
TABLE
  2
STYLE
  5
3
100
AcDbSymbolTable
 70
1
  0
STYLE
  5
11
100
AcDbSymbolTableRecord
100
AcDbTextStyleTableRecord
  2
Standard
 70
0
 40
0.0
 41
0.75
 50
0.0
 71
0
 42
2.5
  3
txt
  4

  0
ENDTAB
  0
TABLE
  2
VIEW
  5
6
100
AcDbSymbolTable
 70
0
  0
ENDTAB
  0
TABLE
  2
UCS
  5
7
100
AcDbSymbolTable
 70
0
  0
ENDTAB
  0
TABLE
  2
APPID
  5
9
100
AcDbSymbolTable
 70
1
  0
APPID
  5
12
100
AcDbSymbolTableRecord
100
AcDbRegAppTableRecord
  2
ACAD
 70
0
  0
ENDTAB
  0
TABLE
  2
DIMSTYLE
  5
A
100
AcDbSymbolTable
 70
1
100
AcDbDimStyleTable
 71
0
  0
DIMSTYLE
105
27
100
AcDbSymbolTableRecord
100
AcDbDimStyleTableRecord
  2
Standard
 41
2.5
 42
0.625
 43
3.75
 44
1.25
 70
0
 73
0
 74
0
 77
1
 78
8
140
2.5
141
2.5
143
0.03937007874016
147
0.625
171
3
172
1
271
2
272
2
274
3
278
44
283
0
284
8
340
11
  0
ENDTAB
  0
TABLE
  2
BLOCK_RECORD
  5
1
100
AcDbSymbolTable
 70
1
  0
BLOCK_RECORD
  5
1F
100
AcDbSymbolTableRecord
100
AcDbBlockTableRecord
  2
*Model_Space
340
22
  0
BLOCK_RECORD
  5
1B
100
AcDbSymbolTableRecord
100
AcDbBlockTableRecord
  2
*Paper_Space
340
1E
  0
BLOCK_RECORD
  5
23
100
AcDbSymbolTableRecord
100
AcDbBlockTableRecord
  2
*Paper_Space0
340
26
  0
ENDTAB
  0
ENDSEC
  0
SECTION
  2
BLOCKS
  0
BLOCK
  5
20
100
AcDbEntity
  8
0
100
AcDbBlockBegin
  2
*Model_Space
 70
0
 10
0.0
 20
0.0
 30
0.0
  3
*Model_Space
  1

  0
ENDBLK
  5
21
100
AcDbEntity
  8
0
100
AcDbBlockEnd
  0
BLOCK
  5
1C
100
AcDbEntity
 67
1
  8
0
100
AcDbBlockBegin
  2
*Paper_Space
 70
0
 10
0.0
 20
0.0
 30
0.0
  3
*Paper_Space
  1

  0
ENDBLK
  5
1D
100
AcDbEntity
 67
1
  8
0
100
AcDbBlockEnd
  0
BLOCK
  5
24
100
AcDbEntity
  8
0
100
AcDbBlockBegin
  2
*Paper_Space0
 70
0
 10
0.0
 20
0.0
 30
0.0
  3
*Paper_Space0
  1

  0
ENDBLK
  5
25
100
AcDbEntity
  8
0
100
AcDbBlockEnd
  0
ENDSEC
  0
SECTION
  2
ENTITIES
  0
LINE
  5
46
100
AcDbEntity
100
AcDbLine
  8
grande
 62
150
370
-1
  6
ByLayer
 10
16.871792506165697
 20
8.803343570333384
 30
0.0
 11
16.4412176895107223
 21
8.7933840126584215
 31
0.0
  0
LINE
  5
47
100
AcDbEntity
100
AcDbLine
  8
grande
 62
150
370
-1
  6
ByLayer
 10
16.4412176895107223
 20
8.7933840126584215
 30
0.0
 11
15.3667926797268137
 21
8.7691390288234086
 31
0.0
  0
LINE
  5
48
100
AcDbEntity
100
AcDbLine
  8
grande
 62
150
370
-1
  6
ByLayer
 10
15.3667926797268137
 20
8.7691390288234086
 30
0.0
 11
14.6641911564748622
 21
8.7478114911760123
 31
0.0
  0
LINE
  5
49
100
AcDbEntity
100
AcDbLine
  8
grande
 62
150
370
-1
  6
ByLayer
 10
14.6641911564748622
 20
8.7478114911760123
 30
0.0
 11
14.1412640777429548
 21
8.7241701168970618
 31
0.0
  0
LINE
  5
4A
100
AcDbEntity
100
AcDbLine
  8
grande
 62
150
370
-1
  6
ByLayer
 10
14.1412640777429548
 20
8.7241701168970618
 30
0.0
 11
13.6829232215092969
 21
8.6931848263527307
 31
0.0
  0
LINE
  5
4B
100
AcDbEntity
100
AcDbLine
  8
grande
 62
150
370
-1
  6
ByLayer
 10
13.6829232215092969
 20
8.6931848263527307
 30
0.0
 11
13.4833296616393259
 21
8.6775915794878902
 31
0.0
  0
LINE
  5
4C
100
AcDbEntity
100
AcDbLine
  8
grande
 62
150
370
-1
  6
ByLayer
 10
13.4833296616393259
 20
8.6775915794878902
 30
0.0
 11
13.3032528107485781
 21
8.6645133724399575
 31
0.0
  0
LINE
  5
4D
100
AcDbEntity
100
AcDbLine
  8
grande
 62
150
370
-1
  6
ByLayer
 10
13.3032528107485781
 20
8.6645133724399575
 30
0.0
 11
13.1520486169559554
 21
8.6544532131723191
 31
0.0
  0
LINE
  5
4E
100
AcDbEntity
100
AcDbLine
  8
grande
 62
150
370
-1
  6
ByLayer
 10
13.1520486169559554
 20
8.6544532131723191
 30
0.0
 11
13.1030556413225501
 21
8.6532459940602031
 31
0.0
  0
LINE
  5
4F
100
AcDbEntity
100
AcDbLine
  8
grande
 62
150
370
-1
  6
ByLayer
 10
13.1030556413225501
 20
8.6532459940602031
 30
0.0
 11
12.9516502443445738
 21
8.6492219303531463
 31
0.0
  0
LINE
  5
50
100
AcDbEntity
100
AcDbLine
  8
grande
 62
150
370
-1
  6
ByLayer
 10
12.9516502443445738
 20
8.6492219303531463
 30
0.0
 11
11.6928225151848295
 21
8.5637105765782078
 31
0.0
  0
LINE
  5
51
100
AcDbEntity
100
AcDbLine
  8
grande
 62
150
370
-1
  6
ByLayer
 10
11.6928225151848295
 20
8.5637105765782078
 30
0.0
 11
10.5255422353606072
 21
8.4826256928810349
 31
0.0
  0
LINE
  5
52
100
AcDbEntity
100
AcDbLine
  8
grande
 62
150
370
-1
  6
ByLayer
 10
10.5255422353606072
 20
8.4826256928810349
 30
0.0
 11
9.768314047285374
 21
8.4256851914261937
 31
0.0
  0
LINE
  5
53
100
AcDbEntity
100
AcDbLine
  8
grande
 62
150
370
-1
  6
ByLayer
 10
9.768314047285374
 20
8.4256851914261937
 30
0.0
 11
7.9632196698928022
 21
8.225789826778195
 31
0.0
  0
LINE
  5
54
100
AcDbEntity
100
AcDbLine
  8
grande
 62
150
370
-1
  6
ByLayer
 10
7.9632196698928022
 20
8.225789826778195
 30
0.0
 11
6.2695918571856746
 21
7.9215706105247738
 31
0.0
  0
LINE
  5
55
100
AcDbEntity
100
AcDbLine
  8
grande
 62
150
370
-1
  6
ByLayer
 10
6.2695918571856746
 20
7.9215706105247738
 30
0.0
 11
4.5991024107941199
 21
7.4942150448354434
 31
0.0
  0
LINE
  5
56
100
AcDbEntity
100
AcDbLine
  8
grande
 62
150
370
-1
  6
ByLayer
 10
4.5991024107941199
 20
7.4942150448354434
 30
0.0
 11
2.8634231323482591
 21
6.9241058191383074
 31
0.0
  0
LINE
  5
57
100
AcDbEntity
100
AcDbLine
  8
grande
 62
150
370
-1
  6
ByLayer
 10
2.8634231323482591
 20
6.9241058191383074
 30
0.0
 11
2.6509525686157107
 21
6.8461395848141002
 31
0.0
  0
LINE
  5
58
100
AcDbEntity
100
AcDbLine
  8
grande
 62
150
370
-1
  6
ByLayer
 10
2.6509525686157107
 20
6.8461395848141002
 30
0.0
 11
2.447133741853333
 21
6.7694811711946867
 31
0.0
  0
LINE
  5
59
100
AcDbEntity
100
AcDbLine
  8
grande
 62
150
370
-1
  6
ByLayer
 10
2.447133741853333
 20
6.7694811711946867
 30
0.0
 11
2.2741996040426082
 21
6.7026817136575598
 31
0.0
  0
LINE
  5
5A
100
AcDbEntity
100
AcDbLine
  8
grande
 62
150
370
-1
  6
ByLayer
 10
2.2741996040426082
 20
6.7026817136575598
 30
0.0
 11
2.1842617801899098
 21
6.6651573195892642
 31
0.0
  0
LINE
  5
5B
100
AcDbEntity
100
AcDbLine
  8
grande
 62
150
370
-1
  6
ByLayer
 10
2.1842617801899098
 20
6.6651573195892642
 30
0.0
 11
2.1230960118426609
 21
6.6390009054934014
 31
0.0
  0
LINE
  5
5C
100
AcDbEntity
100
AcDbLine
  8
grande
 62
150
370
-1
  6
ByLayer
 10
2.1230960118426609
 20
6.6390009054934014
 30
0.0
 11
2.0663567135731737
 21
6.6168685551045945
 31
0.0
  0
LINE
  5
5D
100
AcDbEntity
100
AcDbLine
  8
grande
 62
150
370
-1
  6
ByLayer
 10
2.0663567135731737
 20
6.6168685551045945
 30
0.0
 11
2.0185709570518857
 21
6.6000680891276353
 31
0.0
  0
LINE
  5
5E
100
AcDbEntity
100
AcDbLine
  8
grande
 62
150
370
-1
  6
ByLayer
 10
2.0185709570518857
 20
6.6000680891276353
 30
0.0
 11
2.0137420806034187
 21
6.5986596668301667
 31
0.0
  0
LINE
  5
5F
100
AcDbEntity
100
AcDbLine
  8
grande
 62
150
370
-1
  6
ByLayer
 10
2.0137420806034187
 20
6.5986596668301667
 30
0.0
 11
2.0088126025622755
 21
6.5976536509034025
 31
0.0
  0
LINE
  5
60
100
AcDbEntity
100
AcDbLine
  8
grande
 62
150
370
-1
  6
ByLayer
 10
2.0088126025622755
 20
6.5976536509034025
 30
0.0
 11
2.0038831245211322
 21
6.5970500413473436
 31
0.0
  0
LINE
  5
61
100
AcDbEntity
100
AcDbLine
  8
grande
 62
150
370
-1
  6
ByLayer
 10
2.0038831245211322
 20
6.5970500413473436
 30
0.0
 11
1.9988530448873123
 21
6.5968488381619919
 31
0.0
  0
LINE
  5
62
100
AcDbEntity
100
AcDbLine
  8
grande
 62
150
370
-1
  6
ByLayer
 10
1.9988530448873123
 20
6.5968488381619919
 30
0.0
 11
1.9837628059858528
 21
6.5961446270132571
 31
0.0
  0
LINE
  5
63
100
AcDbEntity
100
AcDbLine
  8
grande
 62
150
370
-1
  6
ByLayer
 10
1.9837628059858528
 20
6.5961446270132571
 30
0.0
 11
1.9687731686770698
 21
6.5943337983450805
 31
0.0
  0
LINE
  5
64
100
AcDbEntity
100
AcDbLine
  8
grande
 62
150
370
-1
  6
ByLayer
 10
1.9687731686770698
 20
6.5943337983450805
 30
0.0
 11
1.9539847345536392
 21
6.5912151489721138
 31
0.0
  0
LINE
  5
65
100
AcDbEntity
100
AcDbLine
  8
grande
 62
150
370
-1
  6
ByLayer
 10
1.9539847345536392
 20
6.5912151489721138
 30
0.0
 11
1.9395987068009148
 21
6.5869898820797044
 31
0.0
  0
LINE
  5
66
100
AcDbEntity
100
AcDbLine
  8
grande
 62
150
370
-1
  6
ByLayer
 10
1.9395987068009148
 20
6.5869898820797044
 30
0.0
 11
1.9255144838262195
 21
6.581557396075179
 31
0.0
  0
LINE
  5
67
100
AcDbEntity
100
AcDbLine
  8
grande
 62
150
370
-1
  6
ByLayer
 10
1.9255144838262195
 20
6.581557396075179
 30
0.0
 11
1.3587251106874043
 21
6.333272665349833
 31
0.0
  0
LINE
  5
68
100
AcDbEntity
100
AcDbLine
  8
grande
 62
150
370
-1
  6
ByLayer
 10
1.3587251106874043
 20
6.333272665349833
 30
0.0
 11
0.8392184861064955
 21
6.1010841894527124
 31
0.0
  0
LINE
  5
69
100
AcDbEntity
100
AcDbLine
  8
grande
 62
150
370
-1
  6
ByLayer
 10
0.8392184861064955
 20
6.1010841894527124
 30
0.0
 11
0.5522021422007377
 21
5.960543764483786
 31
0.0
  0
LINE
  5
6A
100
AcDbEntity
100
AcDbLine
  8
grande
 62
150
370
-1
  6
ByLayer
 10
0.5522021422007377
 20
5.960543764483786
 30
0.0
 11
0.393251625772032
 21
5.8718131597432057
 31
0.0
  0
LINE
  5
6B
100
AcDbEntity
100
AcDbLine
  8
grande
 62
150
370
-1
  6
ByLayer
 10
0.2517051848763428
 20
4.5378360408541942
 30
0.0
 11
0.4240357131310091
 21
4.4264700777614241
 31
0.0
  0
LINE
  5
6C
100
AcDbEntity
100
AcDbLine
  8
grande
 62
150
370
-1
  6
ByLayer
 10
0.4240357131310091
 20
4.4264700777614241
 30
0.0
 11
0.6161847551429255
 21
4.3051445569936897
 31
0.0
  0
LINE
  5
6D
100
AcDbEntity
100
AcDbLine
  8
grande
 62
150
370
-1
  6
ByLayer
 10
0.6161847551429255
 20
4.3051445569936897
 30
0.0
 11
0.9313695449980741
 21
4.1101786703868353
 31
0.0
  0
LINE
  5
6E
100
AcDbEntity
100
AcDbLine
  8
grande
 62
150
370
-1
  6
ByLayer
 10
0.9313695449980741
 20
4.1101786703868353
 30
0.0
 11
1.2190901000525667
 21
3.9362385166493463
 31
0.0
  0
LINE
  5
6F
100
AcDbEntity
100
AcDbLine
  8
grande
 62
150
370
-1
  6
ByLayer
 10
1.2190901000525667
 20
3.9362385166493463
 30
0.0
 11
1.5573126546306102
 21
3.7368461599647298
 31
0.0
  0
LINE
  5
70
100
AcDbEntity
100
AcDbLine
  8
grande
 62
150
370
-1
  6
ByLayer
 10
1.5573126546306102
 20
3.7368461599647298
 30
0.0
 11
2.0479466221133933
 21
3.4518418479124997
 31
0.0
  0
LINE
  5
71
100
AcDbEntity
100
AcDbLine
  8
grande
 62
150
370
-1
  6
ByLayer
 10
2.0479466221133933
 20
3.4518418479124997
 30
0.0
 11
2.9827366212624651
 21
2.9314298089975033
 31
0.0
  0
LINE
  5
72
100
AcDbEntity
100
AcDbLine
  8
grande
 62
150
370
-1
  6
ByLayer
 10
2.9827366212624651
 20
2.9314298089975033
 30
0.0
 11
4.2312023863765384
 21
2.275507424747401
 31
0.0
  0
LINE
  5
73
100
AcDbEntity
100
AcDbLine
  8
grande
 62
150
370
-1
  6
ByLayer
 10
4.2312023863765384
 20
2.275507424747401
 30
0.0
 11
5.4417413510516131
 21
1.6607310919019453
 31
0.0
  0
LINE
  5
74
100
AcDbEntity
100
AcDbLine
  8
grande
 62
150
370
-1
  6
ByLayer
 10
7.4912975986478285
 20
0.8986740273782455
 30
0.0
 11
7.8473266351295932
 21
0.8343896096580284
 31
0.0
  0
LINE
  5
75
100
AcDbEntity
100
AcDbLine
  8
grande
 62
150
370
-1
  6
ByLayer
 10
7.8473266351295932
 20
0.8343896096580284
 30
0.0
 11
8.4214599245337869
 21
0.7481740447343571
 31
0.0
  0
LINE
  5
76
100
AcDbEntity
100
AcDbLine
  8
grande
 62
150
370
-1
  6
ByLayer
 10
8.4214599245337869
 20
0.7481740447343571
 30
0.0
 11
9.2389484666221779
 21
0.6473712488726082
 31
0.0
  0
LINE
  5
77
100
AcDbEntity
100
AcDbLine
  8
grande
 62
150
370
-1
  6
ByLayer
 10
9.2389484666221779
 20
0.6473712488726082
 30
0.0
 11
10.2511010905394002
 21
0.5359046841871614
 31
0.0
  0
LINE
  5
78
100
AcDbEntity
100
AcDbLine
  8
grande
 62
150
370
-1
  6
ByLayer
 10
10.2511010905394002
 20
0.5359046841871614
 30
0.0
 11
11.4537931309857139
 21
0.4151827729754863
 31
0.0
  0
LINE
  5
79
100
AcDbEntity
100
AcDbLine
  8
grande
 62
150
370
-1
  6
ByLayer
 10
11.4537931309857139
 20
0.4151827729754863
 30
0.0
 11
12.7370670471658212
 21
0.2923482283176068
 31
0.0
  0
LINE
  5
7A
100
AcDbEntity
100
AcDbLine
  8
grande
 62
150
370
-1
  6
ByLayer
 10
12.7370670471658212
 20
0.2923482283176068
 30
0.0
 11
13.1916856444704553
 21
0.2554274438053695
 31
0.0
  0
LINE
  5
7B
100
AcDbEntity
100
AcDbLine
  8
grande
 62
150
370
-1
  6
ByLayer
 10
13.1916856444704553
 20
0.2554274438053695
 30
0.0
 11
13.4361475146740972
 21
0.2467757068351994
 31
0.0
  0
LINE
  5
7C
100
AcDbEntity
100
AcDbLine
  8
grande
 62
150
370
-1
  6
ByLayer
 10
13.4361475146740972
 20
0.2467757068351994
 30
0.0
 11
13.4554630204679651
 21
0.2475805195766106
 31
0.0
  0
LINE
  5
7D
100
AcDbEntity
100
AcDbLine
  8
grande
 62
150
370
-1
  6
ByLayer
 10
13.4554630204679651
 20
0.2475805195766106
 30
0.0
 11
13.4746779246691553
 21
0.2497937546154912
 31
0.0
  0
LINE
  5
7E
100
AcDbEntity
100
AcDbLine
  8
grande
 62
150
370
-1
  6
ByLayer
 10
13.4746779246691553
 20
0.2497937546154912
 30
0.0
 11
13.4935910240923196
 21
0.2536166151371943
 31
0.0
  0
LINE
  5
7F
100
AcDbEntity
100
AcDbLine
  8
grande
 62
150
370
-1
  6
ByLayer
 10
13.4935910240923196
 20
0.2536166151371943
 30
0.0
 11
13.5122023187374509
 21
0.2588478979563669
 31
0.0
  0
LINE
  5
80
100
AcDbEntity
100
AcDbLine
  8
grande
 62
150
370
-1
  6
ByLayer
 10
13.5122023187374509
 20
0.2588478979563669
 30
0.0
 11
13.5303106054192046
 21
0.2656888062583618
 31
0.0
  0
LINE
  5
81
100
AcDbEntity
100
AcDbLine
  8
grande
 62
150
370
-1
  6
ByLayer
 10
13.5303106054192046
 20
0.2656888062583618
 30
0.0
 11
13.5478152825448959
 21
0.2738375352651499
 31
0.0
  0
LINE
  5
82
100
AcDbEntity
100
AcDbLine
  8
grande
 62
150
370
-1
  6
ByLayer
 10
13.5478152825448959
 20
0.2738375352651499
 30
0.0
 11
13.5921805849151855
 21
0.2946620649491639
 31
0.0
  0
LINE
  5
83
100
AcDbEntity
100
AcDbLine
  8
grande
 62
150
370
-1
  6
ByLayer
 10
13.5921805849151855
 20
0.2946620649491639
 30
0.0
 11
13.6381555127683001
 21
0.3117643357041512
 31
0.0
  0
LINE
  5
84
100
AcDbEntity
100
AcDbLine
  8
grande
 62
150
370
-1
  6
ByLayer
 10
13.6381555127683001
 20
0.3117643357041512
 30
0.0
 11
13.6853376597335306
 21
0.3251443475301118
 31
0.0
  0
LINE
  5
85
100
AcDbEntity
100
AcDbLine
  8
grande
 62
150
370
-1
  6
ByLayer
 10
13.6853376597335306
 20
0.3251443475301118
 30
0.0
 11
13.7334252210328476
 21
0.3346008972416931
 31
0.0
  0
LINE
  5
86
100
AcDbEntity
100
AcDbLine
  8
grande
 62
150
370
-1
  6
ByLayer
 10
13.7334252210328476
 20
0.3346008972416931
 30
0.0
 11
13.7821163918882217
 21
0.3401339848388948
 31
0.0
  0
LINE
  5
87
100
AcDbEntity
100
AcDbLine
  8
grande
 62
150
370
-1
  6
ByLayer
 10
13.7821163918882217
 20
0.3401339848388948
 30
0.0
 11
13.967424525598144
 21
0.347779705882301
 31
0.0
  0
LINE
  5
88
100
AcDbEntity
100
AcDbLine
  8
grande
 62
150
370
-1
  6
ByLayer
 10
13.967424525598144
 20
0.347779705882301
 30
0.0
 11
14.1528332609007421
 21
0.343956845360598
 31
0.0
  0
LINE
  5
89
100
AcDbEntity
100
AcDbLine
  8
grande
 62
150
370
-1
  6
ByLayer
 10
14.1528332609007421
 20
0.343956845360598
 30
0.0
 11
14.3421654583177194
 21
0.3280617937177274
 31
0.0
  0
LINE
  5
8A
100
AcDbEntity
100
AcDbLine
  8
grande
 62
150
370
-1
  6
ByLayer
 10
14.3421654583177194
 20
0.3280617937177274
 30
0.0
 11
14.5299886318445513
 21
0.3002957541390421
 31
0.0
  0
LINE
  5
8B
100
AcDbEntity
100
AcDbLine
  8
grande
 62
150
370
-1
  6
ByLayer
 10
14.5299886318445513
 20
0.3002957541390421
 30
0.0
 11
14.5990013244205574
 21
0.2851049136449063
 31
0.0
  0
LINE
  5
8C
100
AcDbEntity
100
AcDbLine
  8
grande
 62
150
370
-1
  6
ByLayer
 10
14.5990013244205574
 20
0.2851049136449063
 30
0.0
 11
14.6666055946990976
 21
0.2647833919242742
 31
0.0
  0
LINE
  5
8D
100
AcDbEntity
100
AcDbLine
  8
grande
 62
150
370
-1
  6
ByLayer
 10
14.6666055946990976
 20
0.2647833919242742
 30
0.0
 11
14.7324996379021353
 21
0.2394317905698225
 31
0.0
  0
LINE
  5
8E
100
AcDbEntity
100
AcDbLine
  8
grande
 62
150
370
-1
  6
ByLayer
 10
14.7324996379021353
 20
0.2394317905698225
 30
0.0
 11
14.7962810476589706
 21
0.2091507111742273
 31
0.0
  0
LINE
  5
8F
100
AcDbEntity
100
AcDbLine
  8
grande
 62
150
370
-1
  6
ByLayer
 10
14.7962810476589706
 20
0.2091507111742273
 30
0.0
 11
14.8330006289858574
 21
0.1917466356412107
 31
0.0
  0
LINE
  5
90
100
AcDbEntity
100
AcDbLine
  8
grande
 62
150
370
-1
  6
ByLayer
 10
14.8330006289858574
 20
0.1917466356412107
 30
0.0
 11
14.8710280310175325
 21
0.1772600062958098
 31
0.0
  0
LINE
  5
91
100
AcDbEntity
100
AcDbLine
  8
grande
 62
150
370
-1
  6
ByLayer
 10
14.8710280310175325
 20
0.1772600062958098
 30
0.0
 11
14.9099608473832976
 21
0.1656908231380242
 31
0.0
  0
LINE
  5
92
100
AcDbEntity
100
AcDbLine
  8
grande
 62
150
370
-1
  6
ByLayer
 10
14.9099608473832976
 20
0.1656908231380242
 30
0.0
 11
14.9496984764904752
 21
0.1571396877605306
 31
0.0
  0
LINE
  5
93
100
AcDbEntity
100
AcDbLine
  8
grande
 62
150
370
-1
  6
ByLayer
 10
14.9496984764904752
 20
0.1571396877605306
 30
0.0
 11
15.2024096772935824
 21
0.1239411621773199
 31
0.0
  0
LINE
  5
94
100
AcDbEntity
100
AcDbLine
  8
grande
 62
150
370
-1
  6
ByLayer
 10
15.2024096772935824
 20
0.1239411621773199
 30
0.0
 11
15.6298658445755887
 21
0.095269708264547
 31
0.0
  0
LINE
  5
95
100
AcDbEntity
100
AcDbLine
  8
grande
 62
150
370
-1
  6
ByLayer
 10
15.6298658445755887
 20
0.095269708264547
 30
0.0
 11
16.5282380671758027
 21
0.0564374934914582
 31
0.0
  0
LINE
  5
96
100
AcDbEntity
100
AcDbLine
  8
grande
 62
150
370
-1
  6
ByLayer
 10
16.5282380671758027
 20
0.0564374934914582
 30
0.0
 11
16.7528814236221955
 21
0.0472827485579061
 31
0.0
  0
LINE
  5
97
100
AcDbEntity
100
AcDbLine
  8
grande
 62
150
370
-1
  6
ByLayer
 10
16.7528814236221955
 20
0.0472827485579061
 30
0.0
 11
17.025612341367907
 21
0.035814166992797
 31
0.0
  0
LINE
  5
98
100
AcDbEntity
100
AcDbLine
  8
grande
 62
150
370
-1
  6
ByLayer
 10
17.025612341367907
 20
0.035814166992797
 30
0.0
 11
17.3008582989305246
 21
0.024144382242335
 31
0.0
  0
LINE
  5
99
100
AcDbEntity
100
AcDbLine
  8
grande
 62
150
370
-1
  6
ByLayer
 10
18.0988301320396978
 20
8.8256771239075444
 30
0.0
 11
18.0960132874447623
 21
8.8275885541683969
 31
0.0
  0
LINE
  5
9A
100
AcDbEntity
100
AcDbLine
  8
grande
 62
150
370
-1
  6
ByLayer
 10
6.709976146571659
 20
1.0833500069598849
 30
0.0
 11
7.4912975986478285
 21
0.8986740273782455
 31
0.0
  0
LINE
  5
9B
100
AcDbEntity
100
AcDbLine
  8
grande
 62
150
370
-1
  6
ByLayer
 10
5.4417413510516131
 20
1.6607310919019453
 30
0.0
 11
6.709976146571659
 21
1.0833500069598849
 31
0.0
  0
LINE
  5
9C
100
AcDbEntity
100
AcDbLine
  8
grande
 62
150
370
-1
  6
ByLayer
 10
0.393251625772032
 20
5.8718131597432057
 30
0.0
 11
0.0000000000000002
 21
5.6263831548639818
 31
0.0
  0
LINE
  5
9D
100
AcDbEntity
100
AcDbLine
  8
grande
 62
150
370
-1
  6
ByLayer
 10
0.0000000000000002
 20
4.7042293843578831
 30
0.0
 11
0.2517051848763428
 21
4.5378360408541942
 31
0.0
  0
LINE
  5
9E
100
AcDbEntity
100
AcDbLine
  8
grande
 62
150
370
-1
  6
ByLayer
 10
0.0000000000000002
 20
4.7042293843578831
 30
0.0
 11
0.0000000000000002
 21
5.6263831548639818
 31
0.0
  0
LINE
  5
9F
100
AcDbEntity
100
AcDbLine
  8
piccolo
 62
150
370
-1
  6
ByLayer
 10
0.1897346037876828
 20
5.5903299034346494
 30
0.0
 11
0.209854922322962
 21
5.6158827079744542
 31
0.0
  0
LINE
  5
A0
100
AcDbEntity
100
AcDbLine
  8
piccolo
 62
150
370
-1
  6
ByLayer
 10
0.2320878743044456
 20
5.6397252854387592
 30
0.0
 11
0.2561316549541042
 21
5.6615558310495375
 31
0.0
  0
LINE
  5
A1
100
AcDbEntity
100
AcDbLine
  8
piccolo
 62
150
370
-1
  6
ByLayer
 10
0.2561316549541042
 20
5.6615558310495375
 30
0.0
 11
0.3144805787064139
 21
5.7068265477539155
 31
0.0
  0
LINE
  5
A2
100
AcDbEntity
100
AcDbLine
  8
piccolo
 62
150
370
-1
  6
ByLayer
 10
0.3144805787064139
 20
5.7068265477539155
 30
0.0
 11
0.375746948646339
 21
5.7477713959732091
 31
0.0
  0
LINE
  5
A3
100
AcDbEntity
100
AcDbLine
  8
piccolo
 62
150
370
-1
  6
ByLayer
 10
0.375746948646339
 20
5.7477713959732091
 30
0.0
 11
0.4398301631812033
 21
5.7842897741147405
 31
0.0
  0
LINE
  5
A4
100
AcDbEntity
100
AcDbLine
  8
piccolo
 62
150
370
-1
  6
ByLayer
 10
0.4398301631812033
 20
5.7842897741147405
 30
0.0
 11
0.8335847969166174
 21
5.9824749116872411
 31
0.0
  0
LINE
  5
A5
100
AcDbEntity
100
AcDbLine
  8
piccolo
 62
150
370
-1
  6
ByLayer
 10
0.8335847969166174
 20
5.9824749116872411
 30
0.0
 11
1.2892094101480149
 21
6.1920280292321737
 31
0.0
  0
LINE
  5
A6
100
AcDbEntity
100
AcDbLine
  8
piccolo
 62
150
370
-1
  6
ByLayer
 10
1.2892094101480149
 20
6.1920280292321737
 30
0.0
 11
1.7398039437455923
 21
6.3781409756835066
 31
0.0
  0
LINE
  5
A7
100
AcDbEntity
100
AcDbLine
  8
piccolo
 62
150
370
-1
  6
ByLayer
 10
1.7398039437455923
 20
6.3781409756835066
 30
0.0
 11
1.9325565953135673
 21
6.4533909670054497
 31
0.0
  0
LINE
  5
A8
100
AcDbEntity
100
AcDbLine
  8
piccolo
 62
150
370
-1
  6
ByLayer
 10
1.9325565953135673
 20
6.4533909670054497
 30
0.0
 11
2.1066979522364084
 21
6.5216994484327238
 31
0.0
  0
LINE
  5
A9
100
AcDbEntity
100
AcDbLine
  8
piccolo
 62
150
370
-1
  6
ByLayer
 10
2.1066979522364084
 20
6.5216994484327238
 30
0.0
 11
2.2527714648025357
 21
6.5794447626289747
 31
0.0
  0
LINE
  5
AA
100
AcDbEntity
100
AcDbLine
  8
piccolo
 62
150
370
-1
  6
ByLayer
 10
2.2527714648025357
 20
6.5794447626289747
 30
0.0
 11
2.3016638388432642
 21
6.5995650811642541
 31
0.0
  0
LINE
  5
AB
100
AcDbEntity
100
AcDbLine
  8
piccolo
 62
150
370
-1
  6
ByLayer
 10
2.3016638388432642
 20
6.5995650811642541
 30
0.0
 11
2.3903944435838453
 21
6.6344738338229634
 31
0.0
  0
LINE
  5
AC
100
AcDbEntity
100
AcDbLine
  8
piccolo
 62
150
370
-1
  6
ByLayer
 10
2.3903944435838453
 20
6.6344738338229634
 30
0.0
 11
2.5601093304289253
 21
6.6945329846507713
 31
0.0
  0
LINE
  5
AD
100
AcDbEntity
100
AcDbLine
  8
piccolo
 62
150
370
-1
  6
ByLayer
 10
2.5601093304289253
 20
6.6945329846507713
 30
0.0
 11
2.8538659810440019
 21
6.7961405932539316
 31
0.0
  0
LINE
  5
AE
100
AcDbEntity
100
AcDbLine
  8
piccolo
 62
150
370
-1
  6
ByLayer
 10
2.8538659810440019
 20
6.7961405932539316
 30
0.0
 11
3.5159250624473635
 21
7.0228965831465278
 31
0.0
  0
LINE
  5
AF
100
AcDbEntity
100
AcDbLine
  8
piccolo
 62
150
370
-1
  6
ByLayer
 10
3.5159250624473635
 20
7.0228965831465278
 30
0.0
 11
4.1015269334166646
 21
7.2209811191263524
 31
0.0
  0
LINE
  5
B0
100
AcDbEntity
100
AcDbLine
  8
piccolo
 62
150
370
-1
  6
ByLayer
 10
4.1015269334166646
 20
7.2209811191263524
 30
0.0
 11
4.5360252121860194
 21
7.3618233488733065
 31
0.0
  0
LINE
  5
B1
100
AcDbEntity
100
AcDbLine
  8
piccolo
 62
150
370
-1
  6
ByLayer
 10
4.5360252121860194
 20
7.3618233488733065
 30
0.0
 11
4.8660990377572739
 21
7.4614189256229393
 31
0.0
  0
LINE
  5
B2
100
AcDbEntity
100
AcDbLine
  8
piccolo
 62
150
370
-1
  6
ByLayer
 10
4.8660990377572739
 20
7.4614189256229393
 30
0.0
 11
5.1107621111462693
 21
7.5245967258237147
 31
0.0
  0
LINE
  5
B3
100
AcDbEntity
100
AcDbLine
  8
piccolo
 62
150
370
-1
  6
ByLayer
 10
5.1107621111462693
 20
7.5245967258237147
 30
0.0
 11
5.2194118312367772
 21
7.5501495303635195
 31
0.0
  0
LINE
  5
B4
100
AcDbEntity
100
AcDbLine
  8
piccolo
 62
150
370
-1
  6
ByLayer
 10
5.2194118312367772
 20
7.5501495303635195
 30
0.0
 11
5.4005952996469659
 21
7.5946154343264869
 31
0.0
  0
LINE
  5
B5
100
AcDbEntity
100
AcDbLine
  8
piccolo
 62
150
370
-1
  6
ByLayer
 10
5.4005952996469659
 20
7.5946154343264869
 30
0.0
 11
5.608639393301754
 21
7.6465258561475062
 31
0.0
  0
LINE
  5
B6
100
AcDbEntity
100
AcDbLine
  8
piccolo
 62
150
370
-1
  6
ByLayer
 10
5.608639393301754
 20
7.6465258561475062
 30
0.0
 11
5.8174882996979518
 21
7.6994422938952916
 31
0.0
  0
LINE
  5
B7
100
AcDbEntity
100
AcDbLine
  8
piccolo
 62
150
370
-1
  6
ByLayer
 10
5.8174882996979518
 20
7.6994422938952916
 30
0.0
 11
6.2287476105590578
 21
7.7941083926037793
 31
0.0
  0
LINE
  5
B8
100
AcDbEntity
100
AcDbLine
  8
piccolo
 62
150
370
-1
  6
ByLayer
 10
6.2287476105590578
 20
7.7941083926037793
 30
0.0
 11
6.880746532694781
 21
7.9234820407856255
 31
0.0
  0
LINE
  5
B9
100
AcDbEntity
100
AcDbLine
  8
piccolo
 62
150
370
-1
  6
ByLayer
 10
6.880746532694781
 20
7.9234820407856255
 30
0.0
 11
7.5310352277550034
 21
8.0438015456265948
 31
0.0
  0
LINE
  5
BA
100
AcDbEntity
100
AcDbLine
  8
piccolo
 62
150
370
-1
  6
ByLayer
 10
7.5310352277550034
 20
8.0438015456265948
 30
0.0
 11
7.9197597818565981
 21
8.1023516725642573
 31
0.0
  0
LINE
  5
BB
100
AcDbEntity
100
AcDbLine
  8
piccolo
 62
150
370
-1
  6
ByLayer
 10
7.9197597818565981
 20
8.1023516725642573
 30
0.0
 11
8.4643162030139294
 21
8.1678433093965914
 31
0.0
  0
LINE
  5
BC
100
AcDbEntity
100
AcDbLine
  8
piccolo
 62
150
370
-1
  6
ByLayer
 10
8.4643162030139294
 20
8.1678433093965914
 30
0.0
 11
8.9579682182770064
 21
8.2244820060734014
 31
0.0
  0
LINE
  5
BD
100
AcDbEntity
100
AcDbLine
  8
piccolo
 62
150
370
-1
  6
ByLayer
 10
8.9579682182770064
 20
8.2244820060734014
 30
0.0
 11
9.3650022622457012
 21
8.268746706851017
 31
0.0
  0
LINE
  5
BE
100
AcDbEntity
100
AcDbLine
  8
piccolo
 62
150
370
-1
  6
ByLayer
 10
9.3650022622457012
 20
8.268746706851017
 30
0.0
 11
9.5690222921934343
 21
8.2863519855693877
 31
0.0
  0
LINE
  5
BF
100
AcDbEntity
100
AcDbLine
  8
piccolo
 62
150
370
-1
  6
ByLayer
 10
9.5690222921934343
 20
8.2863519855693877
 30
0.0
 11
9.8751529387077088
 21
8.3070759136607251
 31
0.0
  0
LINE
  5
C0
100
AcDbEntity
100
AcDbLine
  8
piccolo
 62
150
370
-1
  6
ByLayer
 10
9.8751529387077088
 20
8.3070759136607251
 30
0.0
 11
10.0731368730948549
 21
8.3214619414134461
 31
0.0
  0
LINE
  5
C1
100
AcDbEntity
100
AcDbLine
  8
piccolo
 62
150
370
-1
  6
ByLayer
 10
10.0731368730948549
 20
8.3214619414134461
 30
0.0
 11
10.2331940070430019
 21
8.3344395468687011
 31
0.0
  0
LINE
  5
C2
100
AcDbEntity
100
AcDbLine
  8
piccolo
 62
150
370
-1
  6
ByLayer
 10
10.2331940070430019
 20
8.3344395468687011
 30
0.0
 11
10.40270769070273
 21
8.3498315905481917
 31
0.0
  0
LINE
  5
C3
100
AcDbEntity
100
AcDbLine
  8
piccolo
 62
150
370
-1
  6
ByLayer
 10
10.40270769070273
 20
8.3498315905481917
 30
0.0
 11
10.5123634267200003
 21
8.3596905466304783
 31
0.0
  0
LINE
  5
C4
100
AcDbEntity
100
AcDbLine
  8
piccolo
 62
150
370
-1
  6
ByLayer
 10
10.5123634267200003
 20
8.3596905466304783
 30
0.0
 11
10.6488797879818691
 21
8.3709579250102362
 31
0.0
  0
LINE
  5
C5
100
AcDbEntity
100
AcDbLine
  8
piccolo
 62
150
370
-1
  6
ByLayer
 10
10.6488797879818691
 20
8.3709579250102362
 30
0.0
 11
10.7889172049874116
 21
8.3817222954266093
 31
0.0
  0
LINE
  5
C6
100
AcDbEntity
100
AcDbLine
  8
piccolo
 62
150
370
-1
  6
ByLayer
 10
10.7889172049874116
 20
8.3817222954266093
 30
0.0
 11
10.910142124162471
 21
8.3902734308041023
 31
0.0
  0
LINE
  5
C7
100
AcDbEntity
100
AcDbLine
  8
piccolo
 62
150
370
-1
  6
ByLayer
 10
10.910142124162471
 20
8.3902734308041023
 30
0.0
 11
11.0497771347973082
 21
8.3996293789230076
 31
0.0
  0
LINE
  5
C8
100
AcDbEntity
100
AcDbLine
  8
piccolo
 62
150
370
-1
  6
ByLayer
 10
11.0497771347973082
 20
8.3996293789230076
 30
0.0
 11
11.2565134077473008
 21
8.4136130003050269
 31
0.0
  0
LINE
  5
C9
100
AcDbEntity
100
AcDbLine
  8
piccolo
 62
150
370
-1
  6
ByLayer
 10
11.2565134077473008
 20
8.4136130003050269
 30
0.0
 11
11.4863880470128663
 21
8.4292062471698692
 31
0.0
  0
LINE
  5
CA
100
AcDbEntity
100
AcDbLine
  8
piccolo
 62
150
370
-1
  6
ByLayer
 10
11.4863880470128663
 20
8.4292062471698692
 30
0.0
 11
11.7075103477155853
 21
8.4441958844786509
 31
0.0
  0
LINE
  5
CB
100
AcDbEntity
100
AcDbLine
  8
piccolo
 62
150
370
-1
  6
ByLayer
 10
11.7075103477155853
 20
8.4441958844786509
 30
0.0
 11
11.9365801742397366
 21
8.4593867249727861
 31
0.0
  0
LINE
  5
CC
100
AcDbEntity
100
AcDbLine
  8
piccolo
 62
150
370
-1
  6
ByLayer
 10
11.9365801742397366
 20
8.4593867249727861
 30
0.0
 11
12.1904985941549615
 21
8.4754829798010096
 31
0.0
  0
LINE
  5
CD
100
AcDbEntity
100
AcDbLine
  8
piccolo
 62
150
370
-1
  6
ByLayer
 10
12.1904985941549615
 20
8.4754829798010096
 30
0.0
 11
12.4308357990588725
 21
8.4899696091464101
 31
0.0
  0
LINE
  5
CE
100
AcDbEntity
100
AcDbLine
  8
piccolo
 62
150
370
-1
  6
ByLayer
 10
12.4308357990588725
 20
8.4899696091464101
 30
0.0
 11
12.6137294945445593
 21
8.5003315731920797
 31
0.0
  0
LINE
  5
CF
100
AcDbEntity
100
AcDbLine
  8
piccolo
 62
150
370
-1
  6
ByLayer
 10
12.6137294945445593
 20
8.5003315731920797
 30
0.0
 11
12.7954159709181319
 21
8.5105929356450716
 31
0.0
  0
LINE
  5
D0
100
AcDbEntity
100
AcDbLine
  8
piccolo
 62
150
370
-1
  6
ByLayer
 10
12.7954159709181319
 20
8.5105929356450716
 30
0.0
 11
13.0315279089296325
 21
8.5251801665831497
 31
0.0
  0
LINE
  5
D1
100
AcDbEntity
100
AcDbLine
  8
piccolo
 62
150
370
-1
  6
ByLayer
 10
13.0315279089296325
 20
8.5251801665831497
 30
0.0
 11
13.2796114364696258
 21
8.5412764214113732
 31
0.0
  0
LINE
  5
D2
100
AcDbEntity
100
AcDbLine
  8
piccolo
 62
150
370
-1
  6
ByLayer
 10
13.2796114364696258
 20
8.5412764214113732
 30
0.0
 11
13.5017397530991055
 21
8.5565678634981861
 31
0.0
  0
LINE
  5
D3
100
AcDbEntity
100
AcDbLine
  8
piccolo
 62
150
370
-1
  6
ByLayer
 10
13.5017397530991055
 20
8.5565678634981861
 30
0.0
 11
13.7400649261494898
 21
8.5715575008069695
 31
0.0
  0
LINE
  5
D4
100
AcDbEntity
100
AcDbLine
  8
piccolo
 62
150
370
-1
  6
ByLayer
 10
13.7400649261494898
 20
8.5715575008069695
 30
0.0
 11
14.0410648914372658
 21
8.5866477397084271
 31
0.0
  0
LINE
  5
D5
100
AcDbEntity
100
AcDbLine
  8
piccolo
 62
150
370
-1
  6
ByLayer
 10
14.0410648914372658
 20
8.5866477397084271
 30
0.0
 11
14.3524268207707131
 21
8.5996253451636839
 31
0.0
  0
LINE
  5
D6
100
AcDbEntity
100
AcDbLine
  8
piccolo
 62
150
370
-1
  6
ByLayer
 10
14.3524268207707131
 20
8.5996253451636839
 30
0.0
 11
14.6253589417017746
 21
8.6082770821338546
 31
0.0
  0
LINE
  5
D7
100
AcDbEntity
100
AcDbLine
  8
piccolo
 62
150
370
-1
  6
ByLayer
 10
14.6253589417017746
 20
8.6082770821338546
 30
0.0
 11
14.8969832419280426
 21
8.6159228031772574
 31
0.0
  0
LINE
  5
D8
100
AcDbEntity
100
AcDbLine
  8
piccolo
 62
150
370
-1
  6
ByLayer
 10
14.8969832419280426
 20
8.6159228031772574
 30
0.0
 11
15.2042205059617572
 21
8.6262847672229288
 31
0.0
  0
LINE
  5
D9
100
AcDbEntity
100
AcDbLine
  8
piccolo
 62
150
370
-1
  6
ByLayer
 10
15.2042205059617572
 20
8.6262847672229288
 30
0.0
 11
15.4995867820596551
 21
8.6373509424173314
 31
0.0
  0
LINE
  5
DA
100
AcDbEntity
100
AcDbLine
  8
piccolo
 62
150
370
-1
  6
ByLayer
 10
15.4995867820596551
 20
8.6373509424173314
 30
0.0
 11
15.7308698436226884
 21
8.6476123048703251
 31
0.0
  0
LINE
  5
DB
100
AcDbEntity
100
AcDbLine
  8
piccolo
 62
150
370
-1
  6
ByLayer
 10
15.7308698436226884
 20
8.6476123048703251
 30
0.0
 11
15.9825750284990331
 21
8.6566664482111992
 31
0.0
  0
LINE
  5
DC
100
AcDbEntity
100
AcDbLine
  8
piccolo
 62
150
370
-1
  6
ByLayer
 10
15.9825750284990331
 20
8.6566664482111992
 30
0.0
 11
16.3559075389211372
 21
8.6640103644765762
 31
0.0
  0
LINE
  5
DD
100
AcDbEntity
100
AcDbLine
  8
piccolo
 62
150
370
-1
  6
ByLayer
 10
16.3559075389211372
 20
8.6640103644765762
 30
0.0
 11
16.7714927182673286
 21
8.6688392409250437
 31
0.0
  0
LINE
  5
DE
100
AcDbEntity
100
AcDbLine
  8
piccolo
 62
150
370
-1
  6
ByLayer
 10
0.0928552700403135
 20
4.802619432778469
 30
0.0
 11
0.0888312063332577
 21
4.8134844047875189
 31
0.0
  0
LINE
  5
DF
100
AcDbEntity
100
AcDbLine
  8
piccolo
 62
150
370
-1
  6
ByLayer
 10
0.0888312063332577
 20
4.8134844047875189
 30
0.0
 11
0.0840023298847907
 21
4.8304860739498299
 31
0.0
  0
LINE
  5
E0
100
AcDbEntity
100
AcDbLine
  8
piccolo
 62
150
370
-1
  6
ByLayer
 10
0.0840023298847907
 20
4.8304860739498299
 30
0.0
 11
0.080280070955764
 21
4.8477895478901711
 31
0.0
  0
LINE
  5
E1
100
AcDbEntity
100
AcDbLine
  8
piccolo
 62
150
370
-1
  6
ByLayer
 10
0.080280070955764
 20
4.8477895478901711
 30
0.0
 11
0.0777650311388541
 21
4.8652942250158633
 31
0.0
  0
LINE
  5
E2
100
AcDbEntity
100
AcDbLine
  8
piccolo
 62
150
370
-1
  6
ByLayer
 10
0.0777650311388541
 20
4.8652942250158633
 30
0.0
 11
0.0763566088413846
 21
4.8828995037342322
 31
0.0
  0
LINE
  5
E3
100
AcDbEntity
100
AcDbLine
  8
piccolo
 62
150
370
-1
  6
ByLayer
 10
0.0763566088413846
 20
4.8828995037342322
 30
0.0
 11
0.0740427722098275
 21
5.0137821758062229
 31
0.0
  0
LINE
  5
E4
100
AcDbEntity
100
AcDbLine
  8
piccolo
 62
150
370
-1
  6
ByLayer
 10
0.0740427722098275
 20
5.0137821758062229
 30
0.0
 11
0.0850083458115546
 21
5.2602560778633931
 31
0.0
  0
LINE
  5
E5
100
AcDbEntity
100
AcDbLine
  8
piccolo
 62
150
370
-1
  6
ByLayer
 10
0.0850083458115546
 20
5.2602560778633931
 30
0.0
 11
0.0916480509281968
 21
5.319108009579085
 31
0.0
  0
LINE
  5
E6
100
AcDbEntity
100
AcDbLine
  8
piccolo
 62
150
370
-1
  6
ByLayer
 10
0.0916480509281968
 20
5.319108009579085
 30
0.0
 11
0.1022112181592183
 21
5.3774569333313957
 31
0.0
  0
LINE
  5
E7
100
AcDbEntity
100
AcDbLine
  8
piccolo
 62
150
370
-1
  6
ByLayer
 10
0.1022112181592183
 20
5.3774569333313957
 30
0.0
 11
0.1163960427265902
 21
5.4350010443422931
 31
0.0
  0
LINE
  5
E8
100
AcDbEntity
100
AcDbLine
  8
piccolo
 62
150
370
-1
  6
ByLayer
 10
0.1163960427265902
 20
5.4350010443422931
 30
0.0
 11
0.1269592099576118
 21
5.468400773110857
 31
0.0
  0
LINE
  5
E9
100
AcDbEntity
100
AcDbLine
  8
piccolo
 62
150
370
-1
  6
ByLayer
 10
0.1269592099576118
 20
5.468400773110857
 30
0.0
 11
0.139735612227514
 21
5.5009956891380094
 31
0.0
  0
LINE
  5
EA
100
AcDbEntity
100
AcDbLine
  8
piccolo
 62
150
370
-1
  6
ByLayer
 10
0.139735612227514
 20
5.5009956891380094
 30
0.0
 11
0.154725249536297
 21
5.5325845892383985
 31
0.0
  0
LINE
  5
EB
100
AcDbEntity
100
AcDbLine
  8
piccolo
 62
150
370
-1
  6
ByLayer
 10
0.154725249536297
 20
5.5325845892383985
 30
0.0
 11
0.171726918698608
 21
5.5631674734120216
 31
0.0
  0
LINE
  5
EC
100
AcDbEntity
100
AcDbLine
  8
piccolo
 62
150
370
-1
  6
ByLayer
 10
0.171726918698608
 20
5.5631674734120216
 30
0.0
 11
0.1897346037876828
 21
5.5903299034346494
 31
0.0
  0
LINE
  5
ED
100
AcDbEntity
100
AcDbLine
  8
piccolo
 62
150
370
-1
  6
ByLayer
 10
0.209854922322962
 20
5.6158827079744542
 30
0.0
 11
0.2320878743044456
 21
5.6397252854387592
 31
0.0
  0
LINE
  5
EE
100
AcDbEntity
100
AcDbLine
  8
piccolo
 62
150
370
-1
  6
ByLayer
 10
2.0538821160813003
 20
3.5555620899618638
 30
0.0
 11
1.2375001915123471
 21
4.0349286790648904
 31
0.0
  0
LINE
  5
EF
100
AcDbEntity
100
AcDbLine
  8
piccolo
 62
150
370
-1
  6
ByLayer
 10
1.2375001915123471
 20
4.0349286790648904
 30
0.0
 11
0.488018326073197
 21
4.4903520891109352
 31
0.0
  0
LINE
  5
F0
100
AcDbEntity
100
AcDbLine
  8
piccolo
 62
150
370
-1
  6
ByLayer
 10
0.488018326073197
 20
4.4903520891109352
 30
0.0
 11
0.3268545746056106
 21
4.5962855661991808
 31
0.0
  0
LINE
  5
F1
100
AcDbEntity
100
AcDbLine
  8
piccolo
 62
150
370
-1
  6
ByLayer
 10
0.3268545746056106
 20
4.5962855661991808
 30
0.0
 11
0.1721293250693136
 21
4.7112731866283006
 31
0.0
  0
LINE
  5
F2
100
AcDbEntity
100
AcDbLine
  8
piccolo
 62
150
370
-1
  6
ByLayer
 10
0.1721293250693136
 20
4.7112731866283006
 30
0.0
 11
0.1528138192754455
 21
4.7275706446418777
 31
0.0
  0
LINE
  5
F3
100
AcDbEntity
100
AcDbLine
  8
piccolo
 62
150
370
-1
  6
ByLayer
 10
0.1528138192754455
 20
4.7275706446418777
 30
0.0
 11
0.1345043294083415
 21
4.7449747201748931
 31
0.0
  0
LINE
  5
F4
100
AcDbEntity
100
AcDbLine
  8
piccolo
 62
150
370
-1
  6
ByLayer
 10
0.1345043294083415
 20
4.7449747201748931
 30
0.0
 11
0.1173014570606777
 21
4.7634854132273512
 31
0.0
  0
LINE
  5
F5
100
AcDbEntity
100
AcDbLine
  8
piccolo
 62
150
370
-1
  6
ByLayer
 10
0.1099575407953008
 20
4.7725395565682254
 30
0.0
 11
0.1035190388640115
 21
4.7820967078724843
 31
0.0
  0
LINE
  5
F6
100
AcDbEntity
100
AcDbLine
  8
piccolo
 62
150
370
-1
  6
ByLayer
 10
0.0977847480814569
 20
4.7921568671401236
 30
0.0
 11
0.0928552700403135
 21
4.802619432778469
 31
0.0
  0
LINE
  5
F7
100
AcDbEntity
100
AcDbLine
  8
piccolo
 62
150
370
-1
  6
ByLayer
 10
0.1173014570606777
 20
4.7634854132273512
 30
0.0
 11
0.1099575407953008
 21
4.7725395565682254
 31
0.0
  0
LINE
  5
F8
100
AcDbEntity
100
AcDbLine
  8
piccolo
 62
150
370
-1
  6
ByLayer
 10
0.1035190388640115
 20
4.7820967078724843
 30
0.0
 11
0.0977847480814569
 21
4.7921568671401236
 31
0.0
  0
LINE
  5
F9
100
AcDbEntity
100
AcDbLine
  8
piccolo
 62
150
370
-1
  6
ByLayer
 10
4.2009213069809439
 20
2.384660152801291
 30
0.0
 11
3.7152168175393046
 21
2.6389809790872198
 31
0.0
  0
LINE
  5
FA
100
AcDbEntity
100
AcDbLine
  8
piccolo
 62
150
370
-1
  6
ByLayer
 10
3.7152168175393046
 20
2.6389809790872198
 30
0.0
 11
3.6035490496685045
 21
2.7001467474344687
 31
0.0
  0
LINE
  5
FB
100
AcDbEntity
100
AcDbLine
  8
piccolo
 62
150
370
-1
  6
ByLayer
 10
3.6035490496685045
 20
2.7001467474344687
 30
0.0
 11
3.4774952540449808
 21
2.7692600416031525
 31
0.0
  0
LINE
  5
FC
100
AcDbEntity
100
AcDbLine
  8
piccolo
 62
150
370
-1
  6
ByLayer
 10
3.4774952540449808
 20
2.7692600416031525
 30
0.0
 11
3.3565721396479526
 21
2.8355564911768973
 31
0.0
  0
LINE
  5
FD
100
AcDbEntity
100
AcDbLine
  8
piccolo
 62
150
370
-1
  6
ByLayer
 10
3.3565721396479526
 20
2.8355564911768973
 30
0.0
 11
3.2622078457174934
 21
2.8873663114052417
 31
0.0
  0
LINE
  5
FE
100
AcDbEntity
100
AcDbLine
  8
piccolo
 62
150
370
-1
  6
ByLayer
 10
3.2622078457174934
 20
2.8873663114052417
 30
0.0
 11
3.1654291135628001
 21
2.9403833507457025
 31
0.0
  0
LINE
  5
FF
100
AcDbEntity
100
AcDbLine
  8
piccolo
 62
150
370
-1
  6
ByLayer
 10
3.1654291135628001
 20
2.9403833507457025
 30
0.0
 11
3.0361560669736312
 21
3.0109050672118562
 31
0.0
  0
LINE
  5
100
100
AcDbEntity
100
AcDbLine
  8
piccolo
 62
150
370
-1
  6
ByLayer
 10
3.0361560669736312
 20
3.0109050672118562
 30
0.0
 11
2.8984324865996451
 21
3.0858532537557708
 31
0.0
  0
LINE
  5
101
100
AcDbEntity
100
AcDbLine
  8
piccolo
 62
150
370
-1
  6
ByLayer
 10
2.8984324865996451
 20
3.0858532537557708
 30
0.0
 11
2.7728816989395026
 21
3.1539605319976909
 31
0.0
  0
LINE
  5
102
100
AcDbEntity
100
AcDbLine
  8
piccolo
 62
150
370
-1
  6
ByLayer
 10
2.7728816989395026
 20
3.1539605319976909
 30
0.0
 11
2.0538821160813003
 21
3.5555620899618638
 31
0.0
  0
LINE
  5
103
100
AcDbEntity
100
AcDbLine
  8
piccolo
 62
150
370
-1
  6
ByLayer
 10
6.7522782988470231
 20
1.2482645619287214
 30
0.0
 11
6.6212950251823548
 21
1.2891088085553384
 31
0.0
  0
LINE
  5
104
100
AcDbEntity
100
AcDbLine
  8
piccolo
 62
150
370
-1
  6
ByLayer
 10
6.6212950251823548
 20
1.2891088085553384
 30
0.0
 11
6.5424233765240611
 21
1.3104363462027344
 31
0.0
  0
LINE
  5
105
100
AcDbEntity
100
AcDbLine
  8
piccolo
 62
150
370
-1
  6
ByLayer
 10
6.5424233765240611
 20
1.3104363462027344
 30
0.0
 11
6.475221512616228
 21
1.3275386169577217
 31
0.0
  0
LINE
  5
106
100
AcDbEntity
100
AcDbLine
  8
piccolo
 62
150
370
-1
  6
ByLayer
 10
6.475221512616228
 20
1.3275386169577217
 30
0.0
 11
6.3921245970655258
 21
1.3508781864586454
 31
0.0
  0
LINE
  5
107
100
AcDbEntity
100
AcDbLine
  8
piccolo
 62
150
370
-1
  6
ByLayer
 10
6.3921245970655258
 20
1.3508781864586454
 30
0.0
 11
6.3073174544393229
 21
1.3762297878130973
 31
0.0
  0
LINE
  5
108
100
AcDbEntity
100
AcDbLine
  8
piccolo
 62
150
370
-1
  6
ByLayer
 10
6.3073174544393229
 20
1.3762297878130973
 30
0.0
 11
6.2343812997489367
 21
1.3997705604993738
 31
0.0
  0
LINE
  5
109
100
AcDbEntity
100
AcDbLine
  8
piccolo
 62
150
370
-1
  6
ByLayer
 10
6.2343812997489367
 20
1.3997705604993738
 30
0.0
 11
6.1268381971778698
 21
1.4398099943845797
 31
0.0
  0
LINE
  5
10A
100
AcDbEntity
100
AcDbLine
  8
piccolo
 62
150
370
-1
  6
ByLayer
 10
6.1268381971778698
 20
1.4398099943845797
 30
0.0
 11
6.022111939201741
 21
1.4866903365717801
 31
0.0
  0
LINE
  5
10B
100
AcDbEntity
100
AcDbLine
  8
piccolo
 62
150
370
-1
  6
ByLayer
 10
6.022111939201741
 20
1.4866903365717801
 30
0.0
 11
5.0879255496087277
 21
1.9443269816567057
 31
0.0
  0
LINE
  5
10C
100
AcDbEntity
100
AcDbLine
  8
piccolo
 62
150
370
-1
  6
ByLayer
 10
5.0879255496087277
 20
1.9443269816567057
 30
0.0
 11
4.2009213069809439
 21
2.384660152801291
 31
0.0
  0
LINE
  5
10D
100
AcDbEntity
100
AcDbLine
  8
piccolo
 62
150
370
-1
  6
ByLayer
 10
9.0552499583950787
 20
0.7944507773654991
 30
0.0
 11
8.771553467047644
 21
0.8166837293469826
 31
0.0
  0
LINE
  5
10E
100
AcDbEntity
100
AcDbLine
  8
piccolo
 62
150
370
-1
  6
ByLayer
 10
8.771553467047644
 20
0.8166837293469826
 30
0.0
 11
8.6466062889435609
 21
0.8274480997633571
 31
0.0
  0
LINE
  5
10F
100
AcDbEntity
100
AcDbLine
  8
piccolo
 62
150
370
-1
  6
ByLayer
 10
8.6466062889435609
 20
0.8274480997633571
 30
0.0
 11
8.5259849793245603
 21
0.8423371354794638
 31
0.0
  0
LINE
  5
110
100
AcDbEntity
100
AcDbLine
  8
piccolo
 62
150
370
-1
  6
ByLayer
 10
8.5259849793245603
 20
0.8423371354794638
 30
0.0
 11
8.4234719563873135
 21
0.8589363982710689
 31
0.0
  0
LINE
  5
111
100
AcDbEntity
100
AcDbLine
  8
piccolo
 62
150
370
-1
  6
ByLayer
 10
8.4234719563873135
 20
0.8589363982710689
 30
0.0
 11
8.4047600601495027
 21
0.8629604619781249
 31
0.0
  0
LINE
  5
112
100
AcDbEntity
100
AcDbLine
  8
piccolo
 62
150
370
-1
  6
ByLayer
 10
8.3862493670970473
 20
0.8681917447972975
 30
0.0
 11
8.3681410804152954
 21
0.8745296451359104
 31
0.0
  0
LINE
  5
113
100
AcDbEntity
100
AcDbLine
  8
piccolo
 62
150
370
-1
  6
ByLayer
 10
8.3482219650653686
 20
0.8816723582159345
 30
0.0
 11
8.3280010449374124
 21
0.8880102585545475
 31
0.0
  0
LINE
  5
114
100
AcDbEntity
100
AcDbLine
  8
piccolo
 62
150
370
-1
  6
ByLayer
 10
8.3280010449374124
 20
0.8880102585545475
 30
0.0
 11
8.28625138397671
 21
0.8980704178221871
 31
0.0
  0
LINE
  5
115
100
AcDbEntity
100
AcDbLine
  8
piccolo
 62
150
370
-1
  6
ByLayer
 10
8.28625138397671
 20
0.8980704178221871
 30
0.0
 11
8.2675394877388992
 21
0.9012896687878318
 31
0.0
  0
LINE
  5
116
100
AcDbEntity
100
AcDbLine
  8
piccolo
 62
150
370
-1
  6
ByLayer
 10
8.2295120857072224
 20
0.9039053101974179
 30
0.0
 11
8.2231741853686078
 21
0.9029998958633304
 31
0.0
  0
LINE
  5
117
100
AcDbEntity
100
AcDbLine
  8
piccolo
 62
150
370
-1
  6
ByLayer
 10
8.2002370222383902
 20
0.9012896687878318
 30
0.0
 11
8.1861527992636951
 21
0.9018932783438901
 31
0.0
  0
LINE
  5
118
100
AcDbEntity
100
AcDbLine
  8
piccolo
 62
150
370
-1
  6
ByLayer
 10
8.1312243296623823
 20
0.9111486248701185
 30
0.0
 11
8.1191521385412155
 21
0.9151726885771744
 31
0.0
  0
LINE
  5
119
100
AcDbEntity
100
AcDbLine
  8
piccolo
 62
150
370
-1
  6
ByLayer
 10
8.1191521385412155
 20
0.9151726885771744
 30
0.0
 11
8.1072811506053988
 21
0.9191967522842303
 31
0.0
  0
LINE
  5
11A
100
AcDbEntity
100
AcDbLine
  8
piccolo
 62
150
370
-1
  6
ByLayer
 10
8.0830361667703912
 20
0.9251322462521375
 30
0.0
 11
7.985955629837667
 21
0.9419327122290958
 31
0.0
  0
LINE
  5
11B
100
AcDbEntity
100
AcDbLine
  8
piccolo
 62
150
370
-1
  6
ByLayer
 10
7.985955629837667
 20
0.9419327122290958
 30
0.0
 11
7.8695595871110768
 21
0.9599403973181707
 31
0.0
  0
LINE
  5
11C
100
AcDbEntity
100
AcDbLine
  8
piccolo
 62
150
370
-1
  6
ByLayer
 10
7.8695595871110768
 20
0.9599403973181707
 30
0.0
 11
7.7419967675974073
 21
0.9774450744438635
 31
0.0
  0
LINE
  5
11D
100
AcDbEntity
100
AcDbLine
  8
piccolo
 62
150
370
-1
  6
ByLayer
 10
7.7419967675974073
 20
0.9774450744438635
 30
0.0
 11
7.5921003945095773
 21
1.0024948710202861
 31
0.0
  0
LINE
  5
11E
100
AcDbEntity
100
AcDbLine
  8
piccolo
 62
150
370
-1
  6
ByLayer
 10
7.5921003945095773
 20
1.0024948710202861
 30
0.0
 11
7.4064904560216256
 21
1.0446469383516961
 31
0.0
  0
LINE
  5
11F
100
AcDbEntity
100
AcDbLine
  8
piccolo
 62
150
370
-1
  6
ByLayer
 10
7.4064904560216256
 20
1.0446469383516961
 30
0.0
 11
7.2169570554192966
 21
1.0953501410605997
 31
0.0
  0
LINE
  5
120
100
AcDbEntity
100
AcDbLine
  8
piccolo
 62
150
370
-1
  6
ByLayer
 10
7.2169570554192966
 20
1.0953501410605997
 30
0.0
 11
7.0532782641348
 21
1.147461766066973
 31
0.0
  0
LINE
  5
121
100
AcDbEntity
100
AcDbLine
  8
piccolo
 62
150
370
-1
  6
ByLayer
 10
7.0532782641348
 20
1.147461766066973
 30
0.0
 11
6.9025770783055584
 21
1.1991709847026402
 31
0.0
  0
LINE
  5
122
100
AcDbEntity
100
AcDbLine
  8
piccolo
 62
150
370
-1
  6
ByLayer
 10
6.9025770783055584
 20
1.1991709847026402
 30
0.0
 11
6.7522782988470231
 21
1.2482645619287214
 31
0.0
  0
LINE
  5
123
100
AcDbEntity
100
AcDbLine
  8
piccolo
 62
150
370
-1
  6
ByLayer
 10
8.4047600601495027
 20
0.8629604619781249
 30
0.0
 11
8.3862493670970473
 21
0.8681917447972975
 31
0.0
  0
LINE
  5
124
100
AcDbEntity
100
AcDbLine
  8
piccolo
 62
150
370
-1
  6
ByLayer
 10
8.3681410804152954
 20
0.8745296451359104
 30
0.0
 11
8.3482219650653686
 21
0.8816723582159345
 31
0.0
  0
LINE
  5
125
100
AcDbEntity
100
AcDbLine
  8
piccolo
 62
150
370
-1
  6
ByLayer
 10
8.2675394877388992
 20
0.9012896687878318
 30
0.0
 11
8.2487269899084144
 21
0.9038047086047417
 31
0.0
  0
LINE
  5
126
100
AcDbEntity
100
AcDbLine
  8
piccolo
 62
150
370
-1
  6
ByLayer
 10
8.2359505876385111
 20
0.9043077165681237
 30
0.0
 11
8.2295120857072224
 21
0.9039053101974179
 31
0.0
  0
LINE
  5
127
100
AcDbEntity
100
AcDbLine
  8
piccolo
 62
150
370
-1
  6
ByLayer
 10
8.2231741853686078
 20
0.9029998958633304
 30
0.0
 11
8.215629065917879
 21
0.9019938799365664
 31
0.0
  0
LINE
  5
128
100
AcDbEntity
100
AcDbLine
  8
piccolo
 62
150
370
-1
  6
ByLayer
 10
8.1861527992636951
 20
0.9018932783438901
 30
0.0
 11
8.1721691778816759
 21
0.9032010990486834
 31
0.0
  0
LINE
  5
129
100
AcDbEntity
100
AcDbLine
  8
piccolo
 62
150
370
-1
  6
ByLayer
 10
8.1577831501289531
 20
0.9052131309022112
 30
0.0
 11
8.1435983255615803
 21
0.9079293739044739
 31
0.0
  0
LINE
  5
12A
100
AcDbEntity
100
AcDbLine
  8
piccolo
 62
150
370
-1
  6
ByLayer
 10
8.1072811506053988
 20
0.9191967522842303
 30
0.0
 11
8.095208959484232
 21
0.9225166048425513
 31
0.0
  0
LINE
  5
12B
100
AcDbEntity
100
AcDbLine
  8
piccolo
 62
150
370
-1
  6
ByLayer
 10
8.2422884879771239
 20
0.9042071149754473
 30
0.0
 11
8.2359505876385111
 21
0.9043077165681237
 31
0.0
  0
LINE
  5
12C
100
AcDbEntity
100
AcDbLine
  8
piccolo
 62
150
370
-1
  6
ByLayer
 10
8.2078827432817967
 20
0.9013902703805081
 30
0.0
 11
8.2002370222383902
 21
0.9012896687878318
 31
0.0
  0
LINE
  5
12D
100
AcDbEntity
100
AcDbLine
  8
piccolo
 62
150
370
-1
  6
ByLayer
 10
8.1721691778816759
 20
0.9032010990486834
 30
0.0
 11
8.1577831501289531
 21
0.9052131309022112
 31
0.0
  0
LINE
  5
12E
100
AcDbEntity
100
AcDbLine
  8
piccolo
 62
150
370
-1
  6
ByLayer
 10
8.1435983255615803
 20
0.9079293739044739
 30
0.0
 11
8.1312243296623823
 21
0.9111486248701185
 31
0.0
  0
LINE
  5
12F
100
AcDbEntity
100
AcDbLine
  8
piccolo
 62
150
370
-1
  6
ByLayer
 10
8.095208959484232
 20
0.9225166048425513
 30
0.0
 11
8.0830361667703912
 21
0.9251322462521375
 31
0.0
  0
LINE
  5
130
100
AcDbEntity
100
AcDbLine
  8
piccolo
 62
150
370
-1
  6
ByLayer
 10
8.2487269899084144
 20
0.9038047086047417
 30
0.0
 11
8.2422884879771239
 21
0.9042071149754473
 31
0.0
  0
LINE
  5
131
100
AcDbEntity
100
AcDbLine
  8
piccolo
 62
150
370
-1
  6
ByLayer
 10
8.215629065917879
 20
0.9019938799365664
 30
0.0
 11
8.2078827432817967
 21
0.9013902703805081
 31
0.0
  0
LINE
  5
132
100
AcDbEntity
100
AcDbLine
  8
piccolo
 62
150
370
-1
  6
ByLayer
 10
12.5242946786552451
 20
0.457536043492249
 30
0.0
 11
12.4049811897410382
 21
0.468199812315947
 31
0.0
  0
LINE
  5
133
100
AcDbEntity
100
AcDbLine
  8
piccolo
 62
150
370
-1
  6
ByLayer
 10
12.4049811897410382
 20
0.468199812315947
 30
0.0
 11
12.2651449759208475
 21
0.4786623779542922
 31
0.0
  0
LINE
  5
134
100
AcDbEntity
100
AcDbLine
  8
piccolo
 62
150
370
-1
  6
ByLayer
 10
12.2651449759208475
 20
0.4786623779542922
 30
0.0
 11
12.10428302923129
 21
0.4879177244805206
 31
0.0
  0
LINE
  5
135
100
AcDbEntity
100
AcDbLine
  8
piccolo
 62
150
370
-1
  6
ByLayer
 10
12.10428302923129
 20
0.4879177244805206
 30
0.0
 11
11.9228983576357468
 21
0.4984808917115421
 31
0.0
  0
LINE
  5
136
100
AcDbEntity
100
AcDbLine
  8
piccolo
 62
150
370
-1
  6
ByLayer
 10
11.9228983576357468
 20
0.4984808917115421
 30
0.0
 11
11.7207897579488698
 21
0.5128669194642668
 31
0.0
  0
LINE
  5
137
100
AcDbEntity
100
AcDbLine
  8
piccolo
 62
150
370
-1
  6
ByLayer
 10
11.7207897579488698
 20
0.5128669194642668
 30
0.0
 11
11.5286407159369517
 21
0.5284601663291082
 31
0.0
  0
LINE
  5
138
100
AcDbEntity
100
AcDbLine
  8
piccolo
 62
150
370
-1
  6
ByLayer
 10
11.5286407159369517
 20
0.5284601663291082
 30
0.0
 11
11.3813599842587081
 21
0.5430473972671855
 31
0.0
  0
LINE
  5
139
100
AcDbEntity
100
AcDbLine
  8
piccolo
 62
150
370
-1
  6
ByLayer
 10
11.3813599842587081
 20
0.5430473972671855
 30
0.0
 11
11.232670830282995
 21
0.5588418473173797
 31
0.0
  0
LINE
  5
13A
100
AcDbEntity
100
AcDbLine
  8
piccolo
 62
150
370
-1
  6
ByLayer
 10
11.232670830282995
 20
0.5588418473173797
 30
0.0
 11
11.0359947166006425
 21
0.5789621658526589
 31
0.0
  0
LINE
  5
13B
100
AcDbEntity
100
AcDbLine
  8
piccolo
 62
150
370
-1
  6
ByLayer
 10
11.0359947166006425
 20
0.5789621658526589
 30
0.0
 11
10.8273470133897973
 21
0.5996860939439965
 31
0.0
  0
LINE
  5
13C
100
AcDbEntity
100
AcDbLine
  8
piccolo
 62
150
370
-1
  6
ByLayer
 10
10.8273470133897973
 20
0.5996860939439965
 30
0.0
 11
10.6382160191581701
 21
0.6177943806257478
 31
0.0
  0
LINE
  5
13D
100
AcDbEntity
100
AcDbLine
  8
piccolo
 62
150
370
-1
  6
ByLayer
 10
10.6382160191581701
 20
0.6177943806257478
 30
0.0
 11
10.4531090886336013
 21
0.6361038704928519
 31
0.0
  0
LINE
  5
13E
100
AcDbEntity
100
AcDbLine
  8
piccolo
 62
150
370
-1
  6
ByLayer
 10
10.4531090886336013
 20
0.6361038704928519
 30
0.0
 11
10.2565335765439247
 21
0.6571296033622187
 31
0.0
  0
LINE
  5
13F
100
AcDbEntity
100
AcDbLine
  8
piccolo
 62
150
370
-1
  6
ByLayer
 10
10.2565335765439247
 20
0.6571296033622187
 30
0.0
 11
10.0767585304312046
 21
0.6778535314535562
 31
0.0
  0
LINE
  5
140
100
AcDbEntity
100
AcDbLine
  8
piccolo
 62
150
370
-1
  6
ByLayer
 10
10.0767585304312046
 20
0.6778535314535562
 30
0.0
 11
9.9495981172882413
 21
0.6943521926524853
 31
0.0
  0
LINE
  5
141
100
AcDbEntity
100
AcDbLine
  8
piccolo
 62
150
370
-1
  6
ByLayer
 10
9.9495981172882413
 20
0.6943521926524853
 30
0.0
 11
9.6699256896478598
 21
0.7306693676086641
 31
0.0
  0
LINE
  5
142
100
AcDbEntity
100
AcDbLine
  8
piccolo
 62
150
370
-1
  6
ByLayer
 10
9.6699256896478598
 20
0.7306693676086641
 30
0.0
 11
9.3631914335775281
 21
0.7648739091186388
 31
0.0
  0
LINE
  5
143
100
AcDbEntity
100
AcDbLine
  8
piccolo
 62
150
370
-1
  6
ByLayer
 10
9.3631914335775281
 20
0.7648739091186388
 30
0.0
 11
9.0552499583950787
 21
0.7944507773654991
 31
0.0
  0
LINE
  5
144
100
AcDbEntity
100
AcDbLine
  8
piccolo
 62
150
370
-1
  6
ByLayer
 10
13.9185321515574163
 20
0.4167923984583087
 30
0.0
 11
13.449326323314704
 21
0.3987847133692337
 31
0.0
  0
LINE
  5
145
100
AcDbEntity
100
AcDbLine
  8
piccolo
 62
150
370
-1
  6
ByLayer
 10
13.449326323314704
 20
0.3987847133692337
 30
0.0
 11
13.0204617337352282
 21
0.3994889245179685
 31
0.0
  0
LINE
  5
146
100
AcDbEntity
100
AcDbLine
  8
piccolo
 62
150
370
-1
  6
ByLayer
 10
13.0204617337352282
 20
0.3994889245179685
 30
0.0
 11
12.6612134462878192
 21
0.4139755538633695
 31
0.0
  0
LINE
  5
147
100
AcDbEntity
100
AcDbLine
  8
piccolo
 62
150
370
-1
  6
ByLayer
 10
12.6612134462878192
 20
0.4139755538633695
 30
0.0
 11
12.6408919245671871
 21
0.4159875857168975
 31
0.0
  0
LINE
  5
148
100
AcDbEntity
100
AcDbLine
  8
piccolo
 62
150
370
-1
  6
ByLayer
 10
12.6408919245671871
 20
0.4159875857168975
 30
0.0
 11
12.6207716060319068
 21
0.4196092430532478
 31
0.0
  0
LINE
  5
149
100
AcDbEntity
100
AcDbLine
  8
piccolo
 62
150
370
-1
  6
ByLayer
 10
12.6207716060319068
 20
0.4196092430532478
 30
0.0
 11
12.6010536938673336
 21
0.4249411274650967
 31
0.0
  0
LINE
  5
14A
100
AcDbEntity
100
AcDbLine
  8
piccolo
 62
150
370
-1
  6
ByLayer
 10
12.6010536938673336
 20
0.4249411274650967
 30
0.0
 11
12.5818387896661434
 21
0.431882637359768
 31
0.0
  0
LINE
  5
14B
100
AcDbEntity
100
AcDbLine
  8
piccolo
 62
150
370
-1
  6
ByLayer
 10
12.5633280966136862
 20
0.4404337727372617
 30
0.0
 11
12.545521614709962
 21
0.4503933304122248
 31
0.0
  0
LINE
  5
14C
100
AcDbEntity
100
AcDbLine
  8
piccolo
 62
150
370
-1
  6
ByLayer
 10
12.5388819095933215
 20
0.4538137845632224
 30
0.0
 11
12.5353608538496477
 21
0.4552222068606919
 31
0.0
  0
LINE
  5
14D
100
AcDbEntity
100
AcDbLine
  8
piccolo
 62
150
370
-1
  6
ByLayer
 10
12.5317391965132963
 20
0.4562282227874559
 30
0.0
 11
12.5280169375842707
 21
0.457033035528867
 31
0.0
  0
LINE
  5
14E
100
AcDbEntity
100
AcDbLine
  8
piccolo
 62
150
370
-1
  6
ByLayer
 10
12.5818387896661434
 20
0.431882637359768
 30
0.0
 11
12.5633280966136862
 21
0.4404337727372617
 31
0.0
  0
LINE
  5
14F
100
AcDbEntity
100
AcDbLine
  8
piccolo
 62
150
370
-1
  6
ByLayer
 10
12.545521614709962
 20
0.4503933304122248
 30
0.0
 11
12.5422017621516417
 21
0.4523047606730764
 31
0.0
  0
LINE
  5
150
100
AcDbEntity
100
AcDbLine
  8
piccolo
 62
150
370
-1
  6
ByLayer
 10
12.5353608538496477
 20
0.4552222068606919
 30
0.0
 11
12.5317391965132963
 21
0.4562282227874559
 31
0.0
  0
LINE
  5
151
100
AcDbEntity
100
AcDbLine
  8
piccolo
 62
150
370
-1
  6
ByLayer
 10
12.5422017621516417
 20
0.4523047606730764
 30
0.0
 11
12.5388819095933215
 21
0.4538137845632224
 31
0.0
  0
LINE
  5
152
100
AcDbEntity
100
AcDbLine
  8
piccolo
 62
150
370
-1
  6
ByLayer
 10
12.5280169375842707
 20
0.457033035528867
 30
0.0
 11
12.5242946786552451
 21
0.457536043492249
 31
0.0
  0
LINE
  5
153
100
AcDbEntity
100
AcDbLine
  8
piccolo
 62
150
370
-1
  6
ByLayer
 10
14.7944702189907957
 20
0.3275587857543454
 30
0.0
 11
14.7755571195676332
 21
0.338121952985367
 31
0.0
  0
LINE
  5
154
100
AcDbEntity
100
AcDbLine
  8
piccolo
 62
150
370
-1
  6
ByLayer
 10
14.7755571195676332
 20
0.338121952985367
 30
0.0
 11
14.75583920740306
 21
0.347276697918919
 31
0.0
  0
LINE
  5
155
100
AcDbEntity
100
AcDbLine
  8
piccolo
 62
150
370
-1
  6
ByLayer
 10
14.75583920740306
 20
0.347276697918919
 30
0.0
 11
14.735417084089752
 21
0.3546206141842959
 31
0.0
  0
LINE
  5
156
100
AcDbEntity
100
AcDbLine
  8
piccolo
 62
150
370
-1
  6
ByLayer
 10
14.735417084089752
 20
0.3546206141842959
 30
0.0
 11
14.7144919528130611
 21
0.3604555065595269
 31
0.0
  0
LINE
  5
157
100
AcDbEntity
100
AcDbLine
  8
piccolo
 62
150
370
-1
  6
ByLayer
 10
14.7144919528130611
 20
0.3604555065595269
 30
0.0
 11
14.6027235833495848
 21
0.3832920680970687
 31
0.0
  0
LINE
  5
158
100
AcDbEntity
100
AcDbLine
  8
piccolo
 62
150
370
-1
  6
ByLayer
 10
14.6027235833495848
 20
0.3832920680970687
 30
0.0
 11
14.4899491979593442
 21
0.4004949404447325
 31
0.0
  0
LINE
  5
159
100
AcDbEntity
100
AcDbLine
  8
piccolo
 62
150
370
-1
  6
ByLayer
 10
14.4899491979593442
 20
0.4004949404447325
 30
0.0
 11
14.3526280239560649
 21
0.4143779602340751
 31
0.0
  0
LINE
  5
15A
100
AcDbEntity
100
AcDbLine
  8
piccolo
 62
150
370
-1
  6
ByLayer
 10
14.3526280239560649
 20
0.4143779602340751
 30
0.0
 11
14.2149044435820766
 21
0.42121886853607
 31
0.0
  0
LINE
  5
15B
100
AcDbEntity
100
AcDbLine
  8
piccolo
 62
150
370
-1
  6
ByLayer
 10
14.2149044435820766
 20
0.42121886853607
 30
0.0
 11
13.9185321515574163
 21
0.4167923984583087
 31
0.0
  0
LINE
  5
15C
100
AcDbEntity
100
AcDbLine
  8
piccolo
 62
150
370
-1
  6
ByLayer
 10
15.962756514741784
 20
0.1986881455358821
 30
0.0
 11
15.7935446358600835
 21
0.2129735716959303
 31
0.0
  0
LINE
  5
15D
100
AcDbEntity
100
AcDbLine
  8
piccolo
 62
150
370
-1
  6
ByLayer
 10
15.7935446358600835
 20
0.2129735716959303
 30
0.0
 11
15.5954600998802615
 21
0.2254481691878034
 31
0.0
  0
LINE
  5
15E
100
AcDbEntity
100
AcDbLine
  8
piccolo
 62
150
370
-1
  6
ByLayer
 10
15.5954600998802615
 20
0.2254481691878034
 30
0.0
 11
15.391138265154499
 21
0.2340999061579735
 31
0.0
  0
LINE
  5
15F
100
AcDbEntity
100
AcDbLine
  8
piccolo
 62
150
370
-1
  6
ByLayer
 10
15.391138265154499
 20
0.2340999061579735
 30
0.0
 11
15.1513040682139728
 21
0.2444618702036423
 31
0.0
  0
LINE
  5
160
100
AcDbEntity
100
AcDbLine
  8
piccolo
 62
150
370
-1
  6
ByLayer
 10
15.1513040682139728
 20
0.2444618702036423
 30
0.0
 11
14.9902409183390617
 21
0.2584454915856614
 31
0.0
  0
LINE
  5
161
100
AcDbEntity
100
AcDbLine
  8
piccolo
 62
150
370
-1
  6
ByLayer
 10
14.9902409183390617
 20
0.2584454915856614
 30
0.0
 11
14.880484580729112
 21
0.2764531766747362
 31
0.0
  0
LINE
  5
162
100
AcDbEntity
100
AcDbLine
  8
piccolo
 62
150
370
-1
  6
ByLayer
 10
14.880484580729112
 20
0.2764531766747362
 30
0.0
 11
14.8712292342028842
 21
0.2787670133062933
 31
0.0
  0
LINE
  5
163
100
AcDbEntity
100
AcDbLine
  8
piccolo
 62
150
370
-1
  6
ByLayer
 10
14.8620744892693324
 20
0.2818856626792616
 30
0.0
 11
14.8533221507064876
 21
0.2858091247936411
 31
0.0
  0
LINE
  5
164
100
AcDbEntity
100
AcDbLine
  8
piccolo
 62
150
370
-1
  6
ByLayer
 10
14.8448716169216688
 20
0.2904367980567553
 30
0.0
 11
14.8369240911002347
 21
0.2957686824686042
 31
0.0
  0
LINE
  5
165
100
AcDbEntity
100
AcDbLine
  8
piccolo
 62
150
370
-1
  6
ByLayer
 10
14.8293789716495041
 20
0.301804778029188
 30
0.0
 11
14.8124779040798717
 21
0.3153859930405015
 31
0.0
  0
LINE
  5
166
100
AcDbEntity
100
AcDbLine
  8
piccolo
 62
150
370
-1
  6
ByLayer
 10
14.8124779040798717
 20
0.3153859930405015
 30
0.0
 11
14.7944702189907957
 21
0.3275587857543454
 31
0.0
  0
LINE
  5
167
100
AcDbEntity
100
AcDbLine
  8
piccolo
 62
150
370
-1
  6
ByLayer
 10
14.8712292342028842
 20
0.2787670133062933
 30
0.0
 11
14.8620744892693324
 21
0.2818856626792616
 31
0.0
  0
LINE
  5
168
100
AcDbEntity
100
AcDbLine
  8
piccolo
 62
150
370
-1
  6
ByLayer
 10
14.8533221507064876
 20
0.2858091247936411
 30
0.0
 11
14.8448716169216688
 21
0.2904367980567553
 31
0.0
  0
LINE
  5
169
100
AcDbEntity
100
AcDbLine
  8
piccolo
 62
150
370
-1
  6
ByLayer
 10
14.8369240911002347
 20
0.2957686824686042
 30
0.0
 11
14.8293789716495041
 21
0.301804778029188
 31
0.0
  0
LINE
  5
16A
100
AcDbEntity
100
AcDbLine
  8
piccolo
 62
150
370
-1
  6
ByLayer
 10
17.2169565706384127
 20
0.1616667594309684
 30
0.0
 11
16.8828586813601014
 21
0.1590511180213821
 31
0.0
  0
LINE
  5
16B
100
AcDbEntity
100
AcDbLine
  8
piccolo
 62
150
370
-1
  6
ByLayer
 10
16.8828586813601014
 20
0.1590511180213821
 30
0.0
 11
16.6171698751017409
 21
0.1621697673943504
 31
0.0
  0
LINE
  5
16C
100
AcDbEntity
100
AcDbLine
  8
piccolo
 62
150
370
-1
  6
ByLayer
 10
16.6171698751017409
 20
0.1621697673943504
 30
0.0
 11
16.3968523871404308
 21
0.1685076677329633
 31
0.0
  0
LINE
  5
16D
100
AcDbEntity
100
AcDbLine
  8
piccolo
 62
150
370
-1
  6
ByLayer
 10
16.3871946342434995
 20
0.1728335362180483
 30
0.0
 11
16.3863898215020853
 21
0.1737389505521359
 31
0.0
  0
LINE
  5
16E
100
AcDbEntity
100
AcDbLine
  8
piccolo
 62
150
370
-1
  6
ByLayer
 10
16.3832711721291169
 20
0.1825918907076587
 30
0.0
 11
16.3832711721291169
 21
0.1835979066344227
 31
0.0
  0
LINE
  5
16F
100
AcDbEntity
100
AcDbLine
  8
piccolo
 62
150
370
-1
  6
ByLayer
 10
16.3785428972733271
 20
0.1922496436045928
 30
0.0
 11
16.3777380845319165
 21
0.1927526515679747
 31
0.0
  0
LINE
  5
170
100
AcDbEntity
100
AcDbLine
  8
piccolo
 62
150
370
-1
  6
ByLayer
 10
16.3768326701978282
 20
0.1932556595313567
 30
0.0
 11
16.3742170287882409
 21
0.1945634802361499
 31
0.0
  0
LINE
  5
171
100
AcDbEntity
100
AcDbLine
  8
piccolo
 62
150
370
-1
  6
ByLayer
 10
16.3629496504084884
 20
0.1974809264237654
 30
0.0
 11
16.3600322042208717
 21
0.1976821296091182
 31
0.0
  0
LINE
  5
172
100
AcDbEntity
100
AcDbLine
  8
piccolo
 62
150
370
-1
  6
ByLayer
 10
16.3533924991042277
 20
0.1974809264237654
 30
0.0
 11
16.3466521923949095
 21
0.1969779184603834
 31
0.0
  0
LINE
  5
173
100
AcDbEntity
100
AcDbLine
  8
piccolo
 62
150
370
-1
  6
ByLayer
 10
16.3466521923949095
 20
0.1969779184603834
 30
0.0
 11
16.340012487278269
 21
0.1959719025336194
 31
0.0
  0
LINE
  5
174
100
AcDbEntity
100
AcDbLine
  8
piccolo
 62
150
370
-1
  6
ByLayer
 10
16.3334733837543027
 20
0.1945634802361499
 30
0.0
 11
16.3164717145919944
 21
0.1897346037876828
 31
0.0
  0
LINE
  5
175
100
AcDbEntity
100
AcDbLine
  8
piccolo
 62
150
370
-1
  6
ByLayer
 10
16.3164717145919944
 20
0.1897346037876828
 30
0.0
 11
16.299771850207712
 21
0.1838997114124519
 31
0.0
  0
LINE
  5
176
100
AcDbEntity
100
AcDbLine
  8
piccolo
 62
150
370
-1
  6
ByLayer
 10
16.299771850207712
 20
0.1838997114124519
 30
0.0
 11
16.2853858224549839
 21
0.1791714365566613
 31
0.0
  0
LINE
  5
177
100
AcDbEntity
100
AcDbLine
  8
piccolo
 62
150
370
-1
  6
ByLayer
 10
16.2853858224549839
 20
0.1791714365566613
 30
0.0
 11
16.2705973883315558
 21
0.1756503808129874
 31
0.0
  0
LINE
  5
178
100
AcDbEntity
100
AcDbLine
  8
piccolo
 62
150
370
-1
  6
ByLayer
 10
16.25570835261545
 20
0.1734371457741067
 30
0.0
 11
16.2250248668491466
 21
0.1711233091425496
 31
0.0
  0
LINE
  5
179
100
AcDbEntity
100
AcDbLine
  8
piccolo
 62
150
370
-1
  6
ByLayer
 10
16.2250248668491466
 20
0.1711233091425496
 30
0.0
 11
16.194240779490169
 21
0.1704190979938148
 31
0.0
  0
LINE
  5
17A
100
AcDbEntity
100
AcDbLine
  8
piccolo
 62
150
370
-1
  6
ByLayer
 10
16.194240779490169
 20
0.1704190979938148
 30
0.0
 11
16.1594326284241347
 21
0.1714251139205788
 31
0.0
  0
LINE
  5
17B
100
AcDbEntity
100
AcDbLine
  8
piccolo
 62
150
370
-1
  6
ByLayer
 10
16.1594326284241347
 20
0.1714251139205788
 30
0.0
 11
16.1247250789507817
 21
0.1742419585155179
 31
0.0
  0
LINE
  5
17C
100
AcDbEntity
100
AcDbLine
  8
piccolo
 62
150
370
-1
  6
ByLayer
 10
16.1247250789507817
 20
0.1742419585155179
 30
0.0
 11
16.0898163262920733
 21
0.1787690301859557
 31
0.0
  0
LINE
  5
17D
100
AcDbEntity
100
AcDbLine
  8
piccolo
 62
150
370
-1
  6
ByLayer
 10
16.0898163262920733
 20
0.1787690301859557
 30
0.0
 11
16.0551087768187131
 21
0.1850063289318923
 31
0.0
  0
LINE
  5
17E
100
AcDbEntity
100
AcDbLine
  8
piccolo
 62
150
370
-1
  6
ByLayer
 10
16.0551087768187131
 20
0.1850063289318923
 30
0.0
 11
16.0091338489656003
 21
0.1930544563460039
 31
0.0
  0
LINE
  5
17F
100
AcDbEntity
100
AcDbLine
  8
piccolo
 62
150
370
-1
  6
ByLayer
 10
16.0091338489656003
 20
0.1930544563460039
 30
0.0
 11
15.962756514741784
 21
0.1986881455358821
 31
0.0
  0
LINE
  5
180
100
AcDbEntity
100
AcDbLine
  8
piccolo
 62
150
370
-1
  6
ByLayer
 10
16.3933313313967588
 20
0.1691112772890217
 30
0.0
 11
16.3922247138773187
 21
0.1695136836597273
 31
0.0
  0
LINE
  5
181
100
AcDbEntity
100
AcDbLine
  8
piccolo
 62
150
370
-1
  6
ByLayer
 10
16.390011478838435
 20
0.1706203011791676
 30
0.0
 11
16.3890054629116726
 21
0.171223910735226
 31
0.0
  0
LINE
  5
182
100
AcDbEntity
100
AcDbLine
  8
piccolo
 62
150
370
-1
  6
ByLayer
 10
16.3850820007972935
 20
0.1756503808129874
 30
0.0
 11
16.3845789928339087
 21
0.1767569983324278
 31
0.0
  0
LINE
  5
183
100
AcDbEntity
100
AcDbLine
  8
piccolo
 62
150
370
-1
  6
ByLayer
 10
16.3833717737217945
 20
0.181384671595542
 30
0.0
 11
16.3832711721291169
 21
0.1825918907076587
 31
0.0
  0
LINE
  5
184
100
AcDbEntity
100
AcDbLine
  8
piccolo
 62
150
370
-1
  6
ByLayer
 10
16.3826675625730616
 20
0.1865153528220382
 30
0.0
 11
16.3822651562023545
 21
0.1875213687488022
 31
0.0
  0
LINE
  5
185
100
AcDbEntity
100
AcDbLine
  8
piccolo
 62
150
370
-1
  6
ByLayer
 10
16.3742170287882409
 20
0.1945634802361499
 30
0.0
 11
16.371500785785976
 21
0.1956700977555902
 31
0.0
  0
LINE
  5
186
100
AcDbEntity
100
AcDbLine
  8
piccolo
 62
150
370
-1
  6
ByLayer
 10
16.3600322042208717
 20
0.1976821296091182
 30
0.0
 11
16.3533924991042277
 21
0.1974809264237654
 31
0.0
  0
LINE
  5
187
100
AcDbEntity
100
AcDbLine
  8
piccolo
 62
150
370
-1
  6
ByLayer
 10
16.340012487278269
 20
0.1959719025336194
 30
0.0
 11
16.3334733837543027
 21
0.1945634802361499
 31
0.0
  0
LINE
  5
188
100
AcDbEntity
100
AcDbLine
  8
piccolo
 62
150
370
-1
  6
ByLayer
 10
16.2705973883315558
 20
0.1756503808129874
 30
0.0
 11
16.25570835261545
 21
0.1734371457741067
 31
0.0
  0
LINE
  5
189
100
AcDbEntity
100
AcDbLine
  8
piccolo
 62
150
370
-1
  6
ByLayer
 10
16.3944379489161953
 20
0.1688094725109925
 30
0.0
 11
16.3933313313967588
 21
0.1691112772890217
 31
0.0
  0
LINE
  5
18A
100
AcDbEntity
100
AcDbLine
  8
piccolo
 62
150
370
-1
  6
ByLayer
 10
16.3911180963578751
 20
0.1700166916231093
 30
0.0
 11
16.390011478838435
 21
0.1706203011791676
 31
0.0
  0
LINE
  5
18B
100
AcDbEntity
100
AcDbLine
  8
piccolo
 62
150
370
-1
  6
ByLayer
 10
16.3863898215020853
 20
0.1737389505521359
 30
0.0
 11
16.3856856103533524
 21
0.1746443648862235
 31
0.0
  0
LINE
  5
18C
100
AcDbEntity
100
AcDbLine
  8
piccolo
 62
150
370
-1
  6
ByLayer
 10
16.3806555307195296
 20
0.1900364085657121
 30
0.0
 11
16.3800519211634743
 21
0.1908412213071232
 31
0.0
  0
LINE
  5
18D
100
AcDbEntity
100
AcDbLine
  8
piccolo
 62
150
370
-1
  6
ByLayer
 10
16.3686839411910405
 20
0.1964749104970014
 30
0.0
 11
16.3658670965961015
 21
0.1970785200530598
 31
0.0
  0
LINE
  5
18E
100
AcDbEntity
100
AcDbLine
  8
piccolo
 62
150
370
-1
  6
ByLayer
 10
16.3956451680283131
 20
0.1686082693256397
 30
0.0
 11
16.3944379489161953
 21
0.1688094725109925
 31
0.0
  0
LINE
  5
18F
100
AcDbEntity
100
AcDbLine
  8
piccolo
 62
150
370
-1
  6
ByLayer
 10
16.3922247138773187
 20
0.1695136836597273
 30
0.0
 11
16.3911180963578751
 21
0.1700166916231093
 31
0.0
  0
LINE
  5
190
100
AcDbEntity
100
AcDbLine
  8
piccolo
 62
150
370
-1
  6
ByLayer
 10
16.3881000485775843
 20
0.1720287234766372
 30
0.0
 11
16.3871946342434995
 21
0.1728335362180483
 31
0.0
  0
LINE
  5
191
100
AcDbEntity
100
AcDbLine
  8
piccolo
 62
150
370
-1
  6
ByLayer
 10
16.3856856103533524
 20
0.1746443648862235
 30
0.0
 11
16.3850820007972935
 21
0.1756503808129874
 31
0.0
  0
LINE
  5
192
100
AcDbEntity
100
AcDbLine
  8
piccolo
 62
150
370
-1
  6
ByLayer
 10
16.3845789928339087
 20
0.1767569983324278
 30
0.0
 11
16.3840759848705275
 21
0.1778636158518681
 31
0.0
  0
LINE
  5
193
100
AcDbEntity
100
AcDbLine
  8
piccolo
 62
150
370
-1
  6
ByLayer
 10
16.3840759848705275
 20
0.1778636158518681
 30
0.0
 11
16.3837741800924945
 21
0.1790708349639849
 31
0.0
  0
LINE
  5
194
100
AcDbEntity
100
AcDbLine
  8
piccolo
 62
150
370
-1
  6
ByLayer
 10
16.3834723753144686
 20
0.1801774524834252
 30
0.0
 11
16.3833717737217945
 21
0.181384671595542
 31
0.0
  0
LINE
  5
195
100
AcDbEntity
100
AcDbLine
  8
piccolo
 62
150
370
-1
  6
ByLayer
 10
16.3832711721291169
 20
0.1835979066344227
 30
0.0
 11
16.3830699689437651
 21
0.1846039225611867
 31
0.0
  0
LINE
  5
196
100
AcDbEntity
100
AcDbLine
  8
piccolo
 62
150
370
-1
  6
ByLayer
 10
16.3817621482389733
 20
0.1884267830828897
 30
0.0
 11
16.3812591402755885
 21
0.1892315958243009
 31
0.0
  0
LINE
  5
197
100
AcDbEntity
100
AcDbLine
  8
piccolo
 62
150
370
-1
  6
ByLayer
 10
16.3793477100147413
 20
0.191545432455858
 30
0.0
 11
16.3785428972733271
 21
0.1922496436045928
 31
0.0
  0
LINE
  5
198
100
AcDbEntity
100
AcDbLine
  8
piccolo
 62
150
370
-1
  6
ByLayer
 10
16.3777380845319165
 20
0.1927526515679747
 30
0.0
 11
16.3768326701978282
 21
0.1932556595313567
 31
0.0
  0
LINE
  5
199
100
AcDbEntity
100
AcDbLine
  8
piccolo
 62
150
370
-1
  6
ByLayer
 10
16.371500785785976
 20
0.1956700977555902
 30
0.0
 11
16.3686839411910405
 21
0.1964749104970014
 31
0.0
  0
LINE
  5
19A
100
AcDbEntity
100
AcDbLine
  8
piccolo
 62
150
370
-1
  6
ByLayer
 10
16.3658670965961015
 20
0.1970785200530598
 30
0.0
 11
16.3629496504084884
 21
0.1974809264237654
 31
0.0
  0
LINE
  5
19B
100
AcDbEntity
100
AcDbLine
  8
piccolo
 62
150
370
-1
  6
ByLayer
 10
16.3968523871404308
 20
0.1685076677329633
 30
0.0
 11
16.3956451680283131
 21
0.1686082693256397
 31
0.0
  0
LINE
  5
19C
100
AcDbEntity
100
AcDbLine
  8
piccolo
 62
150
370
-1
  6
ByLayer
 10
16.3890054629116726
 20
0.171223910735226
 30
0.0
 11
16.3881000485775843
 21
0.1720287234766372
 31
0.0
  0
LINE
  5
19D
100
AcDbEntity
100
AcDbLine
  8
piccolo
 62
150
370
-1
  6
ByLayer
 10
16.3837741800924945
 20
0.1790708349639849
 30
0.0
 11
16.3834723753144686
 21
0.1801774524834252
 31
0.0
  0
LINE
  5
19E
100
AcDbEntity
100
AcDbLine
  8
piccolo
 62
150
370
-1
  6
ByLayer
 10
16.3830699689437651
 20
0.1846039225611867
 30
0.0
 11
16.3828687657584098
 21
0.1856099384879506
 31
0.0
  0
LINE
  5
19F
100
AcDbEntity
100
AcDbLine
  8
piccolo
 62
150
370
-1
  6
ByLayer
 10
16.3822651562023545
 20
0.1875213687488022
 30
0.0
 11
16.3817621482389733
 21
0.1884267830828897
 31
0.0
  0
LINE
  5
1A0
100
AcDbEntity
100
AcDbLine
  8
piccolo
 62
150
370
-1
  6
ByLayer
 10
16.3812591402755885
 20
0.1892315958243009
 30
0.0
 11
16.3806555307195296
 21
0.1900364085657121
 31
0.0
  0
LINE
  5
1A1
100
AcDbEntity
100
AcDbLine
  8
piccolo
 62
150
370
-1
  6
ByLayer
 10
16.3800519211634743
 20
0.1908412213071232
 30
0.0
 11
16.3793477100147413
 21
0.191545432455858
 31
0.0
  0
LINE
  5
1A2
100
AcDbEntity
100
AcDbLine
  8
piccolo
 62
150
370
-1
  6
ByLayer
 10
16.3828687657584098
 20
0.1856099384879506
 30
0.0
 11
16.3826675625730616
 21
0.1865153528220382
 31
0.0
  0
DIMENSION
  5
1A3
100
AcDbEntity
  8
misure
 62
150
370
-1
  6
ByLayer
100
AcDbDimension
 10
23.0
 20
0.0135956878447419
 30
0.0
 11
21.125
 21
4.4135730247914333
 31
0.0
 70
0
 71
5
 72
0
 41
1.0
 42
0.0
  1

  3
Standard
100
AcDbAlignedDimension
 13
17.5430604999999993
 23
8.813550361738125
 33
0.0
 14
17.5430604999999993
 24
0.0135956878447426
 34
0.0
 50
90.0
100
AcDbRotatedDimension
  0
LINE
  5
1A4
100
AcDbEntity
100
AcDbLine
  8
grande
 62
150
370
-1
  6
ByLayer
 10
17.3008582989305246
 20
0.024144382242335
 30
0.0
 11
17.5
 21
0.015471112812401
 31
0.0
  0
LINE
  5
1A5
100
AcDbEntity
100
AcDbLine
  8
piccolo
 62
150
370
-1
  6
ByLayer
 10
16.7714927182673286
 20
8.6688392409250437
 30
0.0
 11
17.5
 21
8.6712199836758028
 31
0.0
  0
LINE
  5
1A6
100
AcDbEntity
100
AcDbLine
  8
piccolo
 62
150
370
-1
  6
ByLayer
 10
17.5
 20
0.1657995282197644
 30
0.0
 11
17.2169565706384127
 21
0.1616667594309684
 31
0.0
  0
LINE
  5
1A7
100
AcDbEntity
100
AcDbLine
  8
grande
 62
150
370
-1
  6
ByLayer
 10
17.5
 20
0.1657995282197644
 30
0.0
 11
17.5
 21
8.8215298914948423
 31
0.0
  0
LINE
  5
1A8
100
AcDbEntity
100
AcDbLine
  8
grande
 62
150
370
-1
  6
ByLayer
 10
17.5
 20
8.8215298914948423
 30
0.0
 11
16.871792506165697
 21
8.803343570333384
 31
0.0
  0
DIMENSION
  5
1A9
100
AcDbEntity
  8
misure
 62
150
370
-1
  6
ByLayer
100
AcDbDimension
 10
17.5
 20
11.0
 30
0.0
 11
8.75
 21
12.875
 31
0.0
 70
0
 71
5
 72
0
 41
1.0
 42
0.0
  1

  3
Standard
100
AcDbAlignedDimension
 13
0.0000000000000002
 23
5.6263831548639818
 33
0.0
 14
17.5
 24
8.8215298914948423
 34
0.0
 50
0.0
100
AcDbRotatedDimension
  0
ENDSEC
  0
SECTION
  2
OBJECTS
  0
DICTIONARY
  5
C
100
AcDbDictionary
280
0
281
1
  3
ACAD_GROUP
350
D
  3
ACAD_LAYOUT
350
1A
  3
ACAD_MLINESTYLE
350
17
  3
ACAD_PLOTSETTINGS
350
19
  3
ACAD_PLOTSTYLENAME
350
E
  3
AcDbVariableDictionary
350
1AA
  0
DICTIONARY
  5
D
100
AcDbDictionary
280
0
281
1
  0
ACDBDICTIONARYWDFLT
  5
E
100
AcDbDictionary
281
1
  3
Normal
350
F
100
AcDbDictionaryWithDefault
340
F
  0
ACDBPLACEHOLDER
  5
F
  0
DICTIONARY
  5
17
100
AcDbDictionary
280
0
281
1
  3
Standard
350
18
  0
MLINESTYLE
  5
18
100
AcDbMlineStyle
  2
STANDARD
 70
0
  3

 62
256
 51
90.0
 52
90.0
 71
2
 49
0.5
 62
256
  6
BYLAYER
 49
-0.5
 62
256
  6
BYLAYER
  0
DICTIONARY
  5
19
100
AcDbDictionary
280
0
281
1
  0
DICTIONARY
  5
1A
100
AcDbDictionary
281
1
  3
Layout1
350
1E
  3
Layout2
350
26
  3
Model
350
22
  0
LAYOUT
  5
1E
100
AcDbPlotSettings
  1

  2
C:\Program Files\AutoCAD 2002\plotters\DWF ePlot (optimized for plotting).pc3
  4

  6

 40
0.0
 41
0.0
 42
0.0
 43
0.0
 44
0.0
 45
0.0
 46
0.0
 47
0.0
 48
0.0
 49
0.0
140
0.0
141
0.0
142
1.0
143
1.0
 70
688
 72
0
 73
0
 74
5
  7

 75
16
147
1.0
148
0.0
149
0.0
100
AcDbLayout
  1
Layout1
 70
1
 71
1
 10
0.0
 20
0.0
 11
420.0
 21
297.0
 12
0.0
 22
0.0
 32
0.0
 14
100000000000000000000.0
 24
100000000000000000000.0
 34
100000000000000000000.0
 15
-100000000000000000000.0
 25
-100000000000000000000.0
 35
-100000000000000000000.0
146
0.0
 13
0.0
 23
0.0
 33
0.0
 16
1.0
 26
0.0
 36
0.0
 17
0.0
 27
1.0
 37
0.0
 76
0
330
1B
  0
LAYOUT
  5
22
100
AcDbPlotSettings
  1

  2
C:\Program Files\AutoCAD 2002\plotters\DWF ePlot (optimized for plotting).pc3
  4

  6

 40
0.0
 41
0.0
 42
0.0
 43
0.0
 44
0.0
 45
0.0
 46
0.0
 47
0.0
 48
0.0
 49
0.0
140
0.0
141
0.0
142
1.0
143
1.0
 70
1712
 72
0
 73
0
 74
0
  7

 75
0
147
1.0
148
0.0
149
0.0
100
AcDbLayout
  1
Model
 70
1
 71
0
 10
0.0
 20
0.0
 11
12.0
 21
9.0
 12
0.0
 22
0.0
 32
0.0
 14
0.0
 24
0.0
 34
0.0
 15
0.0
 25
0.0
 35
0.0
146
0.0
 13
0.0
 23
0.0
 33
0.0
 16
1.0
 26
0.0
 36
0.0
 17
0.0
 27
1.0
 37
0.0
 76
0
330
1F
  0
LAYOUT
  5
26
100
AcDbPlotSettings
  1

  2
C:\Program Files\AutoCAD 2002\plotters\DWF ePlot (optimized for plotting).pc3
  4

  6

 40
0.0
 41
0.0
 42
0.0
 43
0.0
 44
0.0
 45
0.0
 46
0.0
 47
0.0
 48
0.0
 49
0.0
140
0.0
141
0.0
142
1.0
143
1.0
 70
688
 72
0
 73
0
 74
5
  7

 75
16
147
1.0
148
0.0
149
0.0
100
AcDbLayout
  1
Layout2
 70
1
 71
2
 10
0.0
 20
0.0
 11
12.0
 21
9.0
 12
0.0
 22
0.0
 32
0.0
 14
0.0
 24
0.0
 34
0.0
 15
0.0
 25
0.0
 35
0.0
146
0.0
 13
0.0
 23
0.0
 33
0.0
 16
1.0
 26
0.0
 36
0.0
 17
0.0
 27
1.0
 37
0.0
 76
0
330
23
  0
DICTIONARY
  5
1AA
100
AcDbDictionary
281
1
  3
DIMASSOC
350
1AC
  3
HIDETEXT
350
1AB
  0
DICTIONARYVAR
  5
1AB
100
DictionaryVariables
280
0
  1
2
  0
DICTIONARYVAR
  5
1AC
100
DictionaryVariables
280
0
  1
1
  0
ENDSEC
  0
EOF
