999
dxflib 2.2.0.0
  0
SECTION
  2
HEADER
  9
$ACADVER
  1
AC1015
  9
$HANDSEED
  5
FFFF
  9
$DIMASZ
 40
2.5
  9
$PLIMMIN
 10
0.0
 20
0.0
  9
$DIMEXE
 40
1.25
  9
$DIMGAP
 40
0.625
  9
$PLIMMAX
 10
210.0
 20
297.0
  9
$INSUNITS
 70
0
  9
$DIMSTYLE
  2
Standard
  9
$DIMEXO
 40
0.625
  9
$DIMTXT
 40
2.5
  0
ENDSEC
  0
SECTION
  2
TABLES
  0
TABLE
  2
VPORT
  5
8
100
AcDbSymbolTable
 70
1
  0
VPORT
  5
30
100
AcDbSymbolTableRecord
100
AcDbViewportTableRecord
  2
*Active
 70
0
 10
0.0
 20
0.0
 11
1.0
 21
1.0
 12
286.3055555555554861
 22
148.5
 13
0.0
 23
0.0
 14
10.0
 24
10.0
 15
10.0
 25
10.0
 16
0.0
 26
0.0
 36
1.0
 17
0.0
 27
0.0
 37
0.0
 40
297.0
 41
1.92798353909465
 42
50.0
 43
0.0
 44
0.0
 50
0.0
 51
0.0
 71
0
 72
100
 73
1
 74
3
 75
1
 76
1
 77
0
 78
0
281
0
 65
1
110
0.0
120
0.0
130
0.0
111
1.0
121
0.0
131
0.0
112
0.0
122
1.0
132
0.0
 79
0
146
0.0
  0
ENDTAB
  0
TABLE
  2
LTYPE
  5
5
100
AcDbSymbolTable
 70
21
  0
LTYPE
  5
14
100
AcDbSymbolTableRecord
100
AcDbLinetypeTableRecord
  2
ByBlock
 70
0
  3

 72
65
 73
0
 40
0.0
  0
LTYPE
  5
15
100
AcDbSymbolTableRecord
100
AcDbLinetypeTableRecord
  2
ByLayer
 70
0
  3

 72
65
 73
0
 40
0.0
  0
LTYPE
  5
16
100
AcDbSymbolTableRecord
100
AcDbLinetypeTableRecord
  2
CONTINUOUS
 70
0
  3
Solid line
 72
65
 73
0
 40
0.0
  0
LTYPE
  5
31
100
AcDbSymbolTableRecord
100
AcDbLinetypeTableRecord
  2
DOT
 70
0
  3
Dot . . . . . . . . . . . . . . . . . . . . . .
 72
65
 73
2
 40
6.3499999999999996
 49
0.0
 74
0
 49
-6.3499999999999996
 74
0
  0
LTYPE
  5
32
100
AcDbSymbolTableRecord
100
AcDbLinetypeTableRecord
  2
DOT2
 70
0
  3
Dot (.5x) .....................................
 72
65
 73
2
 40
3.1749999999999998
 49
0.0
 74
0
 49
-3.1749999999999998
 74
0
  0
LTYPE
  5
33
100
AcDbSymbolTableRecord
100
AcDbLinetypeTableRecord
  2
DOTX2
 70
0
  3
Dot (2x) .  .  .  .  .  .  .  .  .  .  .  .  .
 72
65
 73
2
 40
12.6999999999999993
 49
0.0
 74
0
 49
-12.6999999999999993
 74
0
  0
LTYPE
  5
34
100
AcDbSymbolTableRecord
100
AcDbLinetypeTableRecord
  2
DASHED
 70
0
  3
Dashed __ __ __ __ __ __ __ __ __ __ __ __ __ _
 72
65
 73
2
 40
19.0500000000000007
 49
12.6999999999999993
 74
0
 49
-6.3499999999999996
 74
0
  0
LTYPE
  5
35
100
AcDbSymbolTableRecord
100
AcDbLinetypeTableRecord
  2
DASHED2
 70
0
  3
Dashed (.5x) _ _ _ _ _ _ _ _ _ _ _ _ _ _ _ _ _
 72
65
 73
2
 40
9.5250000000000004
 49
6.3499999999999996
 74
0
 49
-3.1749999999999998
 74
0
  0
LTYPE
  5
36
100
AcDbSymbolTableRecord
100
AcDbLinetypeTableRecord
  2
DASHEDX2
 70
0
  3
Dashed (2x) ____  ____  ____  ____  ____  ___
 72
65
 73
2
 40
38.1000000000000014
 49
25.3999999999999986
 74
0
 49
-12.6999999999999993
 74
0
  0
LTYPE
  5
37
100
AcDbSymbolTableRecord
100
AcDbLinetypeTableRecord
  2
DASHDOT
 70
0
  3
Dash dot __ . __ . __ . __ . __ . __ . __ . __
 72
65
 73
4
 40
25.3999999999999986
 49
12.6999999999999993
 74
0
 49
-6.3499999999999996
 74
0
 49
0.0
 74
0
 49
-6.3499999999999996
 74
0
  0
LTYPE
  5
38
100
AcDbSymbolTableRecord
100
AcDbLinetypeTableRecord
  2
DASHDOT2
 70
0
  3
Dash dot (.5x) _._._._._._._._._._._._._._._.
 72
65
 73
4
 40
12.6999999999999993
 49
6.3499999999999996
 74
0
 49
-3.1749999999999998
 74
0
 49
0.0
 74
0
 49
-3.1749999999999998
 74
0
  0
LTYPE
  5
39
100
AcDbSymbolTableRecord
100
AcDbLinetypeTableRecord
  2
DASHDOTX2
 70
0
  3
Dash dot (2x) ____  .  ____  .  ____  .  ___
 72
65
 73
4
 40
50.7999999999999972
 49
25.3999999999999986
 74
0
 49
-12.6999999999999993
 74
0
 49
0.0
 74
0
 49
-12.6999999999999993
 74
0
  0
LTYPE
  5
3A
100
AcDbSymbolTableRecord
100
AcDbLinetypeTableRecord
  2
DIVIDE
 70
0
  3
Divide ____ . . ____ . . ____ . . ____ . . ____
 72
65
 73
6
 40
31.75
 49
12.6999999999999993
 74
0
 49
-6.3499999999999996
 74
0
 49
0.0
 74
0
 49
-6.3499999999999996
 74
0
 49
0.0
 74
0
 49
-6.3499999999999996
 74
0
  0
LTYPE
  5
3B
100
AcDbSymbolTableRecord
100
AcDbLinetypeTableRecord
  2
DIVIDE2
 70
0
  3
Divide (.5x) __..__..__..__..__..__..__..__.._
 72
65
 73
6
 40
15.875
 49
6.3499999999999996
 74
0
 49
-3.1749999999999998
 74
0
 49
0.0
 74
0
 49
-3.1749999999999998
 74
0
 49
0.0
 74
0
 49
-3.1749999999999998
 74
0
  0
LTYPE
  5
3C
100
AcDbSymbolTableRecord
100
AcDbLinetypeTableRecord
  2
DIVIDEX2
 70
0
  3
Divide (2x) ________  .  .  ________  .  .  _
 72
65
 73
6
 40
63.5
 49
25.3999999999999986
 74
0
 49
-12.6999999999999993
 74
0
 49
0.0
 74
0
 49
-12.6999999999999993
 74
0
 49
0.0
 74
0
 49
-12.6999999999999993
 74
0
  0
LTYPE
  5
3D
100
AcDbSymbolTableRecord
100
AcDbLinetypeTableRecord
  2
CENTER
 70
0
  3
Center ____ _ ____ _ ____ _ ____ _ ____ _ ____
 72
65
 73
4
 40
50.7999999999999972
 49
31.75
 74
0
 49
-6.3499999999999996
 74
0
 49
6.3499999999999996
 74
0
 49
-6.3499999999999996
 74
0
  0
LTYPE
  5
3E
100
AcDbSymbolTableRecord
100
AcDbLinetypeTableRecord
  2
CENTER2
 70
0
  3
Center (.5x) ___ _ ___ _ ___ _ ___ _ ___ _ ___
 72
65
 73
4
 40
28.5749999999999993
 49
19.0500000000000007
 74
0
 49
-3.1749999999999998
 74
0
 49
3.1749999999999998
 74
0
 49
-3.1749999999999998
 74
0
  0
LTYPE
  5
3F
100
AcDbSymbolTableRecord
100
AcDbLinetypeTableRecord
  2
CENTERX2
 70
0
  3
Center (2x) ________  __  ________  __  _____
 72
65
 73
4
 40
101.5999999999999943
 49
63.5
 74
0
 49
-12.6999999999999993
 74
0
 49
12.6999999999999993
 74
0
 49
-12.6999999999999993
 74
0
  0
LTYPE
  5
40
100
AcDbSymbolTableRecord
100
AcDbLinetypeTableRecord
  2
BORDER
 70
0
  3
Border __ __ . __ __ . __ __ . __ __ . __ __ .
 72
65
 73
6
 40
44.4500000000000028
 49
12.6999999999999993
 74
0
 49
-6.3499999999999996
 74
0
 49
12.6999999999999993
 74
0
 49
-6.3499999999999996
 74
0
 49
0.0
 74
0
 49
-6.3499999999999996
 74
0
  0
LTYPE
  5
41
100
AcDbSymbolTableRecord
100
AcDbLinetypeTableRecord
  2
BORDER2
 70
0
  3
Border (.5x) __.__.__.__.__.__.__.__.__.__.__.
 72
65
 73
6
 40
22.2250000000000014
 49
6.3499999999999996
 74
0
 49
-3.1749999999999998
 74
0
 49
6.3499999999999996
 74
0
 49
-3.1749999999999998
 74
0
 49
0.0
 74
0
 49
-3.1749999999999998
 74
0
  0
LTYPE
  5
42
100
AcDbSymbolTableRecord
100
AcDbLinetypeTableRecord
  2
BORDERX2
 70
0
  3
Border (2x) ____  ____  .  ____  ____  .  ___
 72
65
 73
6
 40
88.9000000000000057
 49
25.3999999999999986
 74
0
 49
-12.6999999999999993
 74
0
 49
25.3999999999999986
 74
0
 49
-12.6999999999999993
 74
0
 49
0.0
 74
0
 49
-12.6999999999999993
 74
0
  0
ENDTAB
  0
TABLE
  2
LAYER
  5
2
100
AcDbSymbolTable
 70
1
  0
LAYER
  5
10
100
AcDbSymbolTableRecord
100
AcDbLayerTableRecord
  2
0
 70
0
 62
7
  6
CONTINUOUS
290
1
370
0
390
F
  0
ENDTAB
  0
TABLE
  2
STYLE
  5
3
100
AcDbSymbolTable
 70
1
  0
STYLE
  5
11
100
AcDbSymbolTableRecord
100
AcDbTextStyleTableRecord
  2
Standard
 70
0
 40
0.0
 41
0.75
 50
0.0
 71
0
 42
2.5
  3
txt
  4

  0
ENDTAB
  0
TABLE
  2
VIEW
  5
6
100
AcDbSymbolTable
 70
0
  0
ENDTAB
  0
TABLE
  2
UCS
  5
7
100
AcDbSymbolTable
 70
0
  0
ENDTAB
  0
TABLE
  2
APPID
  5
9
100
AcDbSymbolTable
 70
1
  0
APPID
  5
12
100
AcDbSymbolTableRecord
100
AcDbRegAppTableRecord
  2
ACAD
 70
0
  0
ENDTAB
  0
TABLE
  2
DIMSTYLE
  5
A
100
AcDbSymbolTable
 70
1
100
AcDbDimStyleTable
 71
0
  0
DIMSTYLE
105
27
100
AcDbSymbolTableRecord
100
AcDbDimStyleTableRecord
  2
Standard
 41
2.5
 42
0.625
 43
3.75
 44
1.25
 70
0
 73
0
 74
0
 77
1
 78
8
140
2.5
141
2.5
143
0.03937007874016
147
0.625
171
3
172
1
271
2
272
2
274
3
278
44
283
0
284
8
340
11
  0
ENDTAB
  0
TABLE
  2
BLOCK_RECORD
  5
1
100
AcDbSymbolTable
 70
1
  0
BLOCK_RECORD
  5
1F
100
AcDbSymbolTableRecord
100
AcDbBlockTableRecord
  2
*Model_Space
340
22
  0
BLOCK_RECORD
  5
1B
100
AcDbSymbolTableRecord
100
AcDbBlockTableRecord
  2
*Paper_Space
340
1E
  0
BLOCK_RECORD
  5
23
100
AcDbSymbolTableRecord
100
AcDbBlockTableRecord
  2
*Paper_Space0
340
26
  0
ENDTAB
  0
ENDSEC
  0
SECTION
  2
BLOCKS
  0
BLOCK
  5
20
100
AcDbEntity
  8
0
100
AcDbBlockBegin
  2
*Model_Space
 70
0
 10
0.0
 20
0.0
 30
0.0
  3
*Model_Space
  1

  0
ENDBLK
  5
21
100
AcDbEntity
  8
0
100
AcDbBlockEnd
  0
BLOCK
  5
1C
100
AcDbEntity
 67
1
  8
0
100
AcDbBlockBegin
  2
*Paper_Space
 70
0
 10
0.0
 20
0.0
 30
0.0
  3
*Paper_Space
  1

  0
ENDBLK
  5
1D
100
AcDbEntity
 67
1
  8
0
100
AcDbBlockEnd
  0
BLOCK
  5
24
100
AcDbEntity
  8
0
100
AcDbBlockBegin
  2
*Paper_Space0
 70
0
 10
0.0
 20
0.0
 30
0.0
  3
*Paper_Space0
  1

  0
ENDBLK
  5
25
100
AcDbEntity
  8
0
100
AcDbBlockEnd
  0
ENDSEC
  0
SECTION
  2
ENTITIES
  0
LINE
  5
43
100
AcDbEntity
100
AcDbLine
  8
0
 62
150
370
-1
  6
ByLayer
 10
16.871792506165697
 20
-4.3096788604760805
 30
0.0
 11
16.4412176895107223
 21
-4.299719302801118
 31
0.0
  0
LINE
  5
44
100
AcDbEntity
100
AcDbLine
  8
0
 62
150
370
-1
  6
ByLayer
 10
16.4412176895107223
 20
-4.299719302801118
 30
0.0
 11
15.366792679726812
 21
-4.2754743189661051
 31
0.0
  0
LINE
  5
45
100
AcDbEntity
100
AcDbLine
  8
0
 62
150
370
-1
  6
ByLayer
 10
15.366792679726812
 20
-4.2754743189661051
 30
0.0
 11
14.6641911564748604
 21
-4.2541467813187088
 31
0.0
  0
LINE
  5
46
100
AcDbEntity
100
AcDbLine
  8
0
 62
150
370
-1
  6
ByLayer
 10
14.6641911564748604
 20
-4.2541467813187088
 30
0.0
 11
14.141264077742953
 21
-4.2305054070397583
 31
0.0
  0
LINE
  5
47
100
AcDbEntity
100
AcDbLine
  8
0
 62
150
370
-1
  6
ByLayer
 10
14.141264077742953
 20
-4.2305054070397583
 30
0.0
 11
13.6829232215092951
 21
-4.1995201164954272
 31
0.0
  0
LINE
  5
48
100
AcDbEntity
100
AcDbLine
  8
0
 62
150
370
-1
  6
ByLayer
 10
13.6829232215092951
 20
-4.1995201164954272
 30
0.0
 11
13.4833296616393241
 21
-4.1839268696305867
 31
0.0
  0
LINE
  5
49
100
AcDbEntity
100
AcDbLine
  8
0
 62
150
370
-1
  6
ByLayer
 10
13.4833296616393241
 20
-4.1839268696305867
 30
0.0
 11
13.3032528107485764
 21
-4.170848662582654
 31
0.0
  0
LINE
  5
4A
100
AcDbEntity
100
AcDbLine
  8
0
 62
150
370
-1
  6
ByLayer
 10
13.3032528107485764
 20
-4.170848662582654
 30
0.0
 11
13.1520486169559536
 21
-4.1607885033150165
 31
0.0
  0
LINE
  5
4B
100
AcDbEntity
100
AcDbLine
  8
0
 62
150
370
-1
  6
ByLayer
 10
13.1520486169559536
 20
-4.1607885033150165
 30
0.0
 11
13.1030556413225483
 21
-4.1595812842028996
 31
0.0
  0
LINE
  5
4C
100
AcDbEntity
100
AcDbLine
  8
0
 62
150
370
-1
  6
ByLayer
 10
13.1030556413225483
 20
-4.1595812842028996
 30
0.0
 11
12.951650244344572
 21
-4.1555572204958438
 31
0.0
  0
LINE
  5
4D
100
AcDbEntity
100
AcDbLine
  8
0
 62
150
370
-1
  6
ByLayer
 10
12.951650244344572
 20
-4.1555572204958438
 30
0.0
 11
11.6928225151848277
 21
-4.0700458667209034
 31
0.0
  0
LINE
  5
4E
100
AcDbEntity
100
AcDbLine
  8
0
 62
150
370
-1
  6
ByLayer
 10
11.6928225151848277
 20
-4.0700458667209034
 30
0.0
 11
10.5255422353606054
 21
-3.9889609830237323
 31
0.0
  0
LINE
  5
4F
100
AcDbEntity
100
AcDbLine
  8
0
 62
150
370
-1
  6
ByLayer
 10
10.5255422353606054
 20
-3.9889609830237323
 30
0.0
 11
9.7683140472853722
 21
-3.9320204815688906
 31
0.0
  0
LINE
  5
50
100
AcDbEntity
100
AcDbLine
  8
0
 62
150
370
-1
  6
ByLayer
 10
9.7683140472853722
 20
-3.9320204815688906
 30
0.0
 11
7.9632196698928004
 21
-3.732125116920892
 31
0.0
  0
LINE
  5
51
100
AcDbEntity
100
AcDbLine
  8
0
 62
150
370
-1
  6
ByLayer
 10
7.9632196698928004
 20
-3.732125116920892
 30
0.0
 11
6.2695918571856728
 21
-3.4279059006674695
 31
0.0
  0
LINE
  5
52
100
AcDbEntity
100
AcDbLine
  8
0
 62
150
370
-1
  6
ByLayer
 10
6.2695918571856728
 20
-3.4279059006674695
 30
0.0
 11
4.5991024107941172
 21
-3.0005503349781399
 31
0.0
  0
LINE
  5
53
100
AcDbEntity
100
AcDbLine
  8
0
 62
150
370
-1
  6
ByLayer
 10
4.5991024107941172
 20
-3.0005503349781399
 30
0.0
 11
2.8634231323482577
 21
-2.4304411092810043
 31
0.0
  0
LINE
  5
54
100
AcDbEntity
100
AcDbLine
  8
0
 62
150
370
-1
  6
ByLayer
 10
2.8634231323482577
 20
-2.4304411092810043
 30
0.0
 11
2.6509525686157094
 21
-2.3524748749567954
 31
0.0
  0
LINE
  5
55
100
AcDbEntity
100
AcDbLine
  8
0
 62
150
370
-1
  6
ByLayer
 10
2.6509525686157094
 20
-2.3524748749567954
 30
0.0
 11
2.4471337418533317
 21
-2.2758164613373824
 31
0.0
  0
LINE
  5
56
100
AcDbEntity
100
AcDbLine
  8
0
 62
150
370
-1
  6
ByLayer
 10
2.4471337418533317
 20
-2.2758164613373824
 30
0.0
 11
2.2741996040426073
 21
-2.2090170038002546
 31
0.0
  0
LINE
  5
57
100
AcDbEntity
100
AcDbLine
  8
0
 62
150
370
-1
  6
ByLayer
 10
2.2741996040426073
 20
-2.2090170038002546
 30
0.0
 11
2.1842617801899085
 21
-2.1714926097319585
 31
0.0
  0
LINE
  5
58
100
AcDbEntity
100
AcDbLine
  8
0
 62
150
370
-1
  6
ByLayer
 10
2.1842617801899085
 20
-2.1714926097319585
 30
0.0
 11
2.1230960118426587
 21
-2.1453361956360975
 31
0.0
  0
LINE
  5
59
100
AcDbEntity
100
AcDbLine
  8
0
 62
150
370
-1
  6
ByLayer
 10
2.1230960118426587
 20
-2.1453361956360975
 30
0.0
 11
2.0663567135731693
 21
-2.1232038452472901
 31
0.0
  0
LINE
  5
5A
100
AcDbEntity
100
AcDbLine
  8
0
 62
150
370
-1
  6
ByLayer
 10
2.0663567135731693
 20
-2.1232038452472901
 30
0.0
 11
2.0185709570518835
 21
-2.1064033792703296
 31
0.0
  0
LINE
  5
5B
100
AcDbEntity
100
AcDbLine
  8
0
 62
150
370
-1
  6
ByLayer
 10
2.0185709570518835
 20
-2.1064033792703296
 30
0.0
 11
2.0137420806034179
 21
-2.1049949569728623
 31
0.0
  0
LINE
  5
5C
100
AcDbEntity
100
AcDbLine
  8
0
 62
150
370
-1
  6
ByLayer
 10
2.0137420806034179
 20
-2.1049949569728623
 30
0.0
 11
2.0088126025622728
 21
-2.1039889410460995
 31
0.0
  0
LINE
  5
5D
100
AcDbEntity
100
AcDbLine
  8
0
 62
150
370
-1
  6
ByLayer
 10
2.0088126025622728
 20
-2.1039889410460995
 30
0.0
 11
2.0038831245211313
 21
-2.1033853314900388
 31
0.0
  0
LINE
  5
5E
100
AcDbEntity
100
AcDbLine
  8
0
 62
150
370
-1
  6
ByLayer
 10
2.0038831245211313
 20
-2.1033853314900388
 30
0.0
 11
1.9988530448873103
 21
-2.1031841283046862
 31
0.0
  0
LINE
  5
5F
100
AcDbEntity
100
AcDbLine
  8
0
 62
150
370
-1
  6
ByLayer
 10
1.9988530448873103
 20
-2.1031841283046862
 30
0.0
 11
1.983762805985851
 21
-2.1024799171559549
 31
0.0
  0
LINE
  5
60
100
AcDbEntity
100
AcDbLine
  8
0
 62
150
370
-1
  6
ByLayer
 10
1.983762805985851
 20
-2.1024799171559549
 30
0.0
 11
1.9687731686770675
 21
-2.1006690884877774
 31
0.0
  0
LINE
  5
61
100
AcDbEntity
100
AcDbLine
  8
0
 62
150
370
-1
  6
ByLayer
 10
1.9687731686770675
 20
-2.1006690884877774
 30
0.0
 11
1.9539847345536376
 21
-2.0975504391148116
 31
0.0
  0
LINE
  5
62
100
AcDbEntity
100
AcDbLine
  8
0
 62
150
370
-1
  6
ByLayer
 10
1.9539847345536376
 20
-2.0975504391148116
 30
0.0
 11
1.9395987068009131
 21
-2.0933251722224004
 31
0.0
  0
LINE
  5
63
100
AcDbEntity
100
AcDbLine
  8
0
 62
150
370
-1
  6
ByLayer
 10
1.9395987068009131
 20
-2.0933251722224004
 30
0.0
 11
1.9255144838262197
 21
-2.0878926862178755
 31
0.0
  0
LINE
  5
64
100
AcDbEntity
100
AcDbLine
  8
0
 62
150
370
-1
  6
ByLayer
 10
1.9255144838262197
 20
-2.0878926862178755
 30
0.0
 11
1.3587251106874021
 21
-1.8396079554925313
 31
0.0
  0
LINE
  5
65
100
AcDbEntity
100
AcDbLine
  8
0
 62
150
370
-1
  6
ByLayer
 10
1.3587251106874021
 20
-1.8396079554925313
 30
0.0
 11
0.8392184861064962
 21
-1.6074194795954067
 31
0.0
  0
LINE
  5
66
100
AcDbEntity
100
AcDbLine
  8
0
 62
150
370
-1
  6
ByLayer
 10
0.8392184861064962
 20
-1.6074194795954067
 30
0.0
 11
0.5522021422007359
 21
-1.4668790546264798
 31
0.0
  0
LINE
  5
67
100
AcDbEntity
100
AcDbLine
  8
0
 62
150
370
-1
  6
ByLayer
 10
0.5522021422007359
 20
-1.4668790546264798
 30
0.0
 11
0.3932516257720327
 21
-1.3781484498859031
 31
0.0
  0
LINE
  5
68
100
AcDbEntity
100
AcDbLine
  8
0
 62
150
370
-1
  6
ByLayer
 10
0.2517051848763412
 20
-0.0441713309968881
 30
0.0
 11
0.4240357131310066
 21
0.067194632095875
 31
0.0
  0
LINE
  5
69
100
AcDbEntity
100
AcDbLine
  8
0
 62
150
370
-1
  6
ByLayer
 10
0.4240357131310066
 20
0.067194632095875
 30
0.0
 11
0.6161847551429229
 21
0.1885201528636093
 31
0.0
  0
LINE
  5
6A
100
AcDbEntity
100
AcDbLine
  8
0
 62
150
370
-1
  6
ByLayer
 10
0.6161847551429229
 20
0.1885201528636093
 30
0.0
 11
0.9313695449980717
 21
0.3834860394704647
 31
0.0
  0
LINE
  5
6B
100
AcDbEntity
100
AcDbLine
  8
0
 62
150
370
-1
  6
ByLayer
 10
0.9313695449980717
 20
0.3834860394704647
 30
0.0
 11
1.2190901000525631
 21
0.5574261932079549
 31
0.0
  0
LINE
  5
6C
100
AcDbEntity
100
AcDbLine
  8
0
 62
150
370
-1
  6
ByLayer
 10
1.2190901000525631
 20
0.5574261932079549
 30
0.0
 11
1.5573126546306089
 21
0.7568185498925706
 31
0.0
  0
LINE
  5
6D
100
AcDbEntity
100
AcDbLine
  8
0
 62
150
370
-1
  6
ByLayer
 10
1.5573126546306089
 20
0.7568185498925706
 30
0.0
 11
2.0479466221133915
 21
1.0418228619448007
 31
0.0
  0
LINE
  5
6E
100
AcDbEntity
100
AcDbLine
  8
0
 62
150
370
-1
  6
ByLayer
 10
2.0479466221133915
 20
1.0418228619448007
 30
0.0
 11
2.9827366212624611
 21
1.5622349008597967
 31
0.0
  0
LINE
  5
6F
100
AcDbEntity
100
AcDbLine
  8
0
 62
150
370
-1
  6
ByLayer
 10
2.9827366212624611
 20
1.5622349008597967
 30
0.0
 11
4.2312023863765376
 21
2.2181572851099016
 31
0.0
  0
LINE
  5
70
100
AcDbEntity
100
AcDbLine
  8
0
 62
150
370
-1
  6
ByLayer
 10
4.2312023863765376
 20
2.2181572851099016
 30
0.0
 11
5.4417413510516104
 21
2.832933617955355
 31
0.0
  0
LINE
  5
71
100
AcDbEntity
100
AcDbLine
  8
0
 62
150
370
-1
  6
ByLayer
 10
7.4912975986478259
 20
3.5949906824790565
 30
0.0
 11
7.8473266351295905
 21
3.6592751001992729
 31
0.0
  0
LINE
  5
72
100
AcDbEntity
100
AcDbLine
  8
0
 62
150
370
-1
  6
ByLayer
 10
7.8473266351295905
 20
3.6592751001992729
 30
0.0
 11
8.4214599245337833
 21
3.7454906651229445
 31
0.0
  0
LINE
  5
73
100
AcDbEntity
100
AcDbLine
  8
0
 62
150
370
-1
  6
ByLayer
 10
8.4214599245337833
 20
3.7454906651229445
 30
0.0
 11
9.2389484666221744
 21
3.8462934609846942
 31
0.0
  0
LINE
  5
74
100
AcDbEntity
100
AcDbLine
  8
0
 62
150
370
-1
  6
ByLayer
 10
9.2389484666221744
 20
3.8462934609846942
 30
0.0
 11
10.2511010905393984
 21
3.9577600256701428
 31
0.0
  0
LINE
  5
75
100
AcDbEntity
100
AcDbLine
  8
0
 62
150
370
-1
  6
ByLayer
 10
10.2511010905393984
 20
3.9577600256701428
 30
0.0
 11
11.4537931309857139
 21
4.0784819368818175
 31
0.0
  0
LINE
  5
76
100
AcDbEntity
100
AcDbLine
  8
0
 62
150
370
-1
  6
ByLayer
 10
11.4537931309857139
 20
4.0784819368818175
 30
0.0
 11
12.7370670471658194
 21
4.2013164815396964
 31
0.0
  0
LINE
  5
77
100
AcDbEntity
100
AcDbLine
  8
0
 62
150
370
-1
  6
ByLayer
 10
12.7370670471658194
 20
4.2013164815396964
 30
0.0
 11
13.1916856444704536
 21
4.238237266051935
 31
0.0
  0
LINE
  5
78
100
AcDbEntity
100
AcDbLine
  8
0
 62
150
370
-1
  6
ByLayer
 10
13.1916856444704536
 20
4.238237266051935
 30
0.0
 11
13.4361475146740936
 21
4.2468890030221038
 31
0.0
  0
LINE
  5
79
100
AcDbEntity
100
AcDbLine
  8
0
 62
150
370
-1
  6
ByLayer
 10
13.4361475146740936
 20
4.2468890030221038
 30
0.0
 11
13.4554630204679615
 21
4.2460841902806932
 31
0.0
  0
LINE
  5
7A
100
AcDbEntity
100
AcDbLine
  8
0
 62
150
370
-1
  6
ByLayer
 10
13.4554630204679615
 20
4.2460841902806932
 30
0.0
 11
13.4746779246691535
 21
4.243870955241813
 31
0.0
  0
LINE
  5
7B
100
AcDbEntity
100
AcDbLine
  8
0
 62
150
370
-1
  6
ByLayer
 10
13.4746779246691535
 20
4.243870955241813
 30
0.0
 11
13.4935910240923178
 21
4.240048094720108
 31
0.0
  0
LINE
  5
7C
100
AcDbEntity
100
AcDbLine
  8
0
 62
150
370
-1
  6
ByLayer
 10
13.4935910240923178
 20
4.240048094720108
 30
0.0
 11
13.5122023187374491
 21
4.2348168119009371
 31
0.0
  0
LINE
  5
7D
100
AcDbEntity
100
AcDbLine
  8
0
 62
150
370
-1
  6
ByLayer
 10
13.5122023187374491
 20
4.2348168119009371
 30
0.0
 11
13.5303106054192028
 21
4.2279759035989413
 31
0.0
  0
LINE
  5
7E
100
AcDbEntity
100
AcDbLine
  8
0
 62
150
370
-1
  6
ByLayer
 10
13.5303106054192028
 20
4.2279759035989413
 30
0.0
 11
13.5478152825448923
 21
4.2198271745921536
 31
0.0
  0
LINE
  5
7F
100
AcDbEntity
100
AcDbLine
  8
0
 62
150
370
-1
  6
ByLayer
 10
13.5478152825448923
 20
4.2198271745921536
 30
0.0
 11
13.5921805849151838
 21
4.1990026449081403
 31
0.0
  0
LINE
  5
80
100
AcDbEntity
100
AcDbLine
  8
0
 62
150
370
-1
  6
ByLayer
 10
13.5921805849151838
 20
4.1990026449081403
 30
0.0
 11
13.6381555127682965
 21
4.1819003741531526
 31
0.0
  0
LINE
  5
81
100
AcDbEntity
100
AcDbLine
  8
0
 62
150
370
-1
  6
ByLayer
 10
13.6381555127682965
 20
4.1819003741531526
 30
0.0
 11
13.685337659733527
 21
4.1685203623271923
 31
0.0
  0
LINE
  5
82
100
AcDbEntity
100
AcDbLine
  8
0
 62
150
370
-1
  6
ByLayer
 10
13.685337659733527
 20
4.1685203623271923
 30
0.0
 11
13.7334252210328422
 21
4.1590638126156092
 31
0.0
  0
LINE
  5
83
100
AcDbEntity
100
AcDbLine
  8
0
 62
150
370
-1
  6
ByLayer
 10
13.7334252210328422
 20
4.1590638126156092
 30
0.0
 11
13.7821163918882217
 21
4.1535307250184088
 31
0.0
  0
LINE
  5
84
100
AcDbEntity
100
AcDbLine
  8
0
 62
150
370
-1
  6
ByLayer
 10
13.7821163918882217
 20
4.1535307250184088
 30
0.0
 11
13.9674245255981404
 21
4.1458850039750024
 31
0.0
  0
LINE
  5
85
100
AcDbEntity
100
AcDbLine
  8
0
 62
150
370
-1
  6
ByLayer
 10
13.9674245255981404
 20
4.1458850039750024
 30
0.0
 11
14.1528332609007386
 21
4.1497078644967056
 31
0.0
  0
LINE
  5
86
100
AcDbEntity
100
AcDbLine
  8
0
 62
150
370
-1
  6
ByLayer
 10
14.1528332609007386
 20
4.1497078644967056
 30
0.0
 11
14.3421654583177176
 21
4.1656029161395756
 31
0.0
  0
LINE
  5
87
100
AcDbEntity
100
AcDbLine
  8
0
 62
150
370
-1
  6
ByLayer
 10
14.3421654583177176
 20
4.1656029161395756
 30
0.0
 11
14.5299886318445459
 21
4.1933689557182623
 31
0.0
  0
LINE
  5
88
100
AcDbEntity
100
AcDbLine
  8
0
 62
150
370
-1
  6
ByLayer
 10
14.5299886318445459
 20
4.1933689557182623
 30
0.0
 11
14.5990013244205556
 21
4.2085597962123975
 31
0.0
  0
LINE
  5
89
100
AcDbEntity
100
AcDbLine
  8
0
 62
150
370
-1
  6
ByLayer
 10
14.5990013244205556
 20
4.2085597962123975
 30
0.0
 11
14.6666055946990976
 21
4.2288813179330296
 31
0.0
  0
LINE
  5
8A
100
AcDbEntity
100
AcDbLine
  8
0
 62
150
370
-1
  6
ByLayer
 10
14.6666055946990976
 20
4.2288813179330296
 30
0.0
 11
14.7324996379021318
 21
4.2542329192874808
 31
0.0
  0
LINE
  5
8B
100
AcDbEntity
100
AcDbLine
  8
0
 62
150
370
-1
  6
ByLayer
 10
14.7324996379021318
 20
4.2542329192874808
 30
0.0
 11
14.796281047658967
 21
4.2845139986830771
 31
0.0
  0
LINE
  5
8C
100
AcDbEntity
100
AcDbLine
  8
0
 62
150
370
-1
  6
ByLayer
 10
14.796281047658967
 20
4.2845139986830771
 30
0.0
 11
14.8330006289858556
 21
4.3019180742160925
 31
0.0
  0
LINE
  5
8D
100
AcDbEntity
100
AcDbLine
  8
0
 62
150
370
-1
  6
ByLayer
 10
14.8330006289858556
 20
4.3019180742160925
 30
0.0
 11
14.8710280310175289
 21
4.3164047035614947
 31
0.0
  0
LINE
  5
8E
100
AcDbEntity
100
AcDbLine
  8
0
 62
150
370
-1
  6
ByLayer
 10
14.8710280310175289
 20
4.3164047035614947
 30
0.0
 11
14.9099608473832941
 21
4.3279738867192803
 31
0.0
  0
LINE
  5
8F
100
AcDbEntity
100
AcDbLine
  8
0
 62
150
370
-1
  6
ByLayer
 10
14.9099608473832941
 20
4.3279738867192803
 30
0.0
 11
14.9496984764904699
 21
4.336525022096775
 31
0.0
  0
LINE
  5
90
100
AcDbEntity
100
AcDbLine
  8
0
 62
150
370
-1
  6
ByLayer
 10
14.9496984764904699
 20
4.336525022096775
 30
0.0
 11
15.2024096772935806
 21
4.3697235476799845
 31
0.0
  0
LINE
  5
91
100
AcDbEntity
100
AcDbLine
  8
0
 62
150
370
-1
  6
ByLayer
 10
15.2024096772935806
 20
4.3697235476799845
 30
0.0
 11
15.6298658445755851
 21
4.3983950015927595
 31
0.0
  0
LINE
  5
92
100
AcDbEntity
100
AcDbLine
  8
0
 62
150
370
-1
  6
ByLayer
 10
15.6298658445755851
 20
4.3983950015927595
 30
0.0
 11
16.5282380671757991
 21
4.437227216365847
 31
0.0
  0
LINE
  5
93
100
AcDbEntity
100
AcDbLine
  8
0
 62
150
370
-1
  6
ByLayer
 10
16.5282380671757991
 20
4.437227216365847
 30
0.0
 11
16.7528814236221919
 21
4.4463819612993971
 31
0.0
  0
LINE
  5
94
100
AcDbEntity
100
AcDbLine
  8
0
 62
150
370
-1
  6
ByLayer
 10
16.7528814236221919
 20
4.4463819612993971
 30
0.0
 11
17.0256123413679035
 21
4.4578505428645085
 31
0.0
  0
LINE
  5
95
100
AcDbEntity
100
AcDbLine
  8
0
 62
150
370
-1
  6
ByLayer
 10
17.0256123413679035
 20
4.4578505428645085
 30
0.0
 11
17.3008582989305211
 21
4.4695203276149682
 31
0.0
  0
LINE
  5
96
100
AcDbEntity
100
AcDbLine
  8
0
 62
150
370
-1
  6
ByLayer
 10
18.0988301320396943
 20
-4.332012414050241
 30
0.0
 11
18.0960132874447623
 21
-4.3339238443110935
 31
0.0
  0
LINE
  5
97
100
AcDbEntity
100
AcDbLine
  8
0
 62
150
370
-1
  6
ByLayer
 10
6.7099761465716563
 20
3.4103147028974163
 30
0.0
 11
7.4912975986478259
 21
3.5949906824790565
 31
0.0
  0
LINE
  5
98
100
AcDbEntity
100
AcDbLine
  8
0
 62
150
370
-1
  6
ByLayer
 10
5.4417413510516104
 20
2.832933617955355
 30
0.0
 11
6.7099761465716563
 21
3.4103147028974163
 31
0.0
  0
LINE
  5
99
100
AcDbEntity
100
AcDbLine
  8
0
 62
150
370
-1
  6
ByLayer
 10
0.3932516257720327
 20
-1.3781484498859031
 30
0.0
 11
0.0
 21
-1.1327184450066792
 31
0.0
  0
LINE
  5
9A
100
AcDbEntity
100
AcDbLine
  8
0
 62
150
370
-1
  6
ByLayer
 10
0.0
 20
-0.2105646745005814
 30
0.0
 11
0.2517051848763412
 21
-0.0441713309968881
 31
0.0
  0
LINE
  5
9B
100
AcDbEntity
100
AcDbLine
  8
0
 62
150
370
-1
  6
ByLayer
 10
17.3008582989305211
 20
4.4695203276149682
 30
0.0
 11
17.4999999999999929
 21
4.478193597044906
 31
0.0
  0
LINE
  5
9C
100
AcDbEntity
100
AcDbLine
  8
0
 62
150
370
-1
  6
ByLayer
 10
17.5
 20
4.3278651816375406
 30
0.0
 11
17.5
 21
-4.3278651816375389
 31
0.0
  0
LINE
  5
9D
100
AcDbEntity
100
AcDbLine
  8
0
 62
150
370
-1
  6
ByLayer
 10
17.5
 20
-4.3278651816375389
 30
0.0
 11
16.871792506165697
 21
-4.3096788604760805
 31
0.0
  0
LINE
  5
9E
100
AcDbEntity
100
AcDbLine
  8
0
 62
150
370
-1
  6
ByLayer
 10
16.8717925061656899
 20
4.3096788604760823
 30
0.0
 11
16.4412176895107223
 21
4.299719302801118
 31
0.0
  0
LINE
  5
9F
100
AcDbEntity
100
AcDbLine
  8
0
 62
150
370
-1
  6
ByLayer
 10
16.4412176895107223
 20
4.299719302801118
 30
0.0
 11
15.366792679726812
 21
4.2754743189661051
 31
0.0
  0
LINE
  5
A0
100
AcDbEntity
100
AcDbLine
  8
0
 62
150
370
-1
  6
ByLayer
 10
15.366792679726812
 20
4.2754743189661051
 30
0.0
 11
14.6641911564748604
 21
4.2541467813187088
 31
0.0
  0
LINE
  5
A1
100
AcDbEntity
100
AcDbLine
  8
0
 62
150
370
-1
  6
ByLayer
 10
14.6641911564748604
 20
4.2541467813187088
 30
0.0
 11
14.1412640777429512
 21
4.2305054070397583
 31
0.0
  0
LINE
  5
A2
100
AcDbEntity
100
AcDbLine
  8
0
 62
150
370
-1
  6
ByLayer
 10
14.1412640777429512
 20
4.2305054070397583
 30
0.0
 11
13.6829232215092933
 21
4.1995201164954272
 31
0.0
  0
LINE
  5
A3
100
AcDbEntity
100
AcDbLine
  8
0
 62
150
370
-1
  6
ByLayer
 10
13.6829232215092933
 20
4.1995201164954272
 30
0.0
 11
13.4833296616393241
 21
4.1839268696305867
 31
0.0
  0
LINE
  5
A4
100
AcDbEntity
100
AcDbLine
  8
0
 62
150
370
-1
  6
ByLayer
 10
13.4833296616393241
 20
4.1839268696305867
 30
0.0
 11
13.3032528107485764
 21
4.170848662582654
 31
0.0
  0
LINE
  5
A5
100
AcDbEntity
100
AcDbLine
  8
0
 62
150
370
-1
  6
ByLayer
 10
13.3032528107485764
 20
4.170848662582654
 30
0.0
 11
13.1520486169559536
 21
4.1607885033150174
 31
0.0
  0
LINE
  5
A6
100
AcDbEntity
100
AcDbLine
  8
0
 62
150
370
-1
  6
ByLayer
 10
13.1520486169559536
 20
4.1607885033150174
 30
0.0
 11
13.1030556413225483
 21
4.1595812842028996
 31
0.0
  0
LINE
  5
A7
100
AcDbEntity
100
AcDbLine
  8
0
 62
150
370
-1
  6
ByLayer
 10
13.1030556413225483
 20
4.1595812842028996
 30
0.0
 11
12.951650244344572
 21
4.1555572204958446
 31
0.0
  0
LINE
  5
A8
100
AcDbEntity
100
AcDbLine
  8
0
 62
150
370
-1
  6
ByLayer
 10
12.951650244344572
 20
4.1555572204958446
 30
0.0
 11
11.6928225151848295
 21
4.0700458667209025
 31
0.0
  0
LINE
  5
A9
100
AcDbEntity
100
AcDbLine
  8
0
 62
150
370
-1
  6
ByLayer
 10
11.6928225151848295
 20
4.0700458667209025
 30
0.0
 11
10.5255422353606054
 21
3.9889609830237314
 31
0.0
  0
LINE
  5
AA
100
AcDbEntity
100
AcDbLine
  8
0
 62
150
370
-1
  6
ByLayer
 10
10.5255422353606054
 20
3.9889609830237314
 30
0.0
 11
9.768314047285374
 21
3.9320204815688919
 31
0.0
  0
LINE
  5
AB
100
AcDbEntity
100
AcDbLine
  8
0
 62
150
370
-1
  6
ByLayer
 10
9.768314047285374
 20
3.9320204815688919
 30
0.0
 11
7.9632196698927995
 21
3.7321251169208898
 31
0.0
  0
LINE
  5
AC
100
AcDbEntity
100
AcDbLine
  8
0
 62
150
370
-1
  6
ByLayer
 10
7.9632196698927995
 20
3.7321251169208898
 30
0.0
 11
6.2695918571856719
 21
3.4279059006674677
 31
0.0
  0
LINE
  5
AD
100
AcDbEntity
100
AcDbLine
  8
0
 62
150
370
-1
  6
ByLayer
 10
6.2695918571856719
 20
3.4279059006674677
 30
0.0
 11
4.5991024107941172
 21
3.0005503349781373
 31
0.0
  0
LINE
  5
AE
100
AcDbEntity
100
AcDbLine
  8
0
 62
150
370
-1
  6
ByLayer
 10
4.5991024107941172
 20
3.0005503349781373
 30
0.0
 11
2.8634231323482577
 21
2.4304411092810021
 31
0.0
  0
LINE
  5
AF
100
AcDbEntity
100
AcDbLine
  8
0
 62
150
370
-1
  6
ByLayer
 10
2.8634231323482577
 20
2.4304411092810021
 30
0.0
 11
2.6509525686157094
 21
2.3524748749567932
 31
0.0
  0
LINE
  5
B0
100
AcDbEntity
100
AcDbLine
  8
0
 62
150
370
-1
  6
ByLayer
 10
2.6509525686157094
 20
2.3524748749567932
 30
0.0
 11
2.4471337418533299
 21
2.2758164613373797
 31
0.0
  0
LINE
  5
B1
100
AcDbEntity
100
AcDbLine
  8
0
 62
150
370
-1
  6
ByLayer
 10
2.4471337418533299
 20
2.2758164613373797
 30
0.0
 11
2.2741996040426073
 21
2.2090170038002519
 31
0.0
  0
LINE
  5
B2
100
AcDbEntity
100
AcDbLine
  8
0
 62
150
370
-1
  6
ByLayer
 10
2.2741996040426073
 20
2.2090170038002519
 30
0.0
 11
2.1842617801899085
 21
2.1714926097319553
 31
0.0
  0
LINE
  5
B3
100
AcDbEntity
100
AcDbLine
  8
0
 62
150
370
-1
  6
ByLayer
 10
2.1842617801899085
 20
2.1714926097319553
 30
0.0
 11
2.1230960118426587
 21
2.1453361956360952
 31
0.0
  0
LINE
  5
B4
100
AcDbEntity
100
AcDbLine
  8
0
 62
150
370
-1
  6
ByLayer
 10
2.1230960118426587
 20
2.1453361956360952
 30
0.0
 11
2.0663567135731675
 21
2.1232038452472874
 31
0.0
  0
LINE
  5
B5
100
AcDbEntity
100
AcDbLine
  8
0
 62
150
370
-1
  6
ByLayer
 10
2.0663567135731675
 20
2.1232038452472874
 30
0.0
 11
2.0185709570518835
 21
2.1064033792703265
 31
0.0
  0
LINE
  5
B6
100
AcDbEntity
100
AcDbLine
  8
0
 62
150
370
-1
  6
ByLayer
 10
2.0185709570518835
 20
2.1064033792703265
 30
0.0
 11
2.0137420806034179
 21
2.1049949569728588
 31
0.0
  0
LINE
  5
B7
100
AcDbEntity
100
AcDbLine
  8
0
 62
150
370
-1
  6
ByLayer
 10
2.0137420806034179
 20
2.1049949569728588
 30
0.0
 11
2.0088126025622728
 21
2.1039889410460964
 31
0.0
  0
LINE
  5
B8
100
AcDbEntity
100
AcDbLine
  8
0
 62
150
370
-1
  6
ByLayer
 10
2.0088126025622728
 20
2.1039889410460964
 30
0.0
 11
2.0038831245211313
 21
2.1033853314900357
 31
0.0
  0
LINE
  5
B9
100
AcDbEntity
100
AcDbLine
  8
0
 62
150
370
-1
  6
ByLayer
 10
2.0038831245211313
 20
2.1033853314900357
 30
0.0
 11
1.9988530448873103
 21
2.1031841283046839
 31
0.0
  0
LINE
  5
BA
100
AcDbEntity
100
AcDbLine
  8
0
 62
150
370
-1
  6
ByLayer
 10
1.9988530448873103
 20
2.1031841283046839
 30
0.0
 11
1.983762805985851
 21
2.1024799171559527
 31
0.0
  0
LINE
  5
BB
100
AcDbEntity
100
AcDbLine
  8
0
 62
150
370
-1
  6
ByLayer
 10
1.983762805985851
 20
2.1024799171559527
 30
0.0
 11
1.9687731686770658
 21
2.1006690884877743
 31
0.0
  0
LINE
  5
BC
100
AcDbEntity
100
AcDbLine
  8
0
 62
150
370
-1
  6
ByLayer
 10
1.9687731686770658
 20
2.1006690884877743
 30
0.0
 11
1.9539847345536376
 21
2.0975504391148085
 31
0.0
  0
LINE
  5
BD
100
AcDbEntity
100
AcDbLine
  8
0
 62
150
370
-1
  6
ByLayer
 10
1.9539847345536376
 20
2.0975504391148085
 30
0.0
 11
1.9395987068009131
 21
2.0933251722223982
 31
0.0
  0
LINE
  5
BE
100
AcDbEntity
100
AcDbLine
  8
0
 62
150
370
-1
  6
ByLayer
 10
1.9395987068009131
 20
2.0933251722223982
 30
0.0
 11
1.9255144838262197
 21
2.0878926862178728
 31
0.0
  0
LINE
  5
BF
100
AcDbEntity
100
AcDbLine
  8
0
 62
150
370
-1
  6
ByLayer
 10
1.9255144838262197
 20
2.0878926862178728
 30
0.0
 11
1.3587251106874021
 21
1.8396079554925286
 31
0.0
  0
LINE
  5
C0
100
AcDbEntity
100
AcDbLine
  8
0
 62
150
370
-1
  6
ByLayer
 10
1.3587251106874021
 20
1.8396079554925286
 30
0.0
 11
0.8392184861064944
 21
1.6074194795954044
 31
0.0
  0
LINE
  5
C1
100
AcDbEntity
100
AcDbLine
  8
0
 62
150
370
-1
  6
ByLayer
 10
0.8392184861064944
 20
1.6074194795954044
 30
0.0
 11
0.5522021422007359
 21
1.4668790546264772
 31
0.0
  0
LINE
  5
C2
100
AcDbEntity
100
AcDbLine
  8
0
 62
150
370
-1
  6
ByLayer
 10
0.5522021422007359
 20
1.4668790546264772
 30
0.0
 11
0.3932516257720309
 21
1.3781484498858996
 31
0.0
  0
LINE
  5
C3
100
AcDbEntity
100
AcDbLine
  8
0
 62
150
370
-1
  6
ByLayer
 10
17.5
 20
4.3278651816375406
 30
0.0
 11
16.8717925061656899
 21
4.3096788604760823
 31
0.0
  0
LINE
  5
C4
100
AcDbEntity
100
AcDbLine
  8
0
 62
150
370
-1
  6
ByLayer
 10
0.3932516257720309
 20
1.3781484498858996
 30
0.0
 11
0.0
 21
1.1327184450066756
 31
0.0
  0
LINE
  5
C5
100
AcDbEntity
100
AcDbLine
  8
0
 62
150
370
-1
  6
ByLayer
 10
0.0
 20
1.1327184450066756
 30
0.0
 11
0.0
 21
0.0
 31
0.0
  0
LINE
  5
C6
100
AcDbEntity
100
AcDbLine
  8
0
 62
256
370
-1
  6
ByLayer
 10
17.5
 20
0.0
 30
0.0
 11
0.0
 21
0.0
 31
0.0
  0
ENDSEC
  0
SECTION
  2
OBJECTS
  0
DICTIONARY
  5
C
100
AcDbDictionary
280
0
281
1
  3
ACAD_GROUP
350
D
  3
ACAD_LAYOUT
350
1A
  3
ACAD_MLINESTYLE
350
17
  3
ACAD_PLOTSETTINGS
350
19
  3
ACAD_PLOTSTYLENAME
350
E
  3
AcDbVariableDictionary
350
C7
  0
DICTIONARY
  5
D
100
AcDbDictionary
280
0
281
1
  0
ACDBDICTIONARYWDFLT
  5
E
100
AcDbDictionary
281
1
  3
Normal
350
F
100
AcDbDictionaryWithDefault
340
F
  0
ACDBPLACEHOLDER
  5
F
  0
DICTIONARY
  5
17
100
AcDbDictionary
280
0
281
1
  3
Standard
350
18
  0
MLINESTYLE
  5
18
100
AcDbMlineStyle
  2
STANDARD
 70
0
  3

 62
256
 51
90.0
 52
90.0
 71
2
 49
0.5
 62
256
  6
BYLAYER
 49
-0.5
 62
256
  6
BYLAYER
  0
DICTIONARY
  5
19
100
AcDbDictionary
280
0
281
1
  0
DICTIONARY
  5
1A
100
AcDbDictionary
281
1
  3
Layout1
350
1E
  3
Layout2
350
26
  3
Model
350
22
  0
LAYOUT
  5
1E
100
AcDbPlotSettings
  1

  2
C:\Program Files\AutoCAD 2002\plotters\DWF ePlot (optimized for plotting).pc3
  4

  6

 40
0.0
 41
0.0
 42
0.0
 43
0.0
 44
0.0
 45
0.0
 46
0.0
 47
0.0
 48
0.0
 49
0.0
140
0.0
141
0.0
142
1.0
143
1.0
 70
688
 72
0
 73
0
 74
5
  7

 75
16
147
1.0
148
0.0
149
0.0
100
AcDbLayout
  1
Layout1
 70
1
 71
1
 10
0.0
 20
0.0
 11
420.0
 21
297.0
 12
0.0
 22
0.0
 32
0.0
 14
100000000000000000000.0
 24
100000000000000000000.0
 34
100000000000000000000.0
 15
-100000000000000000000.0
 25
-100000000000000000000.0
 35
-100000000000000000000.0
146
0.0
 13
0.0
 23
0.0
 33
0.0
 16
1.0
 26
0.0
 36
0.0
 17
0.0
 27
1.0
 37
0.0
 76
0
330
1B
  0
LAYOUT
  5
22
100
AcDbPlotSettings
  1

  2
C:\Program Files\AutoCAD 2002\plotters\DWF ePlot (optimized for plotting).pc3
  4

  6

 40
0.0
 41
0.0
 42
0.0
 43
0.0
 44
0.0
 45
0.0
 46
0.0
 47
0.0
 48
0.0
 49
0.0
140
0.0
141
0.0
142
1.0
143
1.0
 70
1712
 72
0
 73
0
 74
0
  7

 75
0
147
1.0
148
0.0
149
0.0
100
AcDbLayout
  1
Model
 70
1
 71
0
 10
0.0
 20
0.0
 11
12.0
 21
9.0
 12
0.0
 22
0.0
 32
0.0
 14
0.0
 24
0.0
 34
0.0
 15
0.0
 25
0.0
 35
0.0
146
0.0
 13
0.0
 23
0.0
 33
0.0
 16
1.0
 26
0.0
 36
0.0
 17
0.0
 27
1.0
 37
0.0
 76
0
330
1F
  0
LAYOUT
  5
26
100
AcDbPlotSettings
  1

  2
C:\Program Files\AutoCAD 2002\plotters\DWF ePlot (optimized for plotting).pc3
  4

  6

 40
0.0
 41
0.0
 42
0.0
 43
0.0
 44
0.0
 45
0.0
 46
0.0
 47
0.0
 48
0.0
 49
0.0
140
0.0
141
0.0
142
1.0
143
1.0
 70
688
 72
0
 73
0
 74
5
  7

 75
16
147
1.0
148
0.0
149
0.0
100
AcDbLayout
  1
Layout2
 70
1
 71
2
 10
0.0
 20
0.0
 11
12.0
 21
9.0
 12
0.0
 22
0.0
 32
0.0
 14
0.0
 24
0.0
 34
0.0
 15
0.0
 25
0.0
 35
0.0
146
0.0
 13
0.0
 23
0.0
 33
0.0
 16
1.0
 26
0.0
 36
0.0
 17
0.0
 27
1.0
 37
0.0
 76
0
330
23
  0
DICTIONARY
  5
C7
100
AcDbDictionary
281
1
  3
DIMASSOC
350
C9
  3
HIDETEXT
350
C8
  0
DICTIONARYVAR
  5
C8
100
DictionaryVariables
280
0
  1
2
  0
DICTIONARYVAR
  5
C9
100
DictionaryVariables
280
0
  1
1
  0
ENDSEC
  0
EOF
