999
dxfrw 0.6.3
  0
SECTION
  2
HEADER
  9
$ACADVER
  1
AC1021
  9
$DWGCODEPAGE
  3
ANSI_1252
  9
$INSBASE
 10
0
 20
0
 30
0
  9
$EXTMIN
 10
-7.535240432568795
 20
-49.24938401825943
 30
0
  9
$EXTMAX
 10
30.67789768606018
 20
12.8504169303794
 30
0
  9
$LIMMIN
 10
0
 20
0
  9
$LIMMAX
 10
420
 20
297
  9
$ORTHOMODE
 70
    0
  9
$REGENMODE
 70
    1
  9
$FILLMODE
 70
    1
  9
$QTEXTMODE
 70
    0
  9
$MIRRTEXT
 70
    0
  9
$LTSCALE
 40
1
  9
$ATTMODE
 70
    0
  9
$TEXTSIZE
 40
2.5
  9
$TRACEWID
 40
15.68
  9
$TEXTSTYLE
  7
STANDARD
  9
$CLAYER
  8
misure
  9
$CELTYPE
  6
BYLAYER
  9
$CECOLOR
 62
  256
  9
$CELTSCALE
 40
1
  9
$DISPSILH
 70
    0
  9
$DIMSCALE
 40
1
  9
$DIMASZ
 40
2.5
  9
$DIMEXO
 40
0.625
  9
$DIMDLI
 40
3.75
  9
$DIMRND
 40
0
  9
$DIMDLE
 40
0
  9
$DIMEXE
 40
1.25
  9
$DIMTP
 40
0
  9
$DIMTM
 40
0
  9
$DIMTXT
 40
2.5
  9
$DIMCEN
 40
2.5
  9
$DIMTSZ
 40
0
  9
$DIMTOL
 70
    0
  9
$DIMLIM
 70
    0
  9
$DIMTIH
 70
    0
  9
$DIMTOH
 70
    0
  9
$DIMSE1
 70
    0
  9
$DIMSE2
 70
    0
  9
$DIMTAD
 70
    1
  9
$DIMZIN
 70
    8
  9
$DIMBLK
  1

  9
$DIMASO
 70
    1
  9
$DIMSHO
 70
    1
  9
$DIMPOST
  1

  9
$DIMAPOST
  1

  9
$DIMALT
 70
    0
  9
$DIMALTD
 70
    3
  9
$DIMALTF
 40
0.03937
  9
$DIMLFAC
 40
1
  9
$DIMTOFL
 70
    1
  9
$DIMTVP
 40
0
  9
$DIMTIX
 70
    0
  9
$DIMSOXD
 70
    0
  9
$DIMSAH
 70
    0
  9
$DIMBLK1
  1

  9
$DIMBLK2
  1

  9
$DIMSTYLE
  2
STANDARD
  9
$DIMCLRD
 70
    0
  9
$DIMCLRE
 70
    0
  9
$DIMCLRT
 70
    0
  9
$DIMTFAC
 40
1
  9
$DIMGAP
 40
0.625
  9
$DIMJUST
 70
    0
  9
$DIMSD1
 70
    0
  9
$DIMSD2
 70
    0
  9
$DIMTOLJ
 70
    0
  9
$DIMTZIN
 70
    8
  9
$DIMALTZ
 70
    0
  9
$DIMALTTZ
 70
    0
  9
$DIMUPT
 70
    0
  9
$DIMDEC
 70
    4
  9
$DIMTDEC
 70
    2
  9
$DIMALTU
 70
    2
  9
$DIMALTTD
 70
    3
  9
$DIMTXSTY
  7
standard
  9
$DIMAUNIT
 70
    0
  9
$DIMADEC
 70
    2
  9
$DIMALTRND
 40
0
  9
$DIMAZIN
 70
    0
  9
$DIMDSEP
 70
   44
  9
$DIMATFIT
 70
    3
  9
$DIMFRAC
 70
    0
  9
$DIMLDRBLK
  1
STANDARD
  9
$DIMLUNIT
 70
    2
  9
$DIMLWD
 70
   -2
  9
$DIMLWE
 70
   -2
  9
$DIMTMOVE
 70
    0
  9
$DIMFXL
 40
1
  9
$DIMFXLON
 70
    0
  9
$DIMJOGANG
 40
0.7854
  9
$DIMTFILL
 70
    0
  9
$DIMTFILLCLR
 70
    0
  9
$DIMARCSYM
 70
    0
  9
$DIMLTYPE
  6

  9
$DIMLTEX1
  6

  9
$DIMLTEX2
  6

  9
$LUNITS
 70
    2
  9
$LUPREC
 70
    0
  9
$SKETCHINC
 40
1
  9
$FILLETRAD
 40
0
  9
$AUNITS
 70
    0
  9
$AUPREC
 70
    2
  9
$MENU
  1
.
  9
$ELEVATION
 40
0
  9
$PELEVATION
 40
0
  9
$THICKNESS
 40
0
  9
$LIMCHECK
 70
    0
  9
$CHAMFERA
 40
0
  9
$CHAMFERB
 40
0
  9
$CHAMFERC
 40
0
  9
$CHAMFERD
 40
0
  9
$SKPOLY
 70
    0
  9
$USRTIMER
 70
    1
  9
$ANGBASE
 50
0
  9
$ANGDIR
 70
    0
  9
$PDMODE
 70
   34
  9
$PDSIZE
 40
0
  9
$PLINEWID
 40
0
  9
$SPLFRAME
 70
    0
  9
$SPLINETYPE
 70
    2
  9
$SPLINESEGS
 70
    8
  9
$HANDSEED
  5
20000
  9
$SURFTAB1
 70
    6
  9
$SURFTAB2
 70
    6
  9
$SURFTYPE
 70
    6
  9
$SURFU
 70
    6
  9
$SURFV
 70
    6
  9
$UCSBASE
  2

  9
$UCSNAME
  2

  9
$UCSORG
 10
0
 20
0
 30
0
  9
$UCSXDIR
 10
1
 20
0
 30
0
  9
$UCSYDIR
 10
0
 20
1
 30
0
  9
$UCSORTHOREF
  2

  9
$UCSORTHOVIEW
 70
    0
  9
$UCSORGTOP
 10
0
 20
0
 30
0
  9
$UCSORGBOTTOM
 10
0
 20
0
 30
0
  9
$UCSORGLEFT
 10
0
 20
0
 30
0
  9
$UCSORGRIGHT
 10
0
 20
0
 30
0
  9
$UCSORGFRONT
 10
0
 20
0
 30
0
  9
$UCSORGBACK
 10
0
 20
0
 30
0
  9
$PUCSBASE
  2

  9
$PUCSNAME
  2

  9
$PUCSORG
 10
0
 20
0
 30
0
  9
$PUCSXDIR
 10
1
 20
0
 30
0
  9
$PUCSYDIR
 10
0
 20
1
 30
0
  9
$PUCSORTHOREF
  2

  9
$PUCSORTHOVIEW
 70
    0
  9
$PUCSORGTOP
 10
0
 20
0
 30
0
  9
$PUCSORGBOTTOM
 10
0
 20
0
 30
0
  9
$PUCSORGLEFT
 10
0
 20
0
 30
0
  9
$PUCSORGRIGHT
 10
0
 20
0
 30
0
  9
$PUCSORGFRONT
 10
0
 20
0
 30
0
  9
$PUCSORGBACK
 10
0
 20
0
 30
0
  9
$USERI1
 70
    0
  9
$USERI2
 70
    0
  9
$USERI3
 70
    0
  9
$USERI4
 70
    0
  9
$USERI5
 70
    0
  9
$USERR1
 40
0
  9
$USERR2
 40
0
  9
$USERR3
 40
0
  9
$USERR4
 40
0
  9
$USERR5
 40
0
  9
$WORLDVIEW
 70
    1
  9
$SHADEDGE
 70
    3
  9
$SHADEDIF
 70
   70
  9
$TILEMODE
 70
    1
  9
$MAXACTVP
 70
   64
  9
$PINSBASE
 10
0
 20
0
 30
0
  9
$PLIMCHECK
 70
    0
  9
$PEXTMIN
 10
0
 20
0
 30
0
  9
$PEXTMAX
 10
0
 20
0
 30
0
  9
$GRIDMODE
 70
    0
  9
$SNAPSTYLE
 70
    0
  9
$GRIDUNIT
 10
0
 20
0
  9
$PLIMMIN
 10
0
 20
0
  9
$PLIMMAX
 10
2.97e-16
 20
2.1e-16
  9
$UNITMODE
 70
    0
  9
$VISRETAIN
 70
    1
  9
$PLINEGEN
 70
    0
  9
$PSLTSCALE
 70
    1
  9
$TREEDEPTH
 70
 3020
  9
$CMLSTYLE
  2
Standard
  9
$CMLJUST
 70
    0
  9
$CMLSCALE
 40
20
  9
$PROXYGRAPHICS
 70
    1
  9
$MEASUREMENT
 70
    1
  9
$CELWEIGHT
370
   -1
  9
$ENDCAPS
280
    0
  9
$JOINSTYLE
280
    0
  9
$LWDISPLAY
290
    0
  9
$INSUNITS
 70
    6
  9
$HYPERLINKBASE
  1

  9
$STYLESHEET
  1

  9
$XEDIT
290
    1
  9
$CEPSNTYPE
380
    0
  9
$PSTYLEMODE
290
    1
  9
$EXTNAMES
290
    1
  9
$PSVPSCALE
 40
1
  9
$OLESTARTUP
290
    0
  9
$SORTENTS
280
  127
  9
$INDEXCTL
280
    0
  9
$HIDETEXT
280
    1
  9
$XCLIPFRAME
290
    0
  9
$HALOGAP
280
    0
  9
$OBSCOLOR
 70
  257
  9
$OBSLTYPE
280
    0
  9
$INTERSECTIONDISPLAY
280
    0
  9
$INTERSECTIONCOLOR
 70
  257
  9
$DIMASSOC
280
    1
  9
$PROJECTNAME
  1

  9
$CAMERADISPLAY
290
    0
  9
$LENSLENGTH
 40
50
  9
$CAMERAHEIGHT
 40
0
  9
$STEPSPERSEC
 40
2
  9
$STEPSIZE
 40
50
  9
$3DDWFPREC
 40
2
  9
$PSOLWIDTH
 40
5
  9
$PSOLHEIGHT
 40
80
  9
$LOFTANG1
 40
1.570796326794897
  9
$LOFTANG2
 40
1.570796326794897
  9
$LOFTMAG1
 40
0
  9
$LOFTMAG2
 40
0
  9
$LOFTPARAM
 70
    7
  9
$LOFTNORMALS
280
    1
  9
$LATITUDE
 40
1
  9
$LONGITUDE
 40
1
  9
$NORTHDIRECTION
 40
0
  9
$TIMEZONE
 70
-8000
  9
$LIGHTGLYPHDISPLAY
280
    1
  9
$TILEMODELIGHTSYNCH
280
    1
  9
$SOLIDHIST
280
    1
  9
$SHOWHIST
280
    1
  9
$DWFFRAME
280
    2
  9
$DGNFRAME
280
    0
  9
$REALWORLDSCALE
290
    1
  9
$INTERFERECOLOR
 62
    1
  9
$CSHADOW
280
    0
  9
$SHADOWPLANELOCATION
 40
0
  0
ENDSEC
  0
SECTION
  2
CLASSES
  0
ENDSEC
  0
SECTION
  2
TABLES
  0
TABLE
  2
VPORT
  5
8
330
0
100
AcDbSymbolTable
 70
    1
  0
VPORT
  5
31
330
2
100
AcDbSymbolTableRecord
100
AcDbViewportTableRecord
  2
*ACTIVE
 70
    0
 10
0
 20
0
 11
1
 21
1
 12
20.68250685618469
 22
5.398742598489386
 13
0
 23
0
 14
10
 24
10
 15
10
 25
10
 16
0
 26
0
 36
1
 17
0
 27
0
 37
0
 40
42.73370901902866
 41
1.795373665480427
 42
50
 43
0
 44
0
 50
0
 51
0
 71
    0
 72
  100
 73
    1
 74
    3
 75
    0
 76
    0
 77
    0
 78
    0
281
    0
 65
    1
110
0
120
0
130
0
111
1
121
0
131
0
112
0
122
1
132
0
 79
    0
146
0
348
10020
 60
    7
 61
    5
292
1
282
    1
141
0
142
0
 63
  250
421
3358443
  0
ENDTAB
  0
TABLE
  2
LTYPE
  5
5
330
0
100
AcDbSymbolTable
 70
    4
  0
LTYPE
  5
14
330
5
100
AcDbSymbolTableRecord
100
AcDbLinetypeTableRecord
  2
ByBlock
 70
    0
  3

 72
   65
 73
    0
 40
0
  0
LTYPE
  5
15
330
5
100
AcDbSymbolTableRecord
100
AcDbLinetypeTableRecord
  2
ByLayer
 70
    0
  3

 72
   65
 73
    0
 40
0
  0
LTYPE
  5
16
330
5
100
AcDbSymbolTableRecord
100
AcDbLinetypeTableRecord
  2
Continuous
 70
    0
  3
Solid line
 72
   65
 73
    0
 40
0
  0
LTYPE
  5
32
330
5
100
AcDbSymbolTableRecord
100
AcDbLinetypeTableRecord
  2
DOT
 70
    0
  3
Dot . . . . . . . . . . . . . . . . . . . . . .
 72
   65
 73
    2
 40
6.35
 49
0
 74
    0
 49
-6.35
 74
    0
  0
LTYPE
  5
33
330
5
100
AcDbSymbolTableRecord
100
AcDbLinetypeTableRecord
  2
DOTTINY
 70
    0
  3
Dot (.15x) .....................................
 72
   65
 73
    2
 40
0.9525
 49
0
 74
    0
 49
-0.9525
 74
    0
  0
LTYPE
  5
34
330
5
100
AcDbSymbolTableRecord
100
AcDbLinetypeTableRecord
  2
DOT2
 70
    0
  3
Dot (.5x) .....................................
 72
   65
 73
    2
 40
3.175
 49
0
 74
    0
 49
-3.175
 74
    0
  0
LTYPE
  5
35
330
5
100
AcDbSymbolTableRecord
100
AcDbLinetypeTableRecord
  2
DOTX2
 70
    0
  3
Dot (2x) .  .  .  .  .  .  .  .  .  .  .  .  .
 72
   65
 73
    2
 40
12.7
 49
0
 74
    0
 49
-12.7
 74
    0
  0
LTYPE
  5
36
330
5
100
AcDbSymbolTableRecord
100
AcDbLinetypeTableRecord
  2
DASHED
 70
    0
  3
Dashed _ _ _ _ _ _ _ _ _ _ _ _ _ _ _ _ _
 72
   65
 73
    2
 40
19.05
 49
12.7
 74
    0
 49
-6.35
 74
    0
  0
LTYPE
  5
37
330
5
100
AcDbSymbolTableRecord
100
AcDbLinetypeTableRecord
  2
DASHEDTINY
 70
    0
  3
Dashed (.15x) _ _ _ _ _ _ _ _ _ _ _ _ _ _ _ _ _
 72
   65
 73
    2
 40
2.8575
 49
1.905
 74
    0
 49
-0.9525
 74
    0
  0
LTYPE
  5
38
330
5
100
AcDbSymbolTableRecord
100
AcDbLinetypeTableRecord
  2
DASHED2
 70
    0
  3
Dashed (.5x) _ _ _ _ _ _ _ _ _ _ _ _ _ _ _ _ _
 72
   65
 73
    2
 40
9.524999999999999
 49
6.35
 74
    0
 49
-3.175
 74
    0
  0
LTYPE
  5
39
330
5
100
AcDbSymbolTableRecord
100
AcDbLinetypeTableRecord
  2
DASHEDX2
 70
    0
  3
Dashed (2x) ____  ____  ____  ____  ____  ___
 72
   65
 73
    2
 40
38.09999999999999
 49
25.4
 74
    0
 49
-12.7
 74
    0
  0
LTYPE
  5
3A
330
5
100
AcDbSymbolTableRecord
100
AcDbLinetypeTableRecord
  2
DASHDOT
 70
    0
  3
Dash dot __ . __ . __ . __ . __ . __ . __ . __
 72
   65
 73
    4
 40
25.4
 49
12.7
 74
    0
 49
-6.35
 74
    0
 49
0
 74
    0
 49
-6.35
 74
    0
  0
LTYPE
  5
3B
330
5
100
AcDbSymbolTableRecord
100
AcDbLinetypeTableRecord
  2
DASHDOTTINY
 70
    0
  3
Dash dot (.15x) _._._._._._._._._._._._._._._.
 72
   65
 73
    4
 40
3.81
 49
1.905
 74
    0
 49
-0.9525
 74
    0
 49
0
 74
    0
 49
-0.9525
 74
    0
  0
LTYPE
  5
3C
330
5
100
AcDbSymbolTableRecord
100
AcDbLinetypeTableRecord
  2
DASHDOT2
 70
    0
  3
Dash dot (.5x) _._._._._._._._._._._._._._._.
 72
   65
 73
    4
 40
12.7
 49
6.35
 74
    0
 49
-3.175
 74
    0
 49
0
 74
    0
 49
-3.175
 74
    0
  0
LTYPE
  5
3D
330
5
100
AcDbSymbolTableRecord
100
AcDbLinetypeTableRecord
  2
DASHDOTX2
 70
    0
  3
Dash dot (2x) ____  .  ____  .  ____  .  ___
 72
   65
 73
    4
 40
50.8
 49
25.4
 74
    0
 49
-12.7
 74
    0
 49
0
 74
    0
 49
-12.7
 74
    0
  0
LTYPE
  5
3E
330
5
100
AcDbSymbolTableRecord
100
AcDbLinetypeTableRecord
  2
DIVIDE
 70
    0
  3
Divide ____ . . ____ . . ____ . . ____ . . ____
 72
   65
 73
    6
 40
31.75
 49
12.7
 74
    0
 49
-6.35
 74
    0
 49
0
 74
    0
 49
-6.35
 74
    0
 49
0
 74
    0
 49
-6.35
 74
    0
  0
LTYPE
  5
3F
330
5
100
AcDbSymbolTableRecord
100
AcDbLinetypeTableRecord
  2
DIVIDETINY
 70
    0
  3
Divide (.15x) __..__..__..__..__..__..__..__.._
 72
   65
 73
    6
 40
4.7625
 49
1.905
 74
    0
 49
-0.9525
 74
    0
 49
0
 74
    0
 49
-0.9525
 74
    0
 49
0
 74
    0
 49
-0.9525
 74
    0
  0
LTYPE
  5
40
330
5
100
AcDbSymbolTableRecord
100
AcDbLinetypeTableRecord
  2
DIVIDE2
 70
    0
  3
Divide (.5x) __..__..__..__..__..__..__..__.._
 72
   65
 73
    6
 40
15.875
 49
6.35
 74
    0
 49
-3.175
 74
    0
 49
0
 74
    0
 49
-3.175
 74
    0
 49
0
 74
    0
 49
-3.175
 74
    0
  0
LTYPE
  5
41
330
5
100
AcDbSymbolTableRecord
100
AcDbLinetypeTableRecord
  2
DIVIDEX2
 70
    0
  3
Divide (2x) ________  .  .  ________  .  .  _
 72
   65
 73
    6
 40
63.5
 49
25.4
 74
    0
 49
-12.7
 74
    0
 49
0
 74
    0
 49
-12.7
 74
    0
 49
0
 74
    0
 49
-12.7
 74
    0
  0
LTYPE
  5
42
330
5
100
AcDbSymbolTableRecord
100
AcDbLinetypeTableRecord
  2
BORDER
 70
    0
  3
Border __ __ . __ __ . __ __ . __ __ . __ __ .
 72
   65
 73
    6
 40
44.45
 49
12.7
 74
    0
 49
-6.35
 74
    0
 49
12.7
 74
    0
 49
-6.35
 74
    0
 49
0
 74
    0
 49
-6.35
 74
    0
  0
LTYPE
  5
43
330
5
100
AcDbSymbolTableRecord
100
AcDbLinetypeTableRecord
  2
BORDERTINY
 70
    0
  3
Border (.15x) __.__.__.__.__.__.__.__.__.__.__.
 72
   65
 73
    6
 40
6.6675
 49
1.905
 74
    0
 49
-0.9525
 74
    0
 49
1.905
 74
    0
 49
-0.9525
 74
    0
 49
0
 74
    0
 49
-0.9525
 74
    0
  0
LTYPE
  5
44
330
5
100
AcDbSymbolTableRecord
100
AcDbLinetypeTableRecord
  2
BORDER2
 70
    0
  3
Border (.5x) __.__.__.__.__.__.__.__.__.__.__.
 72
   65
 73
    6
 40
22.225
 49
6.35
 74
    0
 49
-3.175
 74
    0
 49
6.35
 74
    0
 49
-3.175
 74
    0
 49
0
 74
    0
 49
-3.175
 74
    0
  0
LTYPE
  5
45
330
5
100
AcDbSymbolTableRecord
100
AcDbLinetypeTableRecord
  2
BORDERX2
 70
    0
  3
Border (2x) ____  ____  .  ____  ____  .  ___
 72
   65
 73
    6
 40
88.89999999999999
 49
25.4
 74
    0
 49
-12.7
 74
    0
 49
25.4
 74
    0
 49
-12.7
 74
    0
 49
0
 74
    0
 49
-12.7
 74
    0
  0
LTYPE
  5
46
330
5
100
AcDbSymbolTableRecord
100
AcDbLinetypeTableRecord
  2
CENTER
 70
    0
  3
Center ____ _ ____ _ ____ _ ____ _ ____ _ ____
 72
   65
 73
    4
 40
50.8
 49
31.75
 74
    0
 49
-6.35
 74
    0
 49
6.35
 74
    0
 49
-6.35
 74
    0
  0
LTYPE
  5
47
330
5
100
AcDbSymbolTableRecord
100
AcDbLinetypeTableRecord
  2
CENTERTINY
 70
    0
  3
Center (.15x) ___ _ ___ _ ___ _ ___ _ ___ _ ___
 72
   65
 73
    4
 40
7.619999999999999
 49
4.7625
 74
    0
 49
-0.9525
 74
    0
 49
0.9525
 74
    0
 49
-0.9525
 74
    0
  0
LTYPE
  5
48
330
5
100
AcDbSymbolTableRecord
100
AcDbLinetypeTableRecord
  2
CENTER2
 70
    0
  3
Center (.5x) ___ _ ___ _ ___ _ ___ _ ___ _ ___
 72
   65
 73
    4
 40
28.575
 49
19.05
 74
    0
 49
-3.175
 74
    0
 49
3.175
 74
    0
 49
-3.175
 74
    0
  0
LTYPE
  5
49
330
5
100
AcDbSymbolTableRecord
100
AcDbLinetypeTableRecord
  2
CENTERX2
 70
    0
  3
Center (2x) ________  __  ________  __  _____
 72
   65
 73
    4
 40
101.6
 49
63.5
 74
    0
 49
-12.7
 74
    0
 49
12.7
 74
    0
 49
-12.7
 74
    0
  0
ENDTAB
  0
TABLE
  2
LAYER
  5
2
330
0
100
AcDbSymbolTable
 70
    1
  0
LAYER
  5
10
330
2
100
AcDbSymbolTableRecord
100
AcDbLayerTableRecord
  2
0
 70
    0
 62
    7
  6
CONTINUOUS
370
    0
390
F
  0
LAYER
  5
4A
330
2
100
AcDbSymbolTableRecord
100
AcDbLayerTableRecord
  2
misure
 70
    0
 62
    7
  6
CONTINUOUS
370
    0
390
F
  0
LAYER
  5
4B
330
2
100
AcDbSymbolTableRecord
100
AcDbLayerTableRecord
  2
misure2
 70
    1
 62
    7
  6
CONTINUOUS
370
    0
390
F
  0
LAYER
  5
4C
330
2
100
AcDbSymbolTableRecord
100
AcDbLayerTableRecord
  2
nascosto
 70
    1
 62
    7
  6
CONTINUOUS
370
    0
390
F
  0
ENDTAB
  0
TABLE
  2
STYLE
  5
3
330
0
100
AcDbSymbolTable
 70
    3
  0
STYLE
  5
4D
330
2
100
AcDbSymbolTableRecord
100
AcDbTextStyleTableRecord
  2
Standard
 70
    0
 40
0
 41
1
 50
0
 71
    0
 42
1
  3
txt
  4

  0
ENDTAB
  0
TABLE
  2
VIEW
  5
6
330
0
100
AcDbSymbolTable
 70
    0
  0
ENDTAB
  0
TABLE
  2
UCS
  5
7
330
0
100
AcDbSymbolTable
 70
    0
  0
ENDTAB
  0
TABLE
  2
APPID
  5
9
330
0
100
AcDbSymbolTable
 70
    1
  0
APPID
  5
12
330
9
100
AcDbSymbolTableRecord
100
AcDbRegAppTableRecord
  2
ACAD
 70
    0
  0
APPID
  5
4E
330
9
100
AcDbSymbolTableRecord
100
AcDbRegAppTableRecord
  2
LibreCad
 70
    0
  0
ENDTAB
  0
TABLE
  2
DIMSTYLE
  5
A
330
0
100
AcDbSymbolTable
 70
    1
100
AcDbDimStyleTable
 71
    1
  0
DIMSTYLE
105
4F
330
A
100
AcDbSymbolTableRecord
100
AcDbDimStyleTableRecord
  2
Standard
 70
    0
 40
1
 41
2.5
 42
0.625
 43
0.38
 44
1.25
 45
0
 46
0
 47
0
 48
0
 49
1
140
2.5
141
0.09
142
0
143
25.4
144
1
145
0
146
1
147
0.625
148
0
 71
    0
 72
    0
 73
    0
 74
    1
 75
    0
 76
    0
 77
    0
 78
    8
 79
    0
170
    0
171
    2
172
    0
173
    0
174
    0
175
    0
176
    0
177
    0
178
    0
179
    2
271
    4
272
    4
273
    2
274
    2
275
    0
276
    0
277
    2
278
   44
279
    0
280
    0
281
    0
282
    0
283
    1
284
    0
285
    0
286
    0
288
    0
289
    3
340
standard
341

371
   -2
372
   -2
  0
ENDTAB
  0
TABLE
  2
BLOCK_RECORD
  5
1
330
0
100
AcDbSymbolTable
 70
    2
  0
BLOCK_RECORD
  5
1F
330
1
100
AcDbSymbolTableRecord
100
AcDbBlockTableRecord
  2
*Model_Space
 70
    0
280
    1
281
    0
  0
BLOCK_RECORD
  5
1E
330
1
100
AcDbSymbolTableRecord
100
AcDbBlockTableRecord
  2
*Paper_Space
 70
    0
280
    1
281
    0
  0
BLOCK_RECORD
  5
50
330
1
100
AcDbSymbolTableRecord
100
AcDbBlockTableRecord
  2
*D9
 70
    0
280
    1
281
    0
  0
BLOCK_RECORD
  5
53
330
1
100
AcDbSymbolTableRecord
100
AcDbBlockTableRecord
  2
*D17
 70
    0
280
    1
281
    0
  0
BLOCK_RECORD
  5
56
330
1
100
AcDbSymbolTableRecord
100
AcDbBlockTableRecord
  2
*D3
 70
    0
280
    1
281
    0
  0
BLOCK_RECORD
  5
59
330
1
100
AcDbSymbolTableRecord
100
AcDbBlockTableRecord
  2
*D18
 70
    0
280
    1
281
    0
  0
BLOCK_RECORD
  5
5C
330
1
100
AcDbSymbolTableRecord
100
AcDbBlockTableRecord
  2
*D16
 70
    0
280
    1
281
    0
  0
BLOCK_RECORD
  5
5F
330
1
100
AcDbSymbolTableRecord
100
AcDbBlockTableRecord
  2
*D5
 70
    0
280
    1
281
    0
  0
BLOCK_RECORD
  5
62
330
1
100
AcDbSymbolTableRecord
100
AcDbBlockTableRecord
  2
*D15
 70
    0
280
    1
281
    0
  0
BLOCK_RECORD
  5
65
330
1
100
AcDbSymbolTableRecord
100
AcDbBlockTableRecord
  2
*D20
 70
    0
280
    1
281
    0
  0
BLOCK_RECORD
  5
68
330
1
100
AcDbSymbolTableRecord
100
AcDbBlockTableRecord
  2
*D1
 70
    0
280
    1
281
    0
  0
BLOCK_RECORD
  5
6B
330
1
100
AcDbSymbolTableRecord
100
AcDbBlockTableRecord
  2
*D22
 70
    0
280
    1
281
    0
  0
BLOCK_RECORD
  5
6E
330
1
100
AcDbSymbolTableRecord
100
AcDbBlockTableRecord
  2
*D12
 70
    0
280
    1
281
    0
  0
BLOCK_RECORD
  5
71
330
1
100
AcDbSymbolTableRecord
100
AcDbBlockTableRecord
  2
*D6
 70
    0
280
    1
281
    0
  0
BLOCK_RECORD
  5
74
330
1
100
AcDbSymbolTableRecord
100
AcDbBlockTableRecord
  2
*D2
 70
    0
280
    1
281
    0
  0
BLOCK_RECORD
  5
77
330
1
100
AcDbSymbolTableRecord
100
AcDbBlockTableRecord
  2
*D19
 70
    0
280
    1
281
    0
  0
BLOCK_RECORD
  5
7A
330
1
100
AcDbSymbolTableRecord
100
AcDbBlockTableRecord
  2
*D8
 70
    0
280
    1
281
    0
  0
BLOCK_RECORD
  5
7D
330
1
100
AcDbSymbolTableRecord
100
AcDbBlockTableRecord
  2
*D4
 70
    0
280
    1
281
    0
  0
BLOCK_RECORD
  5
80
330
1
100
AcDbSymbolTableRecord
100
AcDbBlockTableRecord
  2
*D14
 70
    0
280
    1
281
    0
  0
BLOCK_RECORD
  5
83
330
1
100
AcDbSymbolTableRecord
100
AcDbBlockTableRecord
  2
*D21
 70
    0
280
    1
281
    0
  0
BLOCK_RECORD
  5
86
330
1
100
AcDbSymbolTableRecord
100
AcDbBlockTableRecord
  2
*D7
 70
    0
280
    1
281
    0
  0
BLOCK_RECORD
  5
89
330
1
100
AcDbSymbolTableRecord
100
AcDbBlockTableRecord
  2
*D13
 70
    0
280
    1
281
    0
  0
BLOCK_RECORD
  5
8C
330
1
100
AcDbSymbolTableRecord
100
AcDbBlockTableRecord
  2
*D11
 70
    0
280
    1
281
    0
  0
BLOCK_RECORD
  5
8F
330
1
100
AcDbSymbolTableRecord
100
AcDbBlockTableRecord
  2
*D10
 70
    0
280
    1
281
    0
  0
BLOCK_RECORD
  5
92
330
1
100
AcDbSymbolTableRecord
100
AcDbBlockTableRecord
  2
180per80
 70
    0
280
    1
281
    0
  0
ENDTAB
  0
ENDSEC
  0
SECTION
  2
BLOCKS
  0
BLOCK
  5
20
330
1F
100
AcDbEntity
  8
0
100
AcDbBlockBegin
  2
*Model_Space
 70
    0
 10
0
 20
0
 30
0
  3
*Model_Space
  1

  0
ENDBLK
  5
21
330
1F
100
AcDbEntity
  8
0
100
AcDbBlockEnd
  0
BLOCK
  5
1C
330
1B
100
AcDbEntity
  8
0
100
AcDbBlockBegin
  2
*Paper_Space
 70
    0
 10
0
 20
0
 30
0
  3
*Paper_Space
  1

  0
ENDBLK
  5
1D
330
1F
100
AcDbEntity
  8
0
100
AcDbBlockEnd
  0
BLOCK
  5
51
330
50
100
AcDbEntity
  8
0
100
AcDbBlockBegin
  2
*D9
 70
    1
 10
0
 20
0
  3
*D9
  1

  0
LINE
  5
95
100
AcDbEntity
  8
misure2
  6
ByBlock
 62
    0
370
   -2
100
AcDbLine
 10
11.4
 20
-45
 11
22.2
 21
-45
  0
SOLID
  5
96
100
AcDbEntity
  8
misure2
  6
ByBlock
 62
    0
370
   -2
100
AcDbTrace
 10
16.4
 20
-45
 30
0
 11
13.9
 21
-45.41628465777284
 31
0
 12
13.9
 22
-44.58371534222716
 32
0
 13
13.9
 23
-44.58371534222716
 33
0
  0
SOLID
  5
97
100
AcDbEntity
  8
misure2
  6
ByBlock
 62
    0
370
   -2
100
AcDbTrace
 10
17.2
 20
-45
 30
0
 11
19.7
 21
-44.58371534222716
 31
0
 12
19.7
 22
-45.41628465777284
 32
0
 13
19.7
 23
-45.41628465777284
 33
0
  0
MTEXT
  5
98
100
AcDbEntity
  8
misure2
  6
CONTINUOUS
 62
    0
370
   -2
100
AcDbMText
 10
19.83888888888889
 20
-43.125
 30
0
 40
2.5
 41
4.027777777777779
 71
    5
 72
    1
  1
0,8
  7
standard
210
0
220
0
230
1
 50
0
 73
    2
 44
1
  0
LINE
  5
99
100
AcDbEntity
  8
misure2
  6
ByBlock
 62
    0
370
   -2
100
AcDbLine
 10
16.4
 20
-38.29827068505438
 11
16.4
 21
-46.25
  0
LINE
  5
9A
100
AcDbEntity
  8
misure2
  6
ByBlock
 62
    0
370
   -2
100
AcDbLine
 10
17.2
 20
-38.29827068505438
 11
17.2
 21
-46.25
  0
ENDBLK
  5
52
330
50
100
AcDbEntity
  8
0
100
AcDbBlockEnd
  0
BLOCK
  5
54
330
53
100
AcDbEntity
  8
0
100
AcDbBlockBegin
  2
*D17
 70
    1
 10
0
 20
0
  3
*D17
  1

  0
LINE
  5
9B
100
AcDbEntity
  8
misure
  6
ByBlock
 62
    0
370
   -2
100
AcDbLine
 10
-2.871218598858574
 20
-18.87327068505438
 11
-2.871218598858575
 21
-30.85070033412981
  0
SOLID
  5
9C
100
AcDbEntity
  8
misure
  6
ByBlock
 62
    0
370
   -2
100
AcDbTrace
 10
-2.871218598858574
 20
-23.87327068505438
 30
0
 11
-3.287503256631414
 21
-21.37327068505438
 31
0
 12
-2.454933941085733
 22
-21.37327068505438
 32
0
 13
-2.454933941085733
 23
-21.37327068505438
 33
0
  0
SOLID
  5
9D
100
AcDbEntity
  8
misure
  6
ByBlock
 62
    0
370
   -2
100
AcDbTrace
 10
-2.871218598858574
 20
-25.85070033412981
 30
0
 11
-2.454933941085734
 21
-28.35070033412981
 31
0
 12
-3.287503256631415
 22
-28.35070033412981
 32
0
 13
-3.287503256631415
 23
-28.35070033412981
 33
0
  0
MTEXT
  5
9E
100
AcDbEntity
  8
misure
  6
CONTINUOUS
 62
    0
370
   -2
100
AcDbMText
 10
-4.746218598858574
 20
-18.45660401838771
 30
0
 40
2.5
 41
9.583333333333334
 71
    5
 72
    1
  1
1,9774
  7
standard
210
0
220
0
230
1
 50
90
 73
    2
 44
1
  0
LINE
  5
9F
100
AcDbEntity
  8
misure
  6
ByBlock
 62
    0
370
   -2
100
AcDbLine
 10
14.77525876352342
 20
-23.87327068505438
 11
-4.121218598858574
 21
-23.87327068505438
  0
LINE
  5
A0
100
AcDbEntity
  8
misure
  6
ByBlock
 62
    0
370
   -2
100
AcDbLine
 10
4.375
 20
-25.85070033412981
 11
-4.121218598858574
 21
-25.85070033412981
  0
ENDBLK
  5
55
330
53
100
AcDbEntity
  8
0
100
AcDbBlockEnd
  0
BLOCK
  5
57
330
56
100
AcDbEntity
  8
0
100
AcDbBlockBegin
  2
*D3
 70
    1
 10
0
 20
0
  3
*D3
  1

  0
LINE
  5
A1
100
AcDbEntity
  8
misure2
  6
ByBlock
 62
    0
370
   -2
100
AcDbLine
 10
-11.79632861632732
 20
-30.85070033412981
 11
-11.79632861632732
 21
-18.87327068505438
  0
SOLID
  5
A2
100
AcDbEntity
  8
misure2
  6
ByBlock
 62
    0
370
   -2
100
AcDbTrace
 10
-11.79632861632732
 20
-25.85070033412981
 30
0
 11
-11.38004395855448
 21
-28.35070033412981
 31
0
 12
-12.21261327410016
 22
-28.35070033412981
 32
0
 13
-12.21261327410016
 23
-28.35070033412981
 33
0
  0
SOLID
  5
A3
100
AcDbEntity
  8
misure2
  6
ByBlock
 62
    0
370
   -2
100
AcDbTrace
 10
-11.79632861632732
 20
-23.87327068505438
 30
0
 11
-12.21261327410016
 21
-21.37327068505438
 31
0
 12
-11.38004395855448
 22
-21.37327068505438
 32
0
 13
-11.38004395855448
 23
-21.37327068505438
 33
0
  0
MTEXT
  5
A4
100
AcDbEntity
  8
misure2
  6
CONTINUOUS
 62
    0
370
   -2
100
AcDbMText
 10
-13.67132861632732
 20
-18.45660401838771
 30
0
 40
2.5
 41
9.583333333333334
 71
    5
 72
    1
  1
1,9774
  7
standard
210
0
220
0
230
1
 50
89.99999999999999
 73
    2
 44
1
  0
LINE
  5
A5
100
AcDbEntity
  8
misure2
  6
ByBlock
 62
    0
370
   -2
100
AcDbLine
 10
4.375
 20
-25.85070033412981
 11
-13.04632861632732
 21
-25.85070033412981
  0
LINE
  5
A6
100
AcDbEntity
  8
misure2
  6
ByBlock
 62
    0
370
   -2
100
AcDbLine
 10
5.175258763523424
 20
-23.87327068505438
 11
-13.04632861632732
 21
-23.87327068505438
  0
ENDBLK
  5
58
330
56
100
AcDbEntity
  8
0
100
AcDbBlockEnd
  0
BLOCK
  5
5A
330
59
100
AcDbEntity
  8
0
100
AcDbBlockBegin
  2
*D18
 70
    1
 10
0
 20
0
  3
*D18
  1

  0
LINE
  5
A7
100
AcDbEntity
  8
misure
  6
ByBlock
 62
    0
370
   -2
100
AcDbLine
 10
3.199999999999999
 20
-43.95983189791087
 11
15.2
 21
-43.95983189791087
  0
SOLID
  5
A8
100
AcDbEntity
  8
misure
  6
ByBlock
 62
    0
370
   -2
100
AcDbTrace
 10
8.199999999999999
 20
-43.95983189791087
 30
0
 11
5.699999999999999
 21
-44.37611655568371
 31
0
 12
5.699999999999999
 22
-43.54354724013803
 32
0
 13
5.699999999999999
 23
-43.54354724013803
 33
0
  0
SOLID
  5
A9
100
AcDbEntity
  8
misure
  6
ByBlock
 62
    0
370
   -2
100
AcDbTrace
 10
10.2
 20
-43.95983189791087
 30
0
 11
12.7
 21
-43.54354724013803
 31
0
 12
12.7
 22
-44.37611655568371
 32
0
 13
12.7
 23
-44.37611655568371
 33
0
  0
MTEXT
  5
AA
100
AcDbEntity
  8
misure
  6
CONTINUOUS
 62
    0
370
   -2
100
AcDbMText
 10
9.199999999999999
 20
-42.08483189791087
 30
0
 40
2.5
 41
1.111111111111111
 71
    5
 72
    1
  1
2
  7
standard
210
0
220
0
230
1
 50
0
 73
    2
 44
1
  0
LINE
  5
AB
100
AcDbEntity
  8
misure
  6
ByBlock
 62
    0
370
   -2
100
AcDbLine
 10
8.199999999999999
 20
-37.87570033412981
 11
8.199999999999999
 21
-45.20983189791087
  0
LINE
  5
AC
100
AcDbEntity
  8
misure
  6
ByBlock
 62
    0
370
   -2
100
AcDbLine
 10
10.2
 20
-37.87570033412981
 11
10.2
 21
-45.20983189791087
  0
ENDBLK
  5
5B
330
59
100
AcDbEntity
  8
0
100
AcDbBlockEnd
  0
BLOCK
  5
5D
330
5C
100
AcDbEntity
  8
0
100
AcDbBlockBegin
  2
*D16
 70
    1
 10
0
 20
0
  3
*D16
  1

  0
LINE
  5
AD
100
AcDbEntity
  8
misure
  6
ByBlock
 62
    0
370
   -2
100
AcDbLine
 10
0
 20
-21.14824345358952
 11
18
 21
-21.14824345358952
  0
SOLID
  5
AE
100
AcDbEntity
  8
misure
  6
ByBlock
 62
    0
370
   -2
100
AcDbTrace
 10
0
 20
-21.14824345358952
 30
0
 11
2.5
 21
-20.73195879581667
 31
0
 12
2.5
 22
-21.56452811136236
 32
0
 13
2.5
 23
-21.56452811136236
 33
0
  0
SOLID
  5
AF
100
AcDbEntity
  8
misure
  6
ByBlock
 62
    0
370
   -2
100
AcDbTrace
 10
18
 20
-21.14824345358952
 30
0
 11
15.5
 21
-21.56452811136236
 31
0
 12
15.5
 22
-20.73195879581667
 32
0
 13
15.5
 23
-20.73195879581667
 33
0
  0
MTEXT
  5
B0
100
AcDbEntity
  8
misure
  6
CONTINUOUS
 62
    0
370
   -2
100
AcDbMText
 10
9
 20
-19.27324345358952
 30
0
 40
2.5
 41
2.5
 71
    5
 72
    1
  1
18
  7
standard
210
0
220
0
230
1
 50
0
 73
    2
 44
1
  0
LINE
  5
B1
100
AcDbEntity
  8
misure
  6
ByBlock
 62
    0
370
   -2
100
AcDbLine
 10
3.827021247335479e-17
 20
-21.375
 11
7.654042494670958e-17
 21
-19.89824345358952
  0
LINE
  5
B2
100
AcDbEntity
  8
misure
  6
ByBlock
 62
    0
370
   -2
100
AcDbLine
 10
18
 20
-21.375
 11
18
 21
-19.89824345358952
  0
ENDBLK
  5
5E
330
5C
100
AcDbEntity
  8
0
100
AcDbBlockEnd
  0
BLOCK
  5
60
330
5F
100
AcDbEntity
  8
0
100
AcDbBlockBegin
  2
*D5
 70
    1
 10
0
 20
0
  3
*D5
  1

  0
LINE
  5
B3
100
AcDbEntity
  8
misure2
  6
ByBlock
 62
    0
370
   -2
100
AcDbLine
 10
-7.536640000000236
 20
0.395506540543737
 11
-7.536640000000236
 21
-12
  0
SOLID
  5
B4
100
AcDbEntity
  8
misure2
  6
ByBlock
 62
    0
370
   -2
100
AcDbTrace
 10
-7.536640000000236
 20
-4.604493459456263
 30
0
 11
-7.952924657773075
 21
-2.104493459456263
 31
0
 12
-7.120355342227395
 22
-2.104493459456263
 32
0
 13
-7.120355342227395
 23
-2.104493459456263
 33
0
  0
SOLID
  5
B5
100
AcDbEntity
  8
misure2
  6
ByBlock
 62
    0
370
   -2
100
AcDbTrace
 10
-7.536640000000236
 20
-6.999999999999999
 30
0
 11
-7.120355342227395
 21
-9.5
 31
0
 12
-7.952924657773076
 22
-9.5
 32
0
 13
-7.952924657773076
 23
-9.5
 33
0
  0
MTEXT
  5
B6
100
AcDbEntity
  8
misure2
  6
CONTINUOUS
 62
    0
370
   -2
100
AcDbMText
 10
-9.411640000000236
 20
0.9510620960995242
 30
0
 40
2.5
 41
9.861111111111576
 71
    5
 72
    1
  1
2,3955
  7
standard
210
0
220
0
230
1
 50
90
 73
    2
 44
1
  0
LINE
  5
B7
100
AcDbEntity
  8
misure2
  6
ByBlock
 62
    0
370
   -2
100
AcDbLine
 10
1.216471074303886
 20
-4.604493459456263
 11
-8.786640000000236
 21
-4.604493459456263
  0
LINE
  5
B8
100
AcDbEntity
  8
misure2
  6
ByBlock
 62
    0
370
   -2
100
AcDbLine
 10
-0.625
 20
-7
 11
-8.786640000000236
 21
-6.999999999999999
  0
ENDBLK
  5
61
330
5F
100
AcDbEntity
  8
0
100
AcDbBlockEnd
  0
BLOCK
  5
63
330
62
100
AcDbEntity
  8
0
100
AcDbBlockBegin
  2
*D15
 70
    1
 10
0
 20
0
  3
*D15
  1

  0
LINE
  5
B9
100
AcDbEntity
  8
misure
  6
ByBlock
 62
    0
370
   -2
100
AcDbLine
 10
-1.306913921289243
 20
-22
 11
-1.306913921289244
 21
-40
  0
SOLID
  5
BA
100
AcDbEntity
  8
misure
  6
ByBlock
 62
    0
370
   -2
100
AcDbTrace
 10
-1.306913921289243
 20
-22
 30
0
 11
-0.8906292635164024
 21
-24.5
 31
0
 12
-1.723198579062083
 22
-24.5
 32
0
 13
-1.723198579062083
 23
-24.5
 33
0
  0
SOLID
  5
BB
100
AcDbEntity
  8
misure
  6
ByBlock
 62
    0
370
   -2
100
AcDbTrace
 10
-1.306913921289244
 20
-40
 30
0
 11
-1.723198579062084
 21
-37.5
 31
0
 12
-0.8906292635164028
 22
-37.5
 32
0
 13
-0.8906292635164028
 23
-37.5
 33
0
  0
MTEXT
  5
BC
100
AcDbEntity
  8
misure
  6
CONTINUOUS
 62
    0
370
   -2
100
AcDbMText
 10
-3.181913921289243
 20
-31
 30
0
 40
2.5
 41
2.5
 71
    5
 72
    1
  1
18
  7
standard
210
0
220
0
230
1
 50
90
 73
    2
 44
1
  0
LINE
  5
BD
100
AcDbEntity
  8
misure
  6
ByBlock
 62
    0
370
   -2
100
AcDbLine
 10
17.375
 20
-22
 11
-2.556913921289243
 21
-22
  0
LINE
  5
BE
100
AcDbEntity
  8
misure
  6
ByBlock
 62
    0
370
   -2
100
AcDbLine
 10
17.375
 20
-40
 11
-2.556913921289244
 21
-40
  0
ENDBLK
  5
64
330
62
100
AcDbEntity
  8
0
100
AcDbBlockEnd
  0
BLOCK
  5
66
330
65
100
AcDbEntity
  8
0
100
AcDbBlockBegin
  2
*D20
 70
    1
 10
0
 20
0
  3
*D20
  1

  0
LINE
  5
BF
100
AcDbEntity
  8
misure
  6
ByBlock
 62
    0
370
   -2
100
AcDbLine
 10
8.400000000000002
 20
-47.99938401825943
 11
21.4
 21
-47.99938401825943
  0
SOLID
  5
C0
100
AcDbEntity
  8
misure
  6
ByBlock
 62
    0
370
   -2
100
AcDbTrace
 10
13.4
 20
-47.99938401825943
 30
0
 11
10.9
 21
-48.41566867603228
 31
0
 12
10.9
 22
-47.58309936048659
 32
0
 13
10.9
 23
-47.58309936048659
 33
0
  0
SOLID
  5
C1
100
AcDbEntity
  8
misure
  6
ByBlock
 62
    0
370
   -2
100
AcDbTrace
 10
16.4
 20
-47.99938401825943
 30
0
 11
18.9
 21
-47.58309936048659
 31
0
 12
18.9
 22
-48.41566867603228
 32
0
 13
18.9
 23
-48.41566867603228
 33
0
  0
MTEXT
  5
C2
100
AcDbEntity
  8
misure
  6
CONTINUOUS
 62
    0
370
   -2
100
AcDbMText
 10
14.9
 20
-46.12438401825943
 30
0
 40
2.5
 41
1.111111111111266
 71
    5
 72
    1
  1
3
  7
standard
210
0
220
0
230
1
 50
0
 73
    2
 44
1
  0
LINE
  5
C3
100
AcDbEntity
  8
misure
  6
ByBlock
 62
    0
370
   -2
100
AcDbLine
 10
13.4
 20
-26.47570033412981
 11
13.4
 21
-49.24938401825943
  0
LINE
  5
C4
100
AcDbEntity
  8
misure
  6
ByBlock
 62
    0
370
   -2
100
AcDbLine
 10
16.4
 20
-26.89827068505438
 11
16.4
 21
-49.24938401825943
  0
ENDBLK
  5
67
330
65
100
AcDbEntity
  8
0
100
AcDbBlockEnd
  0
BLOCK
  5
69
330
68
100
AcDbEntity
  8
0
100
AcDbBlockBegin
  2
*D1
 70
    1
 10
0
 20
0
  3
*D1
  1

  0
LINE
  5
C5
100
AcDbEntity
  8
misure2
  6
ByBlock
 62
    0
370
   -2
100
AcDbLine
 10
-8.000000000000002
 20
-40
 11
-8
 21
-22
  0
SOLID
  5
C6
100
AcDbEntity
  8
misure2
  6
ByBlock
 62
    0
370
   -2
100
AcDbTrace
 10
-8.000000000000002
 20
-40
 30
0
 11
-8.416284657772842
 21
-37.5
 31
0
 12
-7.583715342227161
 22
-37.5
 32
0
 13
-7.583715342227161
 23
-37.5
 33
0
  0
SOLID
  5
C7
100
AcDbEntity
  8
misure2
  6
ByBlock
 62
    0
370
   -2
100
AcDbTrace
 10
-8
 20
-22
 30
0
 11
-7.583715342227159
 21
-24.5
 31
0
 12
-8.41628465777284
 22
-24.5
 32
0
 13
-8.41628465777284
 23
-24.5
 33
0
  0
MTEXT
  5
C8
100
AcDbEntity
  8
misure2
  6
CONTINUOUS
 62
    0
370
   -2
100
AcDbMText
 10
-9.875
 20
-31
 30
0
 40
2.5
 41
2.5
 71
    5
 72
    1
  1
18
  7
standard
210
0
220
0
230
1
 50
90
 73
    2
 44
1
  0
LINE
  5
C9
100
AcDbEntity
  8
misure2
  6
ByBlock
 62
    0
370
   -2
100
AcDbLine
 10
-0.625
 20
-40
 11
-9.250000000000002
 21
-40
  0
LINE
  5
CA
100
AcDbEntity
  8
misure2
  6
ByBlock
 62
    0
370
   -2
100
AcDbLine
 10
-0.625
 20
-22
 11
-9.25
 21
-22
  0
ENDBLK
  5
6A
330
68
100
AcDbEntity
  8
0
100
AcDbBlockEnd
  0
BLOCK
  5
6C
330
6B
100
AcDbEntity
  8
0
100
AcDbBlockBegin
  2
*D22
 70
    1
 10
0
 20
0
  3
*D22
  1

  0
LINE
  5
CB
100
AcDbEntity
  8
misure
  6
ByBlock
 62
    0
370
   -2
100
AcDbLine
 10
-4.410240432568795
 20
0.395506540543737
 11
-4.410240432568795
 21
-12
  0
SOLID
  5
CC
100
AcDbEntity
  8
misure
  6
ByBlock
 62
    0
370
   -2
100
AcDbTrace
 10
-4.410240432568795
 20
-4.604493459456263
 30
0
 11
-4.826525090341635
 21
-2.104493459456263
 31
0
 12
-3.993955774795954
 22
-2.104493459456263
 32
0
 13
-3.993955774795954
 23
-2.104493459456263
 33
0
  0
SOLID
  5
CD
100
AcDbEntity
  8
misure
  6
ByBlock
 62
    0
370
   -2
100
AcDbTrace
 10
-4.410240432568795
 20
-7
 30
0
 11
-3.993955774795955
 21
-9.5
 31
0
 12
-4.826525090341636
 22
-9.5
 32
0
 13
-4.826525090341636
 23
-9.5
 33
0
  0
MTEXT
  5
CE
100
AcDbEntity
  8
misure
  6
CONTINUOUS
 62
    0
370
   -2
100
AcDbMText
 10
-6.285240432568795
 20
0.9510620960995251
 30
0
 40
2.5
 41
9.861111111111576
 71
    5
 72
    1
  1
2,3955
  7
standard
210
0
220
0
230
1
 50
90
 73
    2
 44
1
  0
LINE
  5
CF
100
AcDbEntity
  8
misure
  6
ByBlock
 62
    0
370
   -2
100
AcDbLine
 10
1.216471074303886
 20
-4.604493459456263
 11
-5.660240432568795
 21
-4.604493459456263
  0
LINE
  5
D0
100
AcDbEntity
  8
misure
  6
ByBlock
 62
    0
370
   -2
100
AcDbLine
 10
-0.625
 20
-7
 11
-5.660240432568795
 21
-7
  0
ENDBLK
  5
6D
330
6B
100
AcDbEntity
  8
0
100
AcDbBlockEnd
  0
BLOCK
  5
6F
330
6E
100
AcDbEntity
  8
0
100
AcDbBlockBegin
  2
*D12
 70
    1
 10
0
 20
0
  3
*D12
  1

  0
LINE
  5
D1
100
AcDbEntity
  8
misure2
  6
ByBlock
 62
    0
370
   -2
100
AcDbLine
 10
3.199999999999999
 20
-50
 11
15.2
 21
-50
  0
SOLID
  5
D2
100
AcDbEntity
  8
misure2
  6
ByBlock
 62
    0
370
   -2
100
AcDbTrace
 10
8.199999999999999
 20
-50
 30
0
 11
5.699999999999999
 21
-50.41628465777284
 31
0
 12
5.699999999999999
 22
-49.58371534222716
 32
0
 13
5.699999999999999
 23
-49.58371534222716
 33
0
  0
SOLID
  5
D3
100
AcDbEntity
  8
misure2
  6
ByBlock
 62
    0
370
   -2
100
AcDbTrace
 10
10.2
 20
-50
 30
0
 11
12.7
 21
-49.58371534222716
 31
0
 12
12.7
 22
-50.41628465777284
 32
0
 13
12.7
 23
-50.41628465777284
 33
0
  0
MTEXT
  5
D4
100
AcDbEntity
  8
misure2
  6
CONTINUOUS
 62
    0
370
   -2
100
AcDbMText
 10
9.199999999999999
 20
-48.125
 30
0
 40
2.5
 41
1.111111111111111
 71
    5
 72
    1
  1
2
  7
standard
210
0
220
0
230
1
 50
0
 73
    2
 44
1
  0
LINE
  5
D5
100
AcDbEntity
  8
misure2
  6
ByBlock
 62
    0
370
   -2
100
AcDbLine
 10
8.199999999999999
 20
-37.02499999999999
 11
8.199999999999999
 21
-51.25
  0
LINE
  5
D6
100
AcDbEntity
  8
misure2
  6
ByBlock
 62
    0
370
   -2
100
AcDbLine
 10
10.2
 20
-37.02499999999999
 11
10.2
 21
-51.25
  0
ENDBLK
  5
70
330
6E
100
AcDbEntity
  8
0
100
AcDbBlockEnd
  0
BLOCK
  5
72
330
71
100
AcDbEntity
  8
0
100
AcDbBlockBegin
  2
*D6
 70
    1
 10
0
 20
0
  3
*D6
  1

  0
LINE
  5
D7
100
AcDbEntity
  8
misure2
  6
ByBlock
 62
    0
370
   -2
100
AcDbLine
 10
-13.72160000000045
 20
-17.4
 11
-13.72160000000045
 21
-6.6
  0
SOLID
  5
D8
100
AcDbEntity
  8
misure2
  6
ByBlock
 62
    0
370
   -2
100
AcDbTrace
 10
-13.72160000000045
 20
-12.4
 30
0
 11
-13.30531534222761
 21
-14.9
 31
0
 12
-14.13788465777329
 22
-14.9
 32
0
 13
-14.13788465777329
 23
-14.9
 33
0
  0
SOLID
  5
D9
100
AcDbEntity
  8
misure2
  6
ByBlock
 62
    0
370
   -2
100
AcDbTrace
 10
-13.72160000000045
 20
-11.6
 30
0
 11
-14.13788465777329
 21
-9.1
 31
0
 12
-13.30531534222761
 22
-9.1
 32
0
 13
-13.30531534222761
 23
-9.1
 33
0
  0
MTEXT
  5
DA
100
AcDbEntity
  8
misure2
  6
CONTINUOUS
 62
    0
370
   -2
100
AcDbMText
 10
-15.59660000000045
 20
-8.961111111111112
 30
0
 40
2.5
 41
4.027777777777779
 71
    5
 72
    1
  1
0,8
  7
standard
210
0
220
0
230
1
 50
89.99999999999999
 73
    2
 44
1
  0
LINE
  5
DB
100
AcDbEntity
  8
misure2
  6
ByBlock
 62
    0
370
   -2
100
AcDbLine
 10
1.175
 20
-12.4
 11
-14.97160000000045
 21
-12.4
  0
LINE
  5
DC
100
AcDbEntity
  8
misure2
  6
ByBlock
 62
    0
370
   -2
100
AcDbLine
 10
1.175
 20
-11.6
 11
-14.97160000000045
 21
-11.6
  0
ENDBLK
  5
73
330
71
100
AcDbEntity
  8
0
100
AcDbBlockEnd
  0
BLOCK
  5
75
330
74
100
AcDbEntity
  8
0
100
AcDbBlockBegin
  2
*D2
 70
    1
 10
0
 20
0
  3
*D2
  1

  0
LINE
  5
DD
100
AcDbEntity
  8
misure2
  6
ByBlock
 62
    0
370
   -2
100
AcDbLine
 10
-2.764156210426533
 20
-32.2507003341298
 11
-2.764156210426534
 21
-43.4
  0
SOLID
  5
DE
100
AcDbEntity
  8
misure2
  6
ByBlock
 62
    0
370
   -2
100
AcDbTrace
 10
-2.764156210426534
 20
-37.2507003341298
 30
0
 11
-3.180440868199374
 21
-34.7507003341298
 31
0
 12
-2.347871552653693
 22
-34.7507003341298
 32
0
 13
-2.347871552653693
 23
-34.7507003341298
 33
0
  0
SOLID
  5
DF
100
AcDbEntity
  8
misure2
  6
ByBlock
 62
    0
370
   -2
100
AcDbTrace
 10
-2.764156210426534
 20
-38.4
 30
0
 11
-2.347871552653694
 21
-40.9
 31
0
 12
-3.180440868199375
 22
-40.9
 32
0
 13
-3.180440868199375
 23
-40.9
 33
0
  0
MTEXT
  5
E0
100
AcDbEntity
  8
misure2
  6
CONTINUOUS
 62
    0
370
   -2
100
AcDbMText
 10
-4.639156210426534
 20
-32.11181144524083
 30
0
 40
2.5
 41
9.027777777777933
 71
    5
 72
    1
  1
1,1493
  7
standard
210
0
220
0
230
1
 50
90
 73
    2
 44
1
  0
LINE
  5
E1
100
AcDbEntity
  8
misure2
  6
ByBlock
 62
    0
370
   -2
100
AcDbLine
 10
4.375
 20
-37.2507003341298
 11
-4.014156210426534
 21
-37.2507003341298
  0
LINE
  5
E2
100
AcDbEntity
  8
misure2
  6
ByBlock
 62
    0
370
   -2
100
AcDbLine
 10
4.375
 20
-38.4
 11
-4.014156210426534
 21
-38.4
  0
ENDBLK
  5
76
330
74
100
AcDbEntity
  8
0
100
AcDbBlockEnd
  0
BLOCK
  5
78
330
77
100
AcDbEntity
  8
0
100
AcDbBlockBegin
  2
*D19
 70
    1
 10
0
 20
0
  3
*D19
  1

  0
LINE
  5
E3
100
AcDbEntity
  8
misure
  6
ByBlock
 62
    0
370
   -2
100
AcDbLine
 10
9.999999999999996
 20
-47.99938401825943
 11
-3.399999999999999
 21
-47.99938401825943
  0
SOLID
  5
E4
100
AcDbEntity
  8
misure
  6
ByBlock
 62
    0
370
   -2
100
AcDbTrace
 10
4.999999999999997
 20
-47.99938401825943
 30
0
 11
7.499999999999997
 21
-47.58309936048659
 31
0
 12
7.499999999999997
 22
-48.41566867603228
 32
0
 13
7.499999999999997
 23
-48.41566867603228
 33
0
  0
SOLID
  5
E5
100
AcDbEntity
  8
misure
  6
ByBlock
 62
    0
370
   -2
100
AcDbTrace
 10
1.600000000000001
 20
-47.99938401825943
 30
0
 11
-0.8999999999999986
 21
-48.41566867603228
 31
0
 12
-0.8999999999999986
 22
-47.58309936048659
 32
0
 13
-0.8999999999999986
 23
-47.58309936048659
 33
0
  0
MTEXT
  5
E6
100
AcDbEntity
  8
misure
  6
CONTINUOUS
 62
    0
370
   -2
100
AcDbMText
 10
7.777777777777852
 20
-46.12438401825943
 30
0
 40
2.5
 41
4.305555555555711
 71
    5
 72
    1
  1
3,4
  7
standard
210
0
220
0
230
1
 50
360
 73
    2
 44
1
  0
LINE
  5
E7
100
AcDbEntity
  8
misure
  6
ByBlock
 62
    0
370
   -2
100
AcDbLine
 10
4.999999999999997
 20
-37.87570033412981
 11
4.999999999999997
 21
-49.24938401825943
  0
LINE
  5
E8
100
AcDbEntity
  8
misure
  6
ByBlock
 62
    0
370
   -2
100
AcDbLine
 10
1.600000000000001
 20
-38.29827068505438
 11
1.600000000000001
 21
-49.24938401825943
  0
ENDBLK
  5
79
330
77
100
AcDbEntity
  8
0
100
AcDbBlockEnd
  0
BLOCK
  5
7B
330
7A
100
AcDbEntity
  8
0
100
AcDbBlockBegin
  2
*D8
 70
    1
 10
0
 20
0
  3
*D8
  1

  0
LINE
  5
E9
100
AcDbEntity
  8
misure2
  6
ByBlock
 62
    0
370
   -2
100
AcDbLine
 10
24
 20
-30.67327068505438
 11
24
 21
-18.87327068505438
  0
SOLID
  5
EA
100
AcDbEntity
  8
misure2
  6
ByBlock
 62
    0
370
   -2
100
AcDbTrace
 10
24
 20
-25.67327068505438
 30
0
 11
24.41628465777284
 21
-28.17327068505438
 31
0
 12
23.58371534222716
 22
-28.17327068505438
 32
0
 13
23.58371534222716
 23
-28.17327068505438
 33
0
  0
SOLID
  5
EB
100
AcDbEntity
  8
misure2
  6
ByBlock
 62
    0
370
   -2
100
AcDbTrace
 10
24
 20
-23.87327068505438
 30
0
 11
23.58371534222716
 21
-21.37327068505438
 31
0
 12
24.41628465777284
 22
-21.37327068505438
 32
0
 13
24.41628465777284
 23
-21.37327068505438
 33
0
  0
MTEXT
  5
EC
100
AcDbEntity
  8
misure2
  6
CONTINUOUS
 62
    0
370
   -2
100
AcDbMText
 10
22.125
 20
-21.51215957394326
 30
0
 40
2.5
 41
3.472222222222222
 71
    5
 72
    1
  1
1,8
  7
standard
210
0
220
0
230
1
 50
90
 73
    2
 44
1
  0
LINE
  5
ED
100
AcDbEntity
  8
misure2
  6
ByBlock
 62
    0
370
   -2
100
AcDbLine
 10
18.625
 20
-25.67327068505438
 11
25.25
 21
-25.67327068505438
  0
LINE
  5
EE
100
AcDbEntity
  8
misure2
  6
ByBlock
 62
    0
370
   -2
100
AcDbLine
 10
18.625
 20
-23.87327068505438
 11
25.25
 21
-23.87327068505438
  0
ENDBLK
  5
7C
330
7A
100
AcDbEntity
  8
0
100
AcDbBlockEnd
  0
BLOCK
  5
7E
330
7D
100
AcDbEntity
  8
0
100
AcDbBlockBegin
  2
*D4
 70
    1
 10
0
 20
0
  3
*D4
  1

  0
LINE
  5
EF
100
AcDbEntity
  8
misure
  6
ByBlock
 62
    0
370
   -2
100
AcDbLine
 10
0
 20
-6.579470416367426
 11
30
 21
-6.579470416367426
  0
SOLID
  5
F0
100
AcDbEntity
  8
misure
  6
ByBlock
 62
    0
370
   -2
100
AcDbTrace
 10
0
 20
-6.579470416367426
 30
0
 11
2.5
 21
-6.163185758594586
 31
0
 12
2.5
 22
-6.995755074140266
 32
0
 13
2.5
 23
-6.995755074140266
 33
0
  0
SOLID
  5
F1
100
AcDbEntity
  8
misure
  6
ByBlock
 62
    0
370
   -2
100
AcDbTrace
 10
30
 20
-6.579470416367426
 30
0
 11
27.5
 21
-6.995755074140266
 31
0
 12
27.5
 22
-6.163185758594585
 32
0
 13
27.5
 23
-6.163185758594585
 33
0
  0
MTEXT
  5
F2
100
AcDbEntity
  8
misure
  6
CONTINUOUS
 62
    0
370
   -2
100
AcDbMText
 10
15
 20
-4.704470416367426
 30
0
 40
2.5
 41
3.055555555555711
 71
    5
 72
    1
  1
30
  7
standard
210
0
220
0
230
1
 50
0
 73
    2
 44
1
  0
LINE
  5
F3
100
AcDbEntity
  8
misure
  6
ByBlock
 62
    0
370
   -2
100
AcDbLine
 10
3.827021247335479e-17
 20
-6.375
 11
7.654042494670958e-17
 21
-5.329470416367426
  0
LINE
  5
F4
100
AcDbEntity
  8
misure
  6
ByBlock
 62
    0
370
   -2
100
AcDbLine
 10
30
 20
-6.375
 11
30
 21
-5.329470416367426
  0
ENDBLK
  5
7F
330
7D
100
AcDbEntity
  8
0
100
AcDbBlockEnd
  0
BLOCK
  5
81
330
80
100
AcDbEntity
  8
0
100
AcDbBlockBegin
  2
*D14
 70
    1
 10
0
 20
0
  3
*D14
  1

  0
LINE
  5
F5
100
AcDbEntity
  8
misure2
  6
ByBlock
 62
    0
370
   -2
100
AcDbLine
 10
8.4
 20
-57.86064360616848
 11
21.4
 21
-57.86064360616848
  0
SOLID
  5
F6
100
AcDbEntity
  8
misure2
  6
ByBlock
 62
    0
370
   -2
100
AcDbTrace
 10
13.4
 20
-57.86064360616848
 30
0
 11
10.9
 21
-58.27692826394132
 31
0
 12
10.9
 22
-57.44435894839564
 32
0
 13
10.9
 23
-57.44435894839564
 33
0
  0
SOLID
  5
F7
100
AcDbEntity
  8
misure2
  6
ByBlock
 62
    0
370
   -2
100
AcDbTrace
 10
16.4
 20
-57.86064360616848
 30
0
 11
18.9
 21
-57.44435894839564
 31
0
 12
18.9
 22
-58.27692826394132
 32
0
 13
18.9
 23
-58.27692826394132
 33
0
  0
MTEXT
  5
F8
100
AcDbEntity
  8
misure2
  6
CONTINUOUS
 62
    0
370
   -2
100
AcDbMText
 10
14.9
 20
-55.98564360616848
 30
0
 40
2.5
 41
1.111111111111266
 71
    5
 72
    1
  1
3
  7
standard
210
0
220
0
230
1
 50
0
 73
    2
 44
1
  0
LINE
  5
F9
100
AcDbEntity
  8
misure2
  6
ByBlock
 62
    0
370
   -2
100
AcDbLine
 10
13.4
 20
-37.02499999999999
 11
13.4
 21
-59.11064360616848
  0
LINE
  5
FA
100
AcDbEntity
  8
misure2
  6
ByBlock
 62
    0
370
   -2
100
AcDbLine
 10
16.4
 20
-36.49827068505438
 11
16.4
 21
-59.11064360616848
  0
ENDBLK
  5
82
330
80
100
AcDbEntity
  8
0
100
AcDbBlockEnd
  0
BLOCK
  5
84
330
83
100
AcDbEntity
  8
0
100
AcDbBlockBegin
  2
*D21
 70
    1
 10
0
 20
0
  3
*D21
  1

  0
LINE
  5
FB
100
AcDbEntity
  8
misure
  6
ByBlock
 62
    0
370
   -2
100
AcDbLine
 10
-0.9885021659205979
 20
-12
 11
-0.9885021659205959
 21
2.000000000000002
  0
SOLID
  5
FC
100
AcDbEntity
  8
misure
  6
ByBlock
 62
    0
370
   -2
100
AcDbTrace
 10
-0.988502165920597
 20
-6.999999999999998
 30
0
 11
-0.5722175081477567
 21
-9.499999999999998
 31
0
 12
-1.404786823693438
 22
-9.499999999999998
 32
0
 13
-1.404786823693438
 23
-9.499999999999998
 33
0
  0
SOLID
  5
FD
100
AcDbEntity
  8
misure
  6
ByBlock
 62
    0
370
   -2
100
AcDbTrace
 10
-0.9885021659205968
 20
-2.999999999999998
 30
0
 11
-1.404786823693437
 21
-0.4999999999999982
 31
0
 12
-0.5722175081477558
 22
-0.4999999999999982
 32
0
 13
-0.5722175081477558
 23
-0.4999999999999982
 33
0
  0
MTEXT
  5
FE
100
AcDbEntity
  8
misure
  6
CONTINUOUS
 62
    0
370
   -2
100
AcDbMText
 10
-2.863502165920597
 20
-4.999999999999998
 30
0
 40
2.5
 41
1.388888888888889
 71
    5
 72
    1
  1
4
  7
standard
210
0
220
0
230
1
 50
90
 73
    2
 44
1
  0
LINE
  5
FF
100
AcDbEntity
  8
misure
  6
ByBlock
 62
    0
370
   -2
100
AcDbLine
 10
29.375
 20
-7
 11
-2.238502165920597
 21
-6.999999999999998
  0
LINE
  5
100
100
AcDbEntity
  8
misure
  6
ByBlock
 62
    0
370
   -2
100
AcDbLine
 10
29.375
 20
-3
 11
-2.238502165920597
 21
-2.999999999999998
  0
ENDBLK
  5
85
330
83
100
AcDbEntity
  8
0
100
AcDbBlockEnd
  0
BLOCK
  5
87
330
86
100
AcDbEntity
  8
0
100
AcDbBlockBegin
  2
*D7
 70
    1
 10
0
 20
0
  3
*D7
  1

  0
LINE
  5
101
100
AcDbEntity
  8
nascosto
  6
ByBlock
 62
    0
370
   -2
100
AcDbLine
 10
39.97696000000131
 20
6.88987371434506
 11
39.97696000000131
 21
-5.000000000000001
  0
SOLID
  5
102
100
AcDbEntity
  8
nascosto
  6
ByBlock
 62
    0
370
   -2
100
AcDbTrace
 10
39.97696000000131
 20
1.88987371434506
 30
0
 11
39.56067534222847
 21
4.38987371434506
 31
0
 12
40.39324465777415
 22
4.38987371434506
 32
0
 13
40.39324465777415
 23
4.38987371434506
 33
0
  0
SOLID
  5
103
100
AcDbEntity
  8
nascosto
  6
ByBlock
 62
    0
370
   -2
100
AcDbTrace
 10
39.97696000000131
 20
-7.089056452970021e-16
 30
0
 11
40.39324465777415
 21
-2.500000000000001
 31
0
 12
39.56067534222847
 22
-2.500000000000001
 32
0
 13
39.56067534222847
 23
-2.500000000000001
 33
0
  0
MTEXT
  5
104
100
AcDbEntity
  8
nascosto
  6
CONTINUOUS
 62
    0
370
   -2
100
AcDbMText
 10
38.10196000000131
 20
7.167651492122839
 30
0
 40
2.5
 41
9.305555555555557
 71
    5
 72
    1
  1
1,8899
  7
standard
210
0
220
0
230
1
 50
90
 73
    2
 44
1
  0
LINE
  5
105
100
AcDbEntity
  8
nascosto
  6
ByBlock
 62
    0
370
   -2
100
AcDbLine
 10
2.027746996161434
 20
1.889873714345063
 11
41.22696000000131
 21
1.88987371434506
  0
LINE
  5
106
100
AcDbEntity
  8
nascosto
  6
ByBlock
 62
    0
370
   -2
100
AcDbLine
 10
30.625
 20
0
 11
41.22696000000131
 21
-7.089056452970021e-16
  0
ENDBLK
  5
88
330
86
100
AcDbEntity
  8
0
100
AcDbBlockEnd
  0
BLOCK
  5
8A
330
89
100
AcDbEntity
  8
0
100
AcDbBlockBegin
  2
*D13
 70
    1
 10
0
 20
0
  3
*D13
  1

  0
LINE
  5
107
100
AcDbEntity
  8
misure2
  6
ByBlock
 62
    0
370
   -2
100
AcDbLine
 10
22.19111323863557
 20
-38.47327068505437
 11
22.19111323863557
 21
-27.87327068505438
  0
SOLID
  5
108
100
AcDbEntity
  8
misure2
  6
ByBlock
 62
    0
370
   -2
100
AcDbTrace
 10
22.19111323863557
 20
-33.47327068505437
 30
0
 11
22.60739789640841
 21
-35.97327068505437
 31
0
 12
21.77482858086273
 22
-35.97327068505437
 32
0
 13
21.77482858086273
 23
-35.97327068505437
 33
0
  0
SOLID
  5
109
100
AcDbEntity
  8
misure2
  6
ByBlock
 62
    0
370
   -2
100
AcDbTrace
 10
22.19111323863557
 20
-32.87327068505438
 30
0
 11
21.77482858086273
 21
-30.37327068505438
 31
0
 12
22.60739789640841
 22
-30.37327068505438
 32
0
 13
22.60739789640841
 23
-30.37327068505438
 33
0
  0
MTEXT
  5
10A
100
AcDbEntity
  8
misure2
  6
CONTINUOUS
 62
    0
370
   -2
100
AcDbMText
 10
20.31611323863557
 20
-30.23438179616541
 30
0
 40
2.5
 41
4.027777777777933
 71
    5
 72
    1
  1
0,6
  7
standard
210
0
220
0
230
1
 50
90
 73
    2
 44
1
  0
LINE
  5
10B
100
AcDbEntity
  8
misure2
  6
ByBlock
 62
    0
370
   -2
100
AcDbLine
 10
18.625
 20
-33.47327068505437
 11
23.44111323863557
 21
-33.47327068505437
  0
LINE
  5
10C
100
AcDbEntity
  8
misure2
  6
ByBlock
 62
    0
370
   -2
100
AcDbLine
 10
18.625
 20
-32.87327068505438
 11
23.44111323863557
 21
-32.87327068505438
  0
ENDBLK
  5
8B
330
89
100
AcDbEntity
  8
0
100
AcDbBlockEnd
  0
BLOCK
  5
8D
330
8C
100
AcDbEntity
  8
0
100
AcDbBlockBegin
  2
*D11
 70
    1
 10
0
 20
0
  3
*D11
  1

  0
LINE
  5
10D
100
AcDbEntity
  8
misure2
  6
ByBlock
 62
    0
370
   -2
100
AcDbLine
 10
-3.399999999999999
 20
-45
 11
9.999999999999996
 21
-45
  0
SOLID
  5
10E
100
AcDbEntity
  8
misure2
  6
ByBlock
 62
    0
370
   -2
100
AcDbTrace
 10
1.600000000000001
 20
-45
 30
0
 11
-0.8999999999999986
 21
-45.41628465777284
 31
0
 12
-0.8999999999999986
 22
-44.58371534222716
 32
0
 13
-0.8999999999999986
 23
-44.58371534222716
 33
0
  0
SOLID
  5
10F
100
AcDbEntity
  8
misure2
  6
ByBlock
 62
    0
370
   -2
100
AcDbTrace
 10
4.999999999999997
 20
-45
 30
0
 11
7.499999999999997
 21
-44.58371534222716
 31
0
 12
7.499999999999997
 22
-45.41628465777284
 32
0
 13
7.499999999999997
 23
-45.41628465777284
 33
0
  0
MTEXT
  5
110
100
AcDbEntity
  8
misure2
  6
CONTINUOUS
 62
    0
370
   -2
100
AcDbMText
 10
7.777777777777852
 20
-43.125
 30
0
 40
2.5
 41
4.305555555555711
 71
    5
 72
    1
  1
3,4
  7
standard
210
0
220
0
230
1
 50
0
 73
    2
 44
1
  0
LINE
  5
111
100
AcDbEntity
  8
misure2
  6
ByBlock
 62
    0
370
   -2
100
AcDbLine
 10
1.600000000000001
 20
-38.29827068505438
 11
1.600000000000001
 21
-46.25
  0
LINE
  5
112
100
AcDbEntity
  8
misure2
  6
ByBlock
 62
    0
370
   -2
100
AcDbLine
 10
4.999999999999997
 20
-37.02499999999999
 11
4.999999999999997
 21
-46.25
  0
ENDBLK
  5
8E
330
8C
100
AcDbEntity
  8
0
100
AcDbBlockEnd
  0
BLOCK
  5
90
330
8F
100
AcDbEntity
  8
0
100
AcDbBlockBegin
  2
*D10
 70
    1
 10
0
 20
0
  3
*D10
  1

  0
LINE
  5
113
100
AcDbEntity
  8
misure2
  6
ByBlock
 62
    0
370
   -2
100
AcDbLine
 10
11.4
 20
-50
 11
23
 21
-50
  0
SOLID
  5
114
100
AcDbEntity
  8
misure2
  6
ByBlock
 62
    0
370
   -2
100
AcDbTrace
 10
16.4
 20
-50
 30
0
 11
13.9
 21
-50.41628465777284
 31
0
 12
13.9
 22
-49.58371534222716
 32
0
 13
13.9
 23
-49.58371534222716
 33
0
  0
SOLID
  5
115
100
AcDbEntity
  8
misure2
  6
ByBlock
 62
    0
370
   -2
100
AcDbTrace
 10
18
 20
-50
 30
0
 11
20.5
 21
-49.58371534222716
 31
0
 12
20.5
 22
-50.41628465777284
 32
0
 13
20.5
 23
-50.41628465777284
 33
0
  0
MTEXT
  5
116
100
AcDbEntity
  8
misure2
  6
CONTINUOUS
 62
    0
370
   -2
100
AcDbMText
 10
20.36111111111119
 20
-48.125
 30
0
 40
2.5
 41
3.472222222222378
 71
    5
 72
    1
  1
1,6
  7
standard
210
0
220
0
230
1
 50
0
 73
    2
 44
1
  0
LINE
  5
117
100
AcDbEntity
  8
misure2
  6
ByBlock
 62
    0
370
   -2
100
AcDbLine
 10
16.4
 20
-36.49827068505438
 11
16.4
 21
-51.25
  0
LINE
  5
118
100
AcDbEntity
  8
misure2
  6
ByBlock
 62
    0
370
   -2
100
AcDbLine
 10
18
 20
-36.625
 11
18
 21
-51.25
  0
ENDBLK
  5
91
330
8F
100
AcDbEntity
  8
0
100
AcDbBlockEnd
  0
BLOCK
  5
93
330
92
100
AcDbEntity
  8
0
100
AcDbBlockBegin
  2
180per80
 70
    0
 10
0
 20
0
  3
180per80
  1

  0
LWPOLYLINE
  5
119
100
AcDbEntity
  8
0
  6
ByLayer
 62
    3
370
  200
100
AcDbPolyline
 90
    4
 70
    1
 43
0
 10
0
 20
-1.6
 10
1.8
 20
-1.6
 10
1.8
 20
-0.7999999999999989
 10
0
 20
-0.7999999999999989
  0
LINE
  5
11A
100
AcDbEntity
  8
0
  6
ByLayer
 62
    3
370
  200
100
AcDbLine
 10
0
 20
-0.7999999999999989
 11
0
 21
0
  0
LINE
  5
11B
100
AcDbEntity
  8
0
  6
ByLayer
 62
    3
370
  200
100
AcDbLine
 10
1.8
 20
-0.7999999999999989
 11
1.8
 21
0
  0
LINE
  5
11C
100
AcDbEntity
  8
0
  6
ByLayer
 62
    3
370
  200
100
AcDbLine
 10
0
 20
0
 11
1.8
 21
0
  0
LWPOLYLINE
  5
11D
100
AcDbEntity
  8
0
  6
ByLayer
 62
    3
370
  200
100
AcDbPolyline
 90
    4
 70
    1
 43
0
 10
0.2952305229824148
 20
-0.5999999999999996
 10
0.6952305229824152
 20
-0.5999999999999996
 10
0.6952305229824152
 20
-0.1999999999999993
 10
0.2952305229824148
 20
-0.1999999999999993
  0
LWPOLYLINE
  5
11E
100
AcDbEntity
  8
0
  6
ByLayer
 62
    3
370
  200
100
AcDbPolyline
 90
    4
 70
    1
 43
0
 10
1.18396322529289
 20
-0.5999999999999996
 10
1.58396322529289
 20
-0.5999999999999996
 10
1.58396322529289
 20
-0.1999999999999993
 10
1.18396322529289
 20
-0.1999999999999993
  0
LINE
  5
11F
100
AcDbEntity
  8
0
  6
ByLayer
 62
    3
370
  200
100
AcDbLine
 10
2.4
 20
-1.6
 11
2.4
 21
4.440892098500626e-16
  0
ENDBLK
  5
94
330
92
100
AcDbEntity
  8
0
100
AcDbBlockEnd
  0
ENDSEC
  0
SECTION
  2
ENTITIES
  0
LWPOLYLINE
  5
120
100
AcDbEntity
  8
0
  6
ByLayer
 62
  256
370
   -1
100
AcDbPolyline
 90
    4
 70
    1
 43
0
 10
0
 20
-40
 10
18
 20
-40
 10
18
 20
-22
 10
0
 20
-22
  0
INSERT
  5
121
100
AcDbEntity
  8
0
  6
ByLayer
 62
  256
370
   -1
100
AcDbBlockReference
  2
180per80
 10
0
 20
-23.87327068505438
 30
0
 41
-1
 42
1
 43
0
 50
90
 70
    1
 71
    1
 44
1
 45
1
  0
INSERT
  5
122
100
AcDbEntity
  8
0
  6
ByLayer
 62
  256
370
   -1
100
AcDbBlockReference
  2
180per80
 10
1.600258763523425
 20
-22.27327068505438
 30
0
 41
1
 42
1
 43
0
 50
0
 70
    1
 71
    1
 44
1
 45
1
  0
INSERT
  5
123
100
AcDbEntity
  8
0
  6
ByLayer
 62
  256
370
   -1
100
AcDbBlockReference
  2
180per80
 10
4.000258763523425
 20
-22.27327068505438
 30
0
 41
1
 42
1
 43
0
 50
0
 70
    1
 71
    1
 44
1
 45
1
  0
INSERT
  5
124
100
AcDbEntity
  8
0
  6
ByLayer
 62
  256
370
   -1
100
AcDbBlockReference
  2
180per80
 10
6.400258763523425
 20
-22.27327068505438
 30
0
 41
1
 42
1
 43
0
 50
0
 70
    1
 71
    1
 44
1
 45
1
  0
INSERT
  5
125
100
AcDbEntity
  8
0
  6
ByLayer
 62
  256
370
   -1
100
AcDbBlockReference
  2
180per80
 10
8.800258763523424
 20
-22.27327068505438
 30
0
 41
1
 42
1
 43
0
 50
0
 70
    1
 71
    1
 44
1
 45
1
  0
INSERT
  5
126
100
AcDbEntity
  8
0
  6
ByLayer
 62
  256
370
   -1
100
AcDbBlockReference
  2
180per80
 10
11.20025876352343
 20
-22.27327068505438
 30
0
 41
1
 42
1
 43
0
 50
0
 70
    1
 71
    1
 44
1
 45
1
  0
INSERT
  5
127
100
AcDbEntity
  8
0
  6
ByLayer
 62
  256
370
   -1
100
AcDbBlockReference
  2
180per80
 10
13.60025876352342
 20
-22.27327068505438
 30
0
 41
1
 42
1
 43
0
 50
0
 70
    1
 71
    1
 44
1
 45
1
  0
INSERT
  5
128
100
AcDbEntity
  8
0
  6
ByLayer
 62
  256
370
   -1
100
AcDbBlockReference
  2
180per80
 10
0
 20
-26.27327068505438
 30
0
 41
-1
 42
1
 43
0
 50
90
 70
    1
 71
    1
 44
1
 45
1
  0
INSERT
  5
129
100
AcDbEntity
  8
0
  6
ByLayer
 62
  256
370
   -1
100
AcDbBlockReference
  2
180per80
 10
0
 20
-28.67327068505438
 30
0
 41
-1
 42
1
 43
0
 50
90
 70
    1
 71
    1
 44
1
 45
1
  0
INSERT
  5
12A
100
AcDbEntity
  8
0
  6
ByLayer
 62
  256
370
   -1
100
AcDbBlockReference
  2
180per80
 10
0
 20
-31.07327068505438
 30
0
 41
-1
 42
1
 43
0
 50
90
 70
    1
 71
    1
 44
1
 45
1
  0
INSERT
  5
12B
100
AcDbEntity
  8
0
  6
ByLayer
 62
  256
370
   -1
100
AcDbBlockReference
  2
180per80
 10
0
 20
-33.47327068505437
 30
0
 41
-1
 42
1
 43
0
 50
90
 70
    1
 71
    1
 44
1
 45
1
  0
INSERT
  5
12C
100
AcDbEntity
  8
0
  6
ByLayer
 62
  256
370
   -1
100
AcDbBlockReference
  2
180per80
 10
0
 20
-35.87327068505438
 30
0
 41
-1
 42
1
 43
0
 50
90
 70
    1
 71
    1
 44
1
 45
1
  0
INSERT
  5
12D
100
AcDbEntity
  8
0
  6
ByLayer
 62
  256
370
   -1
100
AcDbBlockReference
  2
180per80
 10
1.600000000000001
 20
-40
 30
0
 41
-1
 42
1
 43
0
 50
180
 70
    1
 71
    1
 44
1
 45
1
  0
INSERT
  5
12E
100
AcDbEntity
  8
0
  6
ByLayer
 62
  256
370
   -1
100
AcDbBlockReference
  2
180per80
 10
4.000000000000002
 20
-40
 30
0
 41
-1
 42
1
 43
0
 50
180
 70
    1
 71
    1
 44
1
 45
1
  0
INSERT
  5
12F
100
AcDbEntity
  8
0
  6
ByLayer
 62
  256
370
   -1
100
AcDbBlockReference
  2
180per80
 10
6.400000000000002
 20
-40
 30
0
 41
-1
 42
1
 43
0
 50
180
 70
    1
 71
    1
 44
1
 45
1
  0
INSERT
  5
130
100
AcDbEntity
  8
0
  6
ByLayer
 62
  256
370
   -1
100
AcDbBlockReference
  2
180per80
 10
8.800000000000002
 20
-40
 30
0
 41
-1
 42
1
 43
0
 50
180
 70
    1
 71
    1
 44
1
 45
1
  0
INSERT
  5
131
100
AcDbEntity
  8
0
  6
ByLayer
 62
  256
370
   -1
100
AcDbBlockReference
  2
180per80
 10
11.2
 20
-40
 30
0
 41
-1
 42
1
 43
0
 50
180
 70
    1
 71
    1
 44
1
 45
1
  0
INSERT
  5
132
100
AcDbEntity
  8
0
  6
ByLayer
 62
  256
370
   -1
100
AcDbBlockReference
  2
180per80
 10
13.6
 20
-40
 30
0
 41
-1
 42
1
 43
0
 50
180
 70
    1
 71
    1
 44
1
 45
1
  0
INSERT
  5
133
100
AcDbEntity
  8
0
  6
ByLayer
 62
  256
370
   -1
100
AcDbBlockReference
  2
180per80
 10
18
 20
-23.87327068505438
 30
0
 41
1
 42
1
 43
0
 50
270
 70
    1
 71
    1
 44
1
 45
1
  0
INSERT
  5
134
100
AcDbEntity
  8
0
  6
ByLayer
 62
  256
370
   -1
100
AcDbBlockReference
  2
180per80
 10
18
 20
-26.27327068505438
 30
0
 41
1
 42
1
 43
0
 50
270
 70
    1
 71
    1
 44
1
 45
1
  0
INSERT
  5
135
100
AcDbEntity
  8
0
  6
ByLayer
 62
  256
370
   -1
100
AcDbBlockReference
  2
180per80
 10
18
 20
-28.67327068505438
 30
0
 41
1
 42
1
 43
0
 50
270
 70
    1
 71
    1
 44
1
 45
1
  0
INSERT
  5
136
100
AcDbEntity
  8
0
  6
ByLayer
 62
  256
370
   -1
100
AcDbBlockReference
  2
180per80
 10
18
 20
-31.07327068505438
 30
0
 41
1
 42
1
 43
0
 50
270
 70
    1
 71
    1
 44
1
 45
1
  0
INSERT
  5
137
100
AcDbEntity
  8
0
  6
ByLayer
 62
  256
370
   -1
100
AcDbBlockReference
  2
180per80
 10
18
 20
-33.47327068505437
 30
0
 41
1
 42
1
 43
0
 50
270
 70
    1
 71
    1
 44
1
 45
1
  0
INSERT
  5
138
100
AcDbEntity
  8
0
  6
ByLayer
 62
  256
370
   -1
100
AcDbBlockReference
  2
180per80
 10
18
 20
-35.87327068505438
 30
0
 41
1
 42
1
 43
0
 50
270
 70
    1
 71
    1
 44
1
 45
1
  0
INSERT
  5
139
100
AcDbEntity
  8
0
  6
ByLayer
 62
  256
370
   -1
100
AcDbBlockReference
  2
180per80
 10
6.600000000000001
 20
-25.85070033412981
 30
0
 41
1
 42
1
 43
0
 50
270
 70
    1
 71
    1
 44
1
 45
1
  0
INSERT
  5
13A
100
AcDbEntity
  8
0
  6
ByLayer
 62
  256
370
   -1
100
AcDbBlockReference
  2
180per80
 10
6.600000000000001
 20
-25.85070033412981
 30
0
 41
-1
 42
1
 43
0
 50
90
 70
    1
 71
    1
 44
1
 45
1
  0
INSERT
  5
13B
100
AcDbEntity
  8
0
  6
ByLayer
 62
  256
370
   -1
100
AcDbBlockReference
  2
180per80
 10
11.8
 20
-25.85070033412981
 30
0
 41
1
 42
1
 43
0
 50
270
 70
    1
 71
    1
 44
1
 45
1
  0
INSERT
  5
13C
100
AcDbEntity
  8
0
  6
ByLayer
 62
  256
370
   -1
100
AcDbBlockReference
  2
180per80
 10
11.8
 20
-25.85070033412981
 30
0
 41
-1
 42
1
 43
0
 50
90
 70
    1
 71
    1
 44
1
 45
1
  0
INSERT
  5
13D
100
AcDbEntity
  8
0
  6
ByLayer
 62
  256
370
   -1
100
AcDbBlockReference
  2
180per80
 10
6.600000000000001
 20
-28.25070033412981
 30
0
 41
1
 42
1
 43
0
 50
270
 70
    1
 71
    1
 44
1
 45
1
  0
INSERT
  5
13E
100
AcDbEntity
  8
0
  6
ByLayer
 62
  256
370
   -1
100
AcDbBlockReference
  2
180per80
 10
6.600000000000001
 20
-28.25070033412981
 30
0
 41
-1
 42
1
 43
0
 50
90
 70
    1
 71
    1
 44
1
 45
1
  0
INSERT
  5
13F
100
AcDbEntity
  8
0
  6
ByLayer
 62
  256
370
   -1
100
AcDbBlockReference
  2
180per80
 10
11.8
 20
-28.25070033412981
 30
0
 41
1
 42
1
 43
0
 50
270
 70
    1
 71
    1
 44
1
 45
1
  0
INSERT
  5
140
100
AcDbEntity
  8
0
  6
ByLayer
 62
  256
370
   -1
100
AcDbBlockReference
  2
180per80
 10
11.8
 20
-28.25070033412981
 30
0
 41
-1
 42
1
 43
0
 50
90
 70
    1
 71
    1
 44
1
 45
1
  0
INSERT
  5
141
100
AcDbEntity
  8
0
  6
ByLayer
 62
  256
370
   -1
100
AcDbBlockReference
  2
180per80
 10
6.600000000000001
 20
-30.65070033412981
 30
0
 41
1
 42
1
 43
0
 50
270
 70
    1
 71
    1
 44
1
 45
1
  0
INSERT
  5
142
100
AcDbEntity
  8
0
  6
ByLayer
 62
  256
370
   -1
100
AcDbBlockReference
  2
180per80
 10
6.600000000000001
 20
-30.65070033412981
 30
0
 41
-1
 42
1
 43
0
 50
90
 70
    1
 71
    1
 44
1
 45
1
  0
INSERT
  5
143
100
AcDbEntity
  8
0
  6
ByLayer
 62
  256
370
   -1
100
AcDbBlockReference
  2
180per80
 10
11.8
 20
-30.65070033412981
 30
0
 41
1
 42
1
 43
0
 50
270
 70
    1
 71
    1
 44
1
 45
1
  0
INSERT
  5
144
100
AcDbEntity
  8
0
  6
ByLayer
 62
  256
370
   -1
100
AcDbBlockReference
  2
180per80
 10
11.8
 20
-30.65070033412981
 30
0
 41
-1
 42
1
 43
0
 50
90
 70
    1
 71
    1
 44
1
 45
1
  0
INSERT
  5
145
100
AcDbEntity
  8
0
  6
ByLayer
 62
  256
370
   -1
100
AcDbBlockReference
  2
180per80
 10
6.6
 20
-33.05070033412981
 30
0
 41
1
 42
1
 43
0
 50
270
 70
    1
 71
    1
 44
1
 45
1
  0
INSERT
  5
146
100
AcDbEntity
  8
0
  6
ByLayer
 62
  256
370
   -1
100
AcDbBlockReference
  2
180per80
 10
6.6
 20
-33.05070033412981
 30
0
 41
-1
 42
1
 43
0
 50
90
 70
    1
 71
    1
 44
1
 45
1
  0
INSERT
  5
147
100
AcDbEntity
  8
0
  6
ByLayer
 62
  256
370
   -1
100
AcDbBlockReference
  2
180per80
 10
11.8
 20
-33.05070033412981
 30
0
 41
1
 42
1
 43
0
 50
270
 70
    1
 71
    1
 44
1
 45
1
  0
INSERT
  5
148
100
AcDbEntity
  8
0
  6
ByLayer
 62
  256
370
   -1
100
AcDbBlockReference
  2
180per80
 10
11.8
 20
-33.05070033412981
 30
0
 41
-1
 42
1
 43
0
 50
90
 70
    1
 71
    1
 44
1
 45
1
  0
INSERT
  5
149
100
AcDbEntity
  8
0
  6
ByLayer
 62
  256
370
   -1
100
AcDbBlockReference
  2
180per80
 10
6.599999999999999
 20
-35.45070033412981
 30
0
 41
1
 42
1
 43
0
 50
270
 70
    1
 71
    1
 44
1
 45
1
  0
INSERT
  5
14A
100
AcDbEntity
  8
0
  6
ByLayer
 62
  256
370
   -1
100
AcDbBlockReference
  2
180per80
 10
6.599999999999999
 20
-35.45070033412981
 30
0
 41
-1
 42
1
 43
0
 50
90
 70
    1
 71
    1
 44
1
 45
1
  0
INSERT
  5
14B
100
AcDbEntity
  8
0
  6
ByLayer
 62
  256
370
   -1
100
AcDbBlockReference
  2
180per80
 10
11.8
 20
-35.45070033412981
 30
0
 41
1
 42
1
 43
0
 50
270
 70
    1
 71
    1
 44
1
 45
1
  0
INSERT
  5
14C
100
AcDbEntity
  8
0
  6
ByLayer
 62
  256
370
   -1
100
AcDbBlockReference
  2
180per80
 10
11.8
 20
-35.45070033412981
 30
0
 41
-1
 42
1
 43
0
 50
90
 70
    1
 71
    1
 44
1
 45
1
  0
DIMENSION
  5
14D
100
AcDbEntity
  8
misure2
  6
ByLayer
 62
  256
370
   -1
100
AcDbDimension
  2
*D1
 10
-8
 20
-22
 30
0
 11
-9.875
 21
-31
 31
0
 70
   32
 71
    5
 72
    0
  3
Standard
 53
0
210
0
220
0
230
1
100
AcDbAlignedDimension
 13
0
 23
-40
 33
0
 14
0
 24
-22
 34
0
 50
90
100
AcDbRotatedDimension
  0
DIMENSION
  5
14E
100
AcDbEntity
  8
misure2
  6
ByLayer
 62
  256
370
   -1
100
AcDbDimension
  2
*D2
 10
-2.764156210426534
 20
-38.4
 30
0
 11
-4.639156210426534
 21
-37.8253501670649
 31
0
 70
   32
 71
    5
 72
    0
  3
Standard
 53
0
210
0
220
0
230
1
100
AcDbAlignedDimension
 13
5
 23
-37.2507003341298
 33
0
 14
5
 24
-38.4
 34
0
 50
90
100
AcDbRotatedDimension
  0
DIMENSION
  5
14F
100
AcDbEntity
  8
misure2
  6
ByLayer
 62
  256
370
   -1
100
AcDbDimension
  2
*D3
 10
-11.79632861632732
 20
-23.87327068505438
 30
0
 11
-13.67132861632732
 21
-24.8619855095921
 31
0
 70
   32
 71
    5
 72
    0
  3
Standard
 53
0
210
0
220
0
230
1
100
AcDbAlignedDimension
 13
5
 23
-25.85070033412981
 33
0
 14
5.800258763523424
 24
-23.87327068505438
 34
0
 50
90
100
AcDbRotatedDimension
  0
LINE
  5
150
100
AcDbEntity
  8
misure
  6
ByLayer
 62
    2
370
  200
100
AcDbLine
 10
0
 20
-7
 11
30
 21
-7
  0
LINE
  5
151
100
AcDbEntity
  8
misure
  6
ByLayer
 62
    2
370
  200
100
AcDbLine
 10
0
 20
-7
 11
2.449293598294706e-16
 21
-3
  0
LINE
  5
152
100
AcDbEntity
  8
misure
  6
ByLayer
 62
    2
370
  200
100
AcDbLine
 10
0
 20
-3
 11
30
 21
-3
  0
LINE
  5
153
100
AcDbEntity
  8
misure
  6
ByLayer
 62
    2
370
  200
100
AcDbLine
 10
30
 20
-7
 11
30
 21
-3
  0
LWPOLYLINE
  5
154
100
AcDbEntity
  8
misure
  6
ByLayer
 62
    2
370
  200
100
AcDbPolyline
 90
    4
 70
    1
 43
0
 10
0.04147107430388619
 20
-4.604493459456263
 10
1.841471074303886
 20
-4.604493459456263
 10
1.841471074303886
 20
-3.804493459456262
 10
0.04147107430388619
 20
-3.804493459456262
  0
LINE
  5
155
100
AcDbEntity
  8
misure
  6
ByLayer
 62
    2
370
  200
100
AcDbLine
 10
0.04147107430388619
 20
-3.804493459456262
 11
0.04147107430388619
 21
-3.004493459456262
  0
LINE
  5
156
100
AcDbEntity
  8
misure
  6
ByLayer
 62
    2
370
  200
100
AcDbLine
 10
1.841471074303886
 20
-3.804493459456262
 11
1.841471074303886
 21
-3.004493459456262
  0
LINE
  5
157
100
AcDbEntity
  8
misure
  6
ByLayer
 62
    2
370
  200
100
AcDbLine
 10
0.04147107430388619
 20
-3.004493459456262
 11
1.841471074303886
 21
-3.004493459456262
  0
LWPOLYLINE
  5
158
100
AcDbEntity
  8
misure
  6
ByLayer
 62
    2
370
  200
100
AcDbPolyline
 90
    4
 70
    1
 43
0
 10
0.336701597286301
 20
-3.604493459456263
 10
0.7367015972863014
 20
-3.604493459456263
 10
0.7367015972863014
 20
-3.204493459456263
 10
0.336701597286301
 20
-3.204493459456263
  0
LWPOLYLINE
  5
159
100
AcDbEntity
  8
misure
  6
ByLayer
 62
    2
370
  200
100
AcDbPolyline
 90
    4
 70
    1
 43
0
 10
1.225434299596776
 20
-3.604493459456263
 10
1.625434299596776
 20
-3.604493459456263
 10
1.625434299596776
 20
-3.204493459456263
 10
1.225434299596776
 20
-3.204493459456263
  0
LWPOLYLINE
  5
15A
100
AcDbEntity
  8
misure
  6
ByLayer
 62
    2
370
  200
100
AcDbPolyline
 90
    4
 70
    1
 43
0
 10
2.301693767680086
 20
-4.638564679680097
 10
4.101693767680086
 20
-4.638564679680097
 10
4.101693767680086
 20
-3.838564679680096
 10
2.301693767680086
 20
-3.838564679680096
  0
LINE
  5
15B
100
AcDbEntity
  8
misure
  6
ByLayer
 62
    2
370
  200
100
AcDbLine
 10
2.301693767680086
 20
-3.838564679680096
 11
2.301693767680086
 21
-3.038564679680095
  0
LINE
  5
15C
100
AcDbEntity
  8
misure
  6
ByLayer
 62
    2
370
  200
100
AcDbLine
 10
4.101693767680086
 20
-3.838564679680096
 11
4.101693767680086
 21
-3.038564679680095
  0
LINE
  5
15D
100
AcDbEntity
  8
misure
  6
ByLayer
 62
    2
370
  200
100
AcDbLine
 10
2.301693767680086
 20
-3.038564679680095
 11
4.101693767680086
 21
-3.038564679680095
  0
LWPOLYLINE
  5
15E
100
AcDbEntity
  8
misure
  6
ByLayer
 62
    2
370
  200
100
AcDbPolyline
 90
    4
 70
    1
 43
0
 10
2.596924290662501
 20
-3.638564679680097
 10
2.996924290662501
 20
-3.638564679680097
 10
2.996924290662501
 20
-3.238564679680096
 10
2.596924290662501
 20
-3.238564679680096
  0
LWPOLYLINE
  5
15F
100
AcDbEntity
  8
misure
  6
ByLayer
 62
    2
370
  200
100
AcDbPolyline
 90
    4
 70
    1
 43
0
 10
3.485656992972975
 20
-3.638564679680097
 10
3.885656992972976
 20
-3.638564679680097
 10
3.885656992972976
 20
-3.238564679680096
 10
3.485656992972975
 20
-3.238564679680096
  0
LWPOLYLINE
  5
160
100
AcDbEntity
  8
misure
  6
ByLayer
 62
    2
370
  200
100
AcDbPolyline
 90
    4
 70
    1
 43
0
 10
4.561916461056286
 20
-4.672635899903931
 10
6.361916461056285
 20
-4.672635899903931
 10
6.361916461056285
 20
-3.87263589990393
 10
4.561916461056286
 20
-3.87263589990393
  0
LINE
  5
161
100
AcDbEntity
  8
misure
  6
ByLayer
 62
    2
370
  200
100
AcDbLine
 10
4.561916461056286
 20
-3.87263589990393
 11
4.561916461056286
 21
-3.072635899903929
  0
LINE
  5
162
100
AcDbEntity
  8
misure
  6
ByLayer
 62
    2
370
  200
100
AcDbLine
 10
6.361916461056285
 20
-3.87263589990393
 11
6.361916461056285
 21
-3.072635899903929
  0
LINE
  5
163
100
AcDbEntity
  8
misure
  6
ByLayer
 62
    2
370
  200
100
AcDbLine
 10
4.561916461056286
 20
-3.072635899903929
 11
6.361916461056285
 21
-3.072635899903929
  0
LWPOLYLINE
  5
164
100
AcDbEntity
  8
misure
  6
ByLayer
 62
    2
370
  200
100
AcDbPolyline
 90
    4
 70
    1
 43
0
 10
4.8571469840387
 20
-3.672635899903931
 10
5.257146984038701
 20
-3.672635899903931
 10
5.257146984038701
 20
-3.27263589990393
 10
4.8571469840387
 20
-3.27263589990393
  0
LWPOLYLINE
  5
165
100
AcDbEntity
  8
misure
  6
ByLayer
 62
    2
370
  200
100
AcDbPolyline
 90
    4
 70
    1
 43
0
 10
5.745879686349175
 20
-3.672635899903931
 10
6.145879686349176
 20
-3.672635899903931
 10
6.145879686349176
 20
-3.27263589990393
 10
5.745879686349175
 20
-3.27263589990393
  0
LWPOLYLINE
  5
166
100
AcDbEntity
  8
misure
  6
ByLayer
 62
    2
370
  200
100
AcDbPolyline
 90
    4
 70
    1
 43
0
 10
6.822139154432485
 20
-4.706707120127764
 10
8.622139154432485
 20
-4.706707120127764
 10
8.622139154432485
 20
-3.906707120127764
 10
6.822139154432485
 20
-3.906707120127764
  0
LINE
  5
167
100
AcDbEntity
  8
misure
  6
ByLayer
 62
    2
370
  200
100
AcDbLine
 10
6.822139154432485
 20
-3.906707120127764
 11
6.822139154432485
 21
-3.106707120127763
  0
LINE
  5
168
100
AcDbEntity
  8
misure
  6
ByLayer
 62
    2
370
  200
100
AcDbLine
 10
8.622139154432485
 20
-3.906707120127764
 11
8.622139154432485
 21
-3.106707120127763
  0
LINE
  5
169
100
AcDbEntity
  8
misure
  6
ByLayer
 62
    2
370
  200
100
AcDbLine
 10
6.822139154432485
 20
-3.106707120127763
 11
8.622139154432485
 21
-3.106707120127763
  0
LWPOLYLINE
  5
16A
100
AcDbEntity
  8
misure
  6
ByLayer
 62
    2
370
  200
100
AcDbPolyline
 90
    4
 70
    1
 43
0
 10
7.1173696774149
 20
-3.706707120127764
 10
7.517369677414901
 20
-3.706707120127764
 10
7.517369677414901
 20
-3.306707120127764
 10
7.1173696774149
 20
-3.306707120127764
  0
LWPOLYLINE
  5
16B
100
AcDbEntity
  8
misure
  6
ByLayer
 62
    2
370
  200
100
AcDbPolyline
 90
    4
 70
    1
 43
0
 10
8.006102379725375
 20
-3.706707120127764
 10
8.406102379725375
 20
-3.706707120127764
 10
8.406102379725375
 20
-3.306707120127764
 10
8.006102379725375
 20
-3.306707120127764
  0
LWPOLYLINE
  5
16C
100
AcDbEntity
  8
misure
  6
ByLayer
 62
    2
370
  200
100
AcDbPolyline
 90
    4
 70
    1
 43
0
 10
9.082361847808684
 20
-4.740778340351598
 10
10.88236184780868
 20
-4.740778340351598
 10
10.88236184780868
 20
-3.940778340351597
 10
9.082361847808684
 20
-3.940778340351597
  0
LINE
  5
16D
100
AcDbEntity
  8
misure
  6
ByLayer
 62
    2
370
  200
100
AcDbLine
 10
9.082361847808684
 20
-3.940778340351597
 11
9.082361847808684
 21
-3.140778340351597
  0
LINE
  5
16E
100
AcDbEntity
  8
misure
  6
ByLayer
 62
    2
370
  200
100
AcDbLine
 10
10.88236184780868
 20
-3.940778340351597
 11
10.88236184780868
 21
-3.140778340351597
  0
LINE
  5
16F
100
AcDbEntity
  8
misure
  6
ByLayer
 62
    2
370
  200
100
AcDbLine
 10
9.082361847808684
 20
-3.140778340351597
 11
10.88236184780868
 21
-3.140778340351597
  0
LWPOLYLINE
  5
170
100
AcDbEntity
  8
misure
  6
ByLayer
 62
    2
370
  200
100
AcDbPolyline
 90
    4
 70
    1
 43
0
 10
9.377592370791099
 20
-3.740778340351598
 10
9.777592370791101
 20
-3.740778340351598
 10
9.777592370791101
 20
-3.340778340351598
 10
9.377592370791099
 20
-3.340778340351598
  0
LWPOLYLINE
  5
171
100
AcDbEntity
  8
misure
  6
ByLayer
 62
    2
370
  200
100
AcDbPolyline
 90
    4
 70
    1
 43
0
 10
10.26632507310157
 20
-3.740778340351598
 10
10.66632507310158
 20
-3.740778340351598
 10
10.66632507310158
 20
-3.340778340351598
 10
10.26632507310157
 20
-3.340778340351598
  0
LWPOLYLINE
  5
172
100
AcDbEntity
  8
misure
  6
ByLayer
 62
    2
370
  200
100
AcDbPolyline
 90
    4
 70
    1
 43
0
 10
11.34258454118488
 20
-4.774849560575432
 10
13.14258454118488
 20
-4.774849560575432
 10
13.14258454118488
 20
-3.974849560575431
 10
11.34258454118488
 20
-3.974849560575431
  0
LINE
  5
173
100
AcDbEntity
  8
misure
  6
ByLayer
 62
    2
370
  200
100
AcDbLine
 10
11.34258454118488
 20
-3.974849560575431
 11
11.34258454118488
 21
-3.174849560575431
  0
LINE
  5
174
100
AcDbEntity
  8
misure
  6
ByLayer
 62
    2
370
  200
100
AcDbLine
 10
13.14258454118488
 20
-3.974849560575431
 11
13.14258454118488
 21
-3.174849560575431
  0
LINE
  5
175
100
AcDbEntity
  8
misure
  6
ByLayer
 62
    2
370
  200
100
AcDbLine
 10
11.34258454118488
 20
-3.174849560575431
 11
13.14258454118488
 21
-3.174849560575431
  0
LWPOLYLINE
  5
176
100
AcDbEntity
  8
misure
  6
ByLayer
 62
    2
370
  200
100
AcDbPolyline
 90
    4
 70
    1
 43
0
 10
11.6378150641673
 20
-3.774849560575432
 10
12.0378150641673
 20
-3.774849560575432
 10
12.0378150641673
 20
-3.374849560575432
 10
11.6378150641673
 20
-3.374849560575432
  0
LWPOLYLINE
  5
177
100
AcDbEntity
  8
misure
  6
ByLayer
 62
    2
370
  200
100
AcDbPolyline
 90
    4
 70
    1
 43
0
 10
12.52654776647777
 20
-3.774849560575432
 10
12.92654776647777
 20
-3.774849560575432
 10
12.92654776647777
 20
-3.374849560575432
 10
12.52654776647777
 20
-3.374849560575432
  0
LWPOLYLINE
  5
178
100
AcDbEntity
  8
misure
  6
ByLayer
 62
    2
370
  200
100
AcDbPolyline
 90
    4
 70
    1
 43
0
 10
13.60280723456108
 20
-4.808920780799266
 10
15.40280723456108
 20
-4.808920780799266
 10
15.40280723456108
 20
-4.008920780799265
 10
13.60280723456108
 20
-4.008920780799265
  0
LINE
  5
179
100
AcDbEntity
  8
misure
  6
ByLayer
 62
    2
370
  200
100
AcDbLine
 10
13.60280723456108
 20
-4.008920780799265
 11
13.60280723456108
 21
-3.208920780799264
  0
LINE
  5
17A
100
AcDbEntity
  8
misure
  6
ByLayer
 62
    2
370
  200
100
AcDbLine
 10
15.40280723456108
 20
-4.008920780799265
 11
15.40280723456108
 21
-3.208920780799264
  0
LINE
  5
17B
100
AcDbEntity
  8
misure
  6
ByLayer
 62
    2
370
  200
100
AcDbLine
 10
13.60280723456108
 20
-3.208920780799264
 11
15.40280723456108
 21
-3.208920780799264
  0
LWPOLYLINE
  5
17C
100
AcDbEntity
  8
misure
  6
ByLayer
 62
    2
370
  200
100
AcDbPolyline
 90
    4
 70
    1
 43
0
 10
13.8980377575435
 20
-3.808920780799266
 10
14.2980377575435
 20
-3.808920780799266
 10
14.2980377575435
 20
-3.408920780799265
 10
13.8980377575435
 20
-3.408920780799265
  0
LWPOLYLINE
  5
17D
100
AcDbEntity
  8
misure
  6
ByLayer
 62
    2
370
  200
100
AcDbPolyline
 90
    4
 70
    1
 43
0
 10
14.78677045985397
 20
-3.808920780799266
 10
15.18677045985397
 20
-3.808920780799266
 10
15.18677045985397
 20
-3.408920780799265
 10
14.78677045985397
 20
-3.408920780799265
  0
LWPOLYLINE
  5
17E
100
AcDbEntity
  8
misure
  6
ByLayer
 62
    2
370
  200
100
AcDbPolyline
 90
    4
 70
    1
 43
0
 10
15.86302992793728
 20
-4.8429920010231
 10
17.66302992793728
 20
-4.8429920010231
 10
17.66302992793728
 20
-4.042992001023099
 10
15.86302992793728
 20
-4.042992001023099
  0
LINE
  5
17F
100
AcDbEntity
  8
misure
  6
ByLayer
 62
    2
370
  200
100
AcDbLine
 10
15.86302992793728
 20
-4.042992001023099
 11
15.86302992793728
 21
-3.242992001023098
  0
LINE
  5
180
100
AcDbEntity
  8
misure
  6
ByLayer
 62
    2
370
  200
100
AcDbLine
 10
17.66302992793728
 20
-4.042992001023099
 11
17.66302992793728
 21
-3.242992001023098
  0
LINE
  5
181
100
AcDbEntity
  8
misure
  6
ByLayer
 62
    2
370
  200
100
AcDbLine
 10
15.86302992793728
 20
-3.242992001023098
 11
17.66302992793728
 21
-3.242992001023098
  0
LWPOLYLINE
  5
182
100
AcDbEntity
  8
misure
  6
ByLayer
 62
    2
370
  200
100
AcDbPolyline
 90
    4
 70
    1
 43
0
 10
16.1582604509197
 20
-3.8429920010231
 10
16.5582604509197
 20
-3.8429920010231
 10
16.5582604509197
 20
-3.442992001023099
 10
16.1582604509197
 20
-3.442992001023099
  0
LWPOLYLINE
  5
183
100
AcDbEntity
  8
misure
  6
ByLayer
 62
    2
370
  200
100
AcDbPolyline
 90
    4
 70
    1
 43
0
 10
17.04699315323018
 20
-3.8429920010231
 10
17.44699315323017
 20
-3.8429920010231
 10
17.44699315323017
 20
-3.442992001023099
 10
17.04699315323018
 20
-3.442992001023099
  0
LWPOLYLINE
  5
184
100
AcDbEntity
  8
misure
  6
ByLayer
 62
    2
370
  200
100
AcDbPolyline
 90
    4
 70
    1
 43
0
 10
18.12325262131348
 20
-4.877063221246933
 10
19.92325262131348
 20
-4.877063221246933
 10
19.92325262131348
 20
-4.077063221246933
 10
18.12325262131348
 20
-4.077063221246933
  0
LINE
  5
185
100
AcDbEntity
  8
misure
  6
ByLayer
 62
    2
370
  200
100
AcDbLine
 10
18.12325262131348
 20
-4.077063221246933
 11
18.12325262131348
 21
-3.277063221246932
  0
LINE
  5
186
100
AcDbEntity
  8
misure
  6
ByLayer
 62
    2
370
  200
100
AcDbLine
 10
19.92325262131348
 20
-4.077063221246933
 11
19.92325262131348
 21
-3.277063221246932
  0
LINE
  5
187
100
AcDbEntity
  8
misure
  6
ByLayer
 62
    2
370
  200
100
AcDbLine
 10
18.12325262131348
 20
-3.277063221246932
 11
19.92325262131348
 21
-3.277063221246932
  0
LWPOLYLINE
  5
188
100
AcDbEntity
  8
misure
  6
ByLayer
 62
    2
370
  200
100
AcDbPolyline
 90
    4
 70
    1
 43
0
 10
18.4184831442959
 20
-3.877063221246933
 10
18.8184831442959
 20
-3.877063221246933
 10
18.8184831442959
 20
-3.477063221246933
 10
18.4184831442959
 20
-3.477063221246933
  0
LWPOLYLINE
  5
189
100
AcDbEntity
  8
misure
  6
ByLayer
 62
    2
370
  200
100
AcDbPolyline
 90
    4
 70
    1
 43
0
 10
19.30721584660638
 20
-3.877063221246933
 10
19.70721584660637
 20
-3.877063221246933
 10
19.70721584660637
 20
-3.477063221246933
 10
19.30721584660638
 20
-3.477063221246933
  0
LWPOLYLINE
  5
18A
100
AcDbEntity
  8
misure
  6
ByLayer
 62
    2
370
  200
100
AcDbPolyline
 90
    4
 70
    1
 43
0
 10
20.38347531468968
 20
-4.911134441470767
 10
22.18347531468968
 20
-4.911134441470767
 10
22.18347531468968
 20
-4.111134441470766
 10
20.38347531468968
 20
-4.111134441470766
  0
LINE
  5
18B
100
AcDbEntity
  8
misure
  6
ByLayer
 62
    2
370
  200
100
AcDbLine
 10
20.38347531468968
 20
-4.111134441470766
 11
20.38347531468968
 21
-3.311134441470766
  0
LINE
  5
18C
100
AcDbEntity
  8
misure
  6
ByLayer
 62
    2
370
  200
100
AcDbLine
 10
22.18347531468968
 20
-4.111134441470766
 11
22.18347531468968
 21
-3.311134441470766
  0
LINE
  5
18D
100
AcDbEntity
  8
misure
  6
ByLayer
 62
    2
370
  200
100
AcDbLine
 10
20.38347531468968
 20
-3.311134441470766
 11
22.18347531468968
 21
-3.311134441470766
  0
LWPOLYLINE
  5
18E
100
AcDbEntity
  8
misure
  6
ByLayer
 62
    2
370
  200
100
AcDbPolyline
 90
    4
 70
    1
 43
0
 10
20.6787058376721
 20
-3.911134441470767
 10
21.0787058376721
 20
-3.911134441470767
 10
21.0787058376721
 20
-3.511134441470767
 10
20.6787058376721
 20
-3.511134441470767
  0
LWPOLYLINE
  5
18F
100
AcDbEntity
  8
misure
  6
ByLayer
 62
    2
370
  200
100
AcDbPolyline
 90
    4
 70
    1
 43
0
 10
21.56743853998258
 20
-3.911134441470767
 10
21.96743853998257
 20
-3.911134441470767
 10
21.96743853998257
 20
-3.511134441470767
 10
21.56743853998258
 20
-3.511134441470767
  0
LWPOLYLINE
  5
190
100
AcDbEntity
  8
misure
  6
ByLayer
 62
    2
370
  200
100
AcDbPolyline
 90
    4
 70
    1
 43
0
 10
22.64369800806588
 20
-4.945205661694601
 10
24.44369800806588
 20
-4.945205661694601
 10
24.44369800806588
 20
-4.1452056616946
 10
22.64369800806588
 20
-4.1452056616946
  0
LINE
  5
191
100
AcDbEntity
  8
misure
  6
ByLayer
 62
    2
370
  200
100
AcDbLine
 10
22.64369800806588
 20
-4.1452056616946
 11
22.64369800806588
 21
-3.3452056616946
  0
LINE
  5
192
100
AcDbEntity
  8
misure
  6
ByLayer
 62
    2
370
  200
100
AcDbLine
 10
24.44369800806588
 20
-4.1452056616946
 11
24.44369800806588
 21
-3.3452056616946
  0
LINE
  5
193
100
AcDbEntity
  8
misure
  6
ByLayer
 62
    2
370
  200
100
AcDbLine
 10
22.64369800806588
 20
-3.3452056616946
 11
24.44369800806588
 21
-3.3452056616946
  0
LWPOLYLINE
  5
194
100
AcDbEntity
  8
misure
  6
ByLayer
 62
    2
370
  200
100
AcDbPolyline
 90
    4
 70
    1
 43
0
 10
22.9389285310483
 20
-3.945205661694601
 10
23.3389285310483
 20
-3.945205661694601
 10
23.3389285310483
 20
-3.545205661694601
 10
22.9389285310483
 20
-3.545205661694601
  0
LWPOLYLINE
  5
195
100
AcDbEntity
  8
misure
  6
ByLayer
 62
    2
370
  200
100
AcDbPolyline
 90
    4
 70
    1
 43
0
 10
23.82766123335877
 20
-3.945205661694601
 10
24.22766123335877
 20
-3.945205661694601
 10
24.22766123335877
 20
-3.545205661694601
 10
23.82766123335877
 20
-3.545205661694601
  0
LWPOLYLINE
  5
196
100
AcDbEntity
  8
misure
  6
ByLayer
 62
    2
370
  200
100
AcDbPolyline
 90
    4
 70
    1
 43
0
 10
24.90392070144208
 20
-4.979276881918435
 10
26.70392070144208
 20
-4.979276881918435
 10
26.70392070144208
 20
-4.179276881918434
 10
24.90392070144208
 20
-4.179276881918434
  0
LINE
  5
197
100
AcDbEntity
  8
misure
  6
ByLayer
 62
    2
370
  200
100
AcDbLine
 10
24.90392070144208
 20
-4.179276881918434
 11
24.90392070144208
 21
-3.379276881918433
  0
LINE
  5
198
100
AcDbEntity
  8
misure
  6
ByLayer
 62
    2
370
  200
100
AcDbLine
 10
26.70392070144208
 20
-4.179276881918434
 11
26.70392070144208
 21
-3.379276881918433
  0
LINE
  5
199
100
AcDbEntity
  8
misure
  6
ByLayer
 62
    2
370
  200
100
AcDbLine
 10
24.90392070144208
 20
-3.379276881918433
 11
26.70392070144208
 21
-3.379276881918433
  0
LWPOLYLINE
  5
19A
100
AcDbEntity
  8
misure
  6
ByLayer
 62
    2
370
  200
100
AcDbPolyline
 90
    4
 70
    1
 43
0
 10
25.1991512244245
 20
-3.979276881918435
 10
25.5991512244245
 20
-3.979276881918435
 10
25.5991512244245
 20
-3.579276881918434
 10
25.1991512244245
 20
-3.579276881918434
  0
LWPOLYLINE
  5
19B
100
AcDbEntity
  8
misure
  6
ByLayer
 62
    2
370
  200
100
AcDbPolyline
 90
    4
 70
    1
 43
0
 10
26.08788392673497
 20
-3.979276881918435
 10
26.48788392673497
 20
-3.979276881918435
 10
26.48788392673497
 20
-3.579276881918434
 10
26.08788392673497
 20
-3.579276881918434
  0
LWPOLYLINE
  5
19C
100
AcDbEntity
  8
misure
  6
ByLayer
 62
    2
370
  200
100
AcDbPolyline
 90
    4
 70
    1
 43
0
 10
27.16414339481828
 20
-5.013348102142269
 10
28.96414339481828
 20
-5.013348102142269
 10
28.96414339481828
 20
-4.213348102142268
 10
27.16414339481828
 20
-4.213348102142268
  0
LINE
  5
19D
100
AcDbEntity
  8
misure
  6
ByLayer
 62
    2
370
  200
100
AcDbLine
 10
27.16414339481828
 20
-4.213348102142268
 11
27.16414339481828
 21
-3.413348102142267
  0
LINE
  5
19E
100
AcDbEntity
  8
misure
  6
ByLayer
 62
    2
370
  200
100
AcDbLine
 10
28.96414339481828
 20
-4.213348102142268
 11
28.96414339481828
 21
-3.413348102142267
  0
LINE
  5
19F
100
AcDbEntity
  8
misure
  6
ByLayer
 62
    2
370
  200
100
AcDbLine
 10
27.16414339481828
 20
-3.413348102142267
 11
28.96414339481828
 21
-3.413348102142267
  0
LWPOLYLINE
  5
1A0
100
AcDbEntity
  8
misure
  6
ByLayer
 62
    2
370
  200
100
AcDbPolyline
 90
    4
 70
    1
 43
0
 10
27.4593739178007
 20
-4.013348102142269
 10
27.8593739178007
 20
-4.013348102142269
 10
27.8593739178007
 20
-3.613348102142268
 10
27.4593739178007
 20
-3.613348102142268
  0
LWPOLYLINE
  5
1A1
100
AcDbEntity
  8
misure
  6
ByLayer
 62
    2
370
  200
100
AcDbPolyline
 90
    4
 70
    1
 43
0
 10
28.34810662011117
 20
-4.013348102142269
 10
28.74810662011117
 20
-4.013348102142269
 10
28.74810662011117
 20
-3.613348102142268
 10
28.34810662011117
 20
-3.613348102142268
  0
DIMENSION
  5
1A2
100
AcDbEntity
  8
misure
  6
ByLayer
 62
  256
370
   -1
100
AcDbDimension
  2
*D4
 10
30
 20
-6.579470416367426
 30
0
 11
15
 21
-4.704470416367426
 31
0
 70
   32
 71
    5
 72
    0
  3
Standard
 53
0
210
0
220
0
230
1
100
AcDbAlignedDimension
 13
0
 23
-7
 33
0
 14
30
 24
-7
 34
0
100
AcDbRotatedDimension
  0
LWPOLYLINE
  5
1A3
100
AcDbEntity
  8
misure2
  6
ByLayer
 62
  256
370
   -1
100
AcDbPolyline
 90
    4
 70
    1
 43
0
 10
2.603775444582481
 20
-10.6
 10
3.003775444582482
 20
-10.6
 10
3.003775444582482
 20
-10.2
 10
2.603775444582481
 20
-10.2
  0
DIMENSION
  5
1A4
100
AcDbEntity
  8
misure2
  6
ByLayer
 62
  256
370
   -1
100
AcDbDimension
  2
*D5
 10
-7.536640000000236
 20
-6.999999999999999
 30
0
 11
-9.411640000000236
 21
-5.802246729728131
 31
0
 70
   32
 71
    5
 72
    0
  3
Standard
 53
0
210
0
220
0
230
1
100
AcDbAlignedDimension
 13
1.841471074303886
 23
-4.604493459456263
 33
0
 14
0
 24
-7
 34
0
 50
90
100
AcDbRotatedDimension
  0
DIMENSION
  5
1A5
100
AcDbEntity
  8
misure2
  6
ByLayer
 62
  256
370
   -1
100
AcDbDimension
  2
*D6
 10
-13.72160000000045
 20
-11.6
 30
0
 11
-15.59660000000045
 21
-12
 31
0
 70
   32
 71
    5
 72
    0
  3
Standard
 53
0
210
0
220
0
230
1
100
AcDbAlignedDimension
 13
1.8
 23
-12.4
 33
0
 14
1.8
 24
-11.6
 34
0
 50
90
100
AcDbRotatedDimension
  0
LINE
  5
1A6
100
AcDbEntity
  8
nascosto
  6
ByLayer
 62
  256
370
   -1
100
AcDbLine
 10
0
 20
0
 11
30
 21
0
  0
LINE
  5
1A7
100
AcDbEntity
  8
nascosto
  6
ByLayer
 62
  256
370
   -1
100
AcDbLine
 10
0
 20
0
 11
2.449293598294706e-16
 21
4
  0
LINE
  5
1A8
100
AcDbEntity
  8
nascosto
  6
ByLayer
 62
  256
370
   -1
100
AcDbLine
 10
0
 20
4
 11
30
 21
4
  0
LINE
  5
1A9
100
AcDbEntity
  8
nascosto
  6
ByLayer
 62
  256
370
   -1
100
AcDbLine
 10
30
 20
0
 11
30
 21
4
  0
LWPOLYLINE
  5
1AA
100
AcDbEntity
  8
nascosto
  6
ByLayer
 62
  256
370
   -1
100
AcDbPolyline
 90
    4
 70
    1
 43
0
 10
6.505296870025711
 20
11.71904608048093
 10
7.778089076161497
 20
10.44625387434514
 10
8.343774501110737
 20
11.01193929929438
 10
7.07098229497495
 20
12.28473150543017
  0
LINE
  5
1AB
100
AcDbEntity
  8
nascosto
  6
ByLayer
 62
  256
370
   -1
100
AcDbLine
 10
7.07098229497495
 20
12.28473150543017
 11
7.636667719924189
 21
12.8504169303794
  0
LINE
  5
1AC
100
AcDbEntity
  8
nascosto
  6
ByLayer
 62
  256
370
   -1
100
AcDbLine
 10
8.343774501110737
 20
11.01193929929438
 11
8.909459926059974
 21
11.57762472424362
  0
LINE
  5
1AD
100
AcDbEntity
  8
nascosto
  6
ByLayer
 62
  256
370
   -1
100
AcDbLine
 10
7.636667719924189
 20
12.8504169303794
 11
8.909459926059974
 21
11.57762472424362
  0
LWPOLYLINE
  5
1AE
100
AcDbEntity
  8
nascosto
  6
ByLayer
 62
  256
370
   -1
100
AcDbPolyline
 90
    4
 70
    1
 43
0
 10
7.421163156026376
 20
12.21739335685336
 10
7.704005868500995
 20
11.93455064437874
 10
7.986848580975614
 20
12.21739335685336
 10
7.704005868500995
 20
12.50023606932798
  0
LWPOLYLINE
  5
1AF
100
AcDbEntity
  8
nascosto
  6
ByLayer
 62
  256
370
   -1
100
AcDbPolyline
 90
    4
 70
    1
 43
0
 10
8.049592076492358
 20
11.58896443638738
 10
8.332434788966976
 20
11.30612172391276
 10
8.615277501441597
 20
11.58896443638738
 10
8.332434788966976
 20
11.871807148862
  0
LWPOLYLINE
  5
1B0
100
AcDbEntity
  8
nascosto
  6
ByLayer
 62
  256
370
   -1
100
AcDbPolyline
 90
    4
 70
    1
 43
0
 10
0.1299547900256481
 20
3.162665920480849
 10
1.402746996161434
 20
1.889873714345063
 10
1.968432421110673
 20
2.455559139294301
 10
0.6956402149748868
 20
3.728351345430086
  0
LINE
  5
1B1
100
AcDbEntity
  8
nascosto
  6
ByLayer
 62
  256
370
   -1
100
AcDbLine
 10
0.6956402149748868
 20
3.728351345430086
 11
1.261325639924125
 21
4.294036770379325
  0
LINE
  5
1B2
100
AcDbEntity
  8
nascosto
  6
ByLayer
 62
  256
370
   -1
100
AcDbLine
 10
1.968432421110673
 20
2.455559139294301
 11
2.53411784605991
 21
3.02124456424354
  0
LINE
  5
1B3
100
AcDbEntity
  8
nascosto
  6
ByLayer
 62
  256
370
   -1
100
AcDbLine
 10
1.261325639924125
 20
4.294036770379325
 11
2.53411784605991
 21
3.02124456424354
  0
LWPOLYLINE
  5
1B4
100
AcDbEntity
  8
nascosto
  6
ByLayer
 62
  256
370
   -1
100
AcDbPolyline
 90
    4
 70
    1
 43
0
 10
1.045821076026312
 20
3.661013196853279
 10
1.328663788500932
 20
3.378170484378661
 10
1.611506500975551
 20
3.661013196853281
 10
1.328663788500932
 20
3.943855909327899
  0
LWPOLYLINE
  5
1B5
100
AcDbEntity
  8
nascosto
  6
ByLayer
 62
  256
370
   -1
100
AcDbPolyline
 90
    4
 70
    1
 43
0
 10
1.674249996492295
 20
3.032584276387299
 10
1.957092708966913
 20
2.749741563912679
 10
2.239935421441533
 20
3.032584276387299
 10
1.957092708966913
 20
3.315426988861917
  0
LWPOLYLINE
  5
1B6
100
AcDbEntity
  8
nascosto
  6
ByLayer
 62
  256
370
   -1
100
AcDbPolyline
 90
    4
 70
    1
 43
0
 10
2.688480230025673
 20
3.120722880480849
 10
3.961272436161458
 20
1.847930674345062
 10
4.526957861110699
 20
2.413616099294301
 10
3.254165654974912
 20
3.686408305430086
  0
LINE
  5
1B7
100
AcDbEntity
  8
nascosto
  6
ByLayer
 62
  256
370
   -1
100
AcDbLine
 10
3.254165654974912
 20
3.686408305430086
 11
3.81985107992415
 21
4.252093730379324
  0
LINE
  5
1B8
100
AcDbEntity
  8
nascosto
  6
ByLayer
 62
  256
370
   -1
100
AcDbLine
 10
4.526957861110699
 20
2.413616099294301
 11
5.092643286059936
 21
2.97930152424354
  0
LINE
  5
1B9
100
AcDbEntity
  8
nascosto
  6
ByLayer
 62
  256
370
   -1
100
AcDbLine
 10
3.81985107992415
 20
4.252093730379324
 11
5.092643286059936
 21
2.97930152424354
  0
LWPOLYLINE
  5
1BA
100
AcDbEntity
  8
nascosto
  6
ByLayer
 62
  256
370
   -1
100
AcDbPolyline
 90
    4
 70
    1
 43
0
 10
3.604346516026337
 20
3.619070156853279
 10
3.887189228500956
 20
3.33622744437866
 10
4.170031940975576
 20
3.61907015685328
 10
3.887189228500956
 20
3.901912869327899
  0
LWPOLYLINE
  5
1BB
100
AcDbEntity
  8
nascosto
  6
ByLayer
 62
  256
370
   -1
100
AcDbPolyline
 90
    4
 70
    1
 43
0
 10
4.23277543649232
 20
2.990641236387298
 10
4.515618148966938
 20
2.707798523912678
 10
4.798460861441558
 20
2.990641236387298
 10
4.515618148966938
 20
3.273483948861917
  0
LWPOLYLINE
  5
1BC
100
AcDbEntity
  8
nascosto
  6
ByLayer
 62
  256
370
   -1
100
AcDbPolyline
 90
    4
 70
    1
 43
0
 10
5.247005670025698
 20
3.078779840480848
 10
6.519797876161483
 20
1.805987634345062
 10
7.085483301110723
 20
2.371673059294301
 10
5.812691094974936
 20
3.644465265430085
  0
LINE
  5
1BD
100
AcDbEntity
  8
nascosto
  6
ByLayer
 62
  256
370
   -1
100
AcDbLine
 10
5.812691094974936
 20
3.644465265430085
 11
6.378376519924175
 21
4.210150690379324
  0
LINE
  5
1BE
100
AcDbEntity
  8
nascosto
  6
ByLayer
 62
  256
370
   -1
100
AcDbLine
 10
7.085483301110723
 20
2.371673059294301
 11
7.65116872605996
 21
2.937358484243539
  0
LINE
  5
1BF
100
AcDbEntity
  8
nascosto
  6
ByLayer
 62
  256
370
   -1
100
AcDbLine
 10
6.378376519924175
 20
4.210150690379324
 11
7.65116872605996
 21
2.937358484243539
  0
LWPOLYLINE
  5
1C0
100
AcDbEntity
  8
nascosto
  6
ByLayer
 62
  256
370
   -1
100
AcDbPolyline
 90
    4
 70
    1
 43
0
 10
6.162871956026362
 20
3.577127116853278
 10
6.445714668500981
 20
3.29428440437866
 10
6.728557380975601
 20
3.57712711685328
 10
6.445714668500981
 20
3.859969829327898
  0
LWPOLYLINE
  5
1C1
100
AcDbEntity
  8
nascosto
  6
ByLayer
 62
  256
370
   -1
100
AcDbPolyline
 90
    4
 70
    1
 43
0
 10
6.791300876492344
 20
2.948698196387298
 10
7.074143588966963
 20
2.665855483912678
 10
7.356986301441583
 20
2.948698196387298
 10
7.074143588966963
 20
3.231540908861916
  0
LWPOLYLINE
  5
1C2
100
AcDbEntity
  8
nascosto
  6
ByLayer
 62
  256
370
   -1
100
AcDbPolyline
 90
    4
 70
    1
 43
0
 10
7.805531110025722
 20
3.036836800480848
 10
9.078323316161509
 20
1.764044594345061
 10
9.644008741110747
 20
2.3297300192943
 10
8.371216534974961
 20
3.602522225430085
  0
LINE
  5
1C3
100
AcDbEntity
  8
nascosto
  6
ByLayer
 62
  256
370
   -1
100
AcDbLine
 10
8.371216534974961
 20
3.602522225430085
 11
8.936901959924199
 21
4.168207650379324
  0
LINE
  5
1C4
100
AcDbEntity
  8
nascosto
  6
ByLayer
 62
  256
370
   -1
100
AcDbLine
 10
9.644008741110747
 20
2.3297300192943
 11
10.20969416605998
 21
2.895415444243539
  0
LINE
  5
1C5
100
AcDbEntity
  8
nascosto
  6
ByLayer
 62
  256
370
   -1
100
AcDbLine
 10
8.936901959924199
 20
4.168207650379324
 11
10.20969416605998
 21
2.895415444243539
  0
LWPOLYLINE
  5
1C6
100
AcDbEntity
  8
nascosto
  6
ByLayer
 62
  256
370
   -1
100
AcDbPolyline
 90
    4
 70
    1
 43
0
 10
8.721397396026386
 20
3.535184076853278
 10
9.004240108501005
 20
3.252341364378659
 10
9.287082820975625
 20
3.535184076853279
 10
9.004240108501005
 20
3.818026789327898
  0
LWPOLYLINE
  5
1C7
100
AcDbEntity
  8
nascosto
  6
ByLayer
 62
  256
370
   -1
100
AcDbPolyline
 90
    4
 70
    1
 43
0
 10
9.349826316492369
 20
2.906755156387297
 10
9.632669028966987
 20
2.623912443912677
 10
9.915511741441607
 20
2.906755156387297
 10
9.632669028966987
 20
3.189597868861916
  0
LWPOLYLINE
  5
1C8
100
AcDbEntity
  8
nascosto
  6
ByLayer
 62
  256
370
   -1
100
AcDbPolyline
 90
    4
 70
    1
 43
0
 10
10.36405655002575
 20
2.994893760480847
 10
11.63684875616153
 20
1.722101554345061
 10
12.20253418111077
 20
2.2877869792943
 10
10.92974197497499
 20
3.560579185430084
  0
LINE
  5
1C9
100
AcDbEntity
  8
nascosto
  6
ByLayer
 62
  256
370
   -1
100
AcDbLine
 10
10.92974197497499
 20
3.560579185430084
 11
11.49542739992422
 21
4.126264610379323
  0
LINE
  5
1CA
100
AcDbEntity
  8
nascosto
  6
ByLayer
 62
  256
370
   -1
100
AcDbLine
 10
12.20253418111077
 20
2.2877869792943
 11
12.76821960606001
 21
2.853472404243538
  0
LINE
  5
1CB
100
AcDbEntity
  8
nascosto
  6
ByLayer
 62
  256
370
   -1
100
AcDbLine
 10
11.49542739992422
 20
4.126264610379323
 11
12.76821960606001
 21
2.853472404243538
  0
LWPOLYLINE
  5
1CC
100
AcDbEntity
  8
nascosto
  6
ByLayer
 62
  256
370
   -1
100
AcDbPolyline
 90
    4
 70
    1
 43
0
 10
11.27992283602641
 20
3.493241036853277
 10
11.56276554850103
 20
3.210398324378659
 10
11.84560826097565
 20
3.493241036853279
 10
11.56276554850103
 20
3.776083749327897
  0
LWPOLYLINE
  5
1CD
100
AcDbEntity
  8
nascosto
  6
ByLayer
 62
  256
370
   -1
100
AcDbPolyline
 90
    4
 70
    1
 43
0
 10
11.90835175649239
 20
2.864812116387297
 10
12.19119446896701
 20
2.581969403912677
 10
12.47403718144163
 20
2.864812116387297
 10
12.19119446896701
 20
3.147654828861915
  0
LWPOLYLINE
  5
1CE
100
AcDbEntity
  8
nascosto
  6
ByLayer
 62
  256
370
   -1
100
AcDbPolyline
 90
    4
 70
    1
 43
0
 10
12.92258199002577
 20
2.952950720480847
 10
14.19537419616156
 20
1.68015851434506
 10
14.7610596211108
 20
2.245843939294299
 10
13.48826741497501
 20
3.518636145430084
  0
LINE
  5
1CF
100
AcDbEntity
  8
nascosto
  6
ByLayer
 62
  256
370
   -1
100
AcDbLine
 10
13.48826741497501
 20
3.518636145430084
 11
14.05395283992425
 21
4.084321570379323
  0
LINE
  5
1D0
100
AcDbEntity
  8
nascosto
  6
ByLayer
 62
  256
370
   -1
100
AcDbLine
 10
14.7610596211108
 20
2.245843939294299
 11
15.32674504606003
 21
2.811529364243538
  0
LINE
  5
1D1
100
AcDbEntity
  8
nascosto
  6
ByLayer
 62
  256
370
   -1
100
AcDbLine
 10
14.05395283992425
 20
4.084321570379323
 11
15.32674504606003
 21
2.811529364243538
  0
LWPOLYLINE
  5
1D2
100
AcDbEntity
  8
nascosto
  6
ByLayer
 62
  256
370
   -1
100
AcDbPolyline
 90
    4
 70
    1
 43
0
 10
13.83844827602644
 20
3.451297996853277
 10
14.12129098850106
 20
3.168455284378658
 10
14.40413370097568
 20
3.451297996853278
 10
14.12129098850106
 20
3.734140709327897
  0
LWPOLYLINE
  5
1D3
100
AcDbEntity
  8
nascosto
  6
ByLayer
 62
  256
370
   -1
100
AcDbPolyline
 90
    4
 70
    1
 43
0
 10
14.46687719649242
 20
2.822869076387296
 10
14.74971990896704
 20
2.540026363912676
 10
15.03256262144166
 20
2.822869076387296
 10
14.74971990896704
 20
3.105711788861915
  0
LWPOLYLINE
  5
1D4
100
AcDbEntity
  8
nascosto
  6
ByLayer
 62
  256
370
   -1
100
AcDbPolyline
 90
    4
 70
    1
 43
0
 10
15.4811074300258
 20
2.911007680480846
 10
16.75389963616158
 20
1.63821547434506
 10
17.31958506111082
 20
2.203900899294299
 10
16.04679285497503
 20
3.476693105430083
  0
LINE
  5
1D5
100
AcDbEntity
  8
nascosto
  6
ByLayer
 62
  256
370
   -1
100
AcDbLine
 10
16.04679285497503
 20
3.476693105430083
 11
16.61247827992427
 21
4.042378530379322
  0
LINE
  5
1D6
100
AcDbEntity
  8
nascosto
  6
ByLayer
 62
  256
370
   -1
100
AcDbLine
 10
17.31958506111082
 20
2.203900899294299
 11
17.88527048606006
 21
2.769586324243537
  0
LINE
  5
1D7
100
AcDbEntity
  8
nascosto
  6
ByLayer
 62
  256
370
   -1
100
AcDbLine
 10
16.61247827992427
 20
4.042378530379322
 11
17.88527048606006
 21
2.769586324243537
  0
LWPOLYLINE
  5
1D8
100
AcDbEntity
  8
nascosto
  6
ByLayer
 62
  256
370
   -1
100
AcDbPolyline
 90
    4
 70
    1
 43
0
 10
16.39697371602646
 20
3.409354956853276
 10
16.67981642850108
 20
3.126512244378658
 10
16.9626591409757
 20
3.409354956853278
 10
16.67981642850108
 20
3.692197669327896
  0
LWPOLYLINE
  5
1D9
100
AcDbEntity
  8
nascosto
  6
ByLayer
 62
  256
370
   -1
100
AcDbPolyline
 90
    4
 70
    1
 43
0
 10
17.02540263649244
 20
2.780926036387296
 10
17.30824534896706
 20
2.498083323912676
 10
17.59108806144168
 20
2.780926036387296
 10
17.30824534896706
 20
3.063768748861914
  0
LWPOLYLINE
  5
1DA
100
AcDbEntity
  8
nascosto
  6
ByLayer
 62
  256
370
   -1
100
AcDbPolyline
 90
    4
 70
    1
 43
0
 10
18.03963287002582
 20
2.869064640480846
 10
19.31242507616161
 20
1.596272434345059
 10
19.87811050111085
 20
2.161957859294298
 10
18.60531829497506
 20
3.434750065430083
  0
LINE
  5
1DB
100
AcDbEntity
  8
nascosto
  6
ByLayer
 62
  256
370
   -1
100
AcDbLine
 10
18.60531829497506
 20
3.434750065430083
 11
19.1710037199243
 21
4.000435490379322
  0
LINE
  5
1DC
100
AcDbEntity
  8
nascosto
  6
ByLayer
 62
  256
370
   -1
100
AcDbLine
 10
19.87811050111085
 20
2.161957859294298
 11
20.44379592606008
 21
2.727643284243537
  0
LINE
  5
1DD
100
AcDbEntity
  8
nascosto
  6
ByLayer
 62
  256
370
   -1
100
AcDbLine
 10
19.1710037199243
 20
4.000435490379322
 11
20.44379592606008
 21
2.727643284243537
  0
LWPOLYLINE
  5
1DE
100
AcDbEntity
  8
nascosto
  6
ByLayer
 62
  256
370
   -1
100
AcDbPolyline
 90
    4
 70
    1
 43
0
 10
18.95549915602649
 20
3.367411916853276
 10
19.23834186850111
 20
3.084569204378657
 10
19.52118458097572
 20
3.367411916853277
 10
19.23834186850111
 20
3.650254629327896
  0
LWPOLYLINE
  5
1DF
100
AcDbEntity
  8
nascosto
  6
ByLayer
 62
  256
370
   -1
100
AcDbPolyline
 90
    4
 70
    1
 43
0
 10
19.58392807649247
 20
2.738982996387295
 10
19.86677078896708
 20
2.456140283912675
 10
20.14961350144171
 20
2.738982996387295
 10
19.86677078896708
 20
3.021825708861914
  0
LWPOLYLINE
  5
1E0
100
AcDbEntity
  8
nascosto
  6
ByLayer
 62
  256
370
   -1
100
AcDbPolyline
 90
    4
 70
    1
 43
0
 10
20.59815831002585
 20
2.827121600480845
 10
21.87095051616163
 20
1.554329394345059
 10
22.43663594111087
 20
2.120014819294298
 10
21.16384373497509
 20
3.392807025430082
  0
LINE
  5
1E1
100
AcDbEntity
  8
nascosto
  6
ByLayer
 62
  256
370
   -1
100
AcDbLine
 10
21.16384373497509
 20
3.392807025430082
 11
21.72952915992432
 21
3.958492450379321
  0
LINE
  5
1E2
100
AcDbEntity
  8
nascosto
  6
ByLayer
 62
  256
370
   -1
100
AcDbLine
 10
22.43663594111087
 20
2.120014819294298
 11
23.00232136606011
 21
2.685700244243536
  0
LINE
  5
1E3
100
AcDbEntity
  8
nascosto
  6
ByLayer
 62
  256
370
   -1
100
AcDbLine
 10
21.72952915992432
 20
3.958492450379321
 11
23.00232136606011
 21
2.685700244243536
  0
LWPOLYLINE
  5
1E4
100
AcDbEntity
  8
nascosto
  6
ByLayer
 62
  256
370
   -1
100
AcDbPolyline
 90
    4
 70
    1
 43
0
 10
21.51402459602651
 20
3.325468876853275
 10
21.79686730850113
 20
3.042626164378657
 10
22.07971002097575
 20
3.325468876853277
 10
21.79686730850113
 20
3.608311589327895
  0
LWPOLYLINE
  5
1E5
100
AcDbEntity
  8
nascosto
  6
ByLayer
 62
  256
370
   -1
100
AcDbPolyline
 90
    4
 70
    1
 43
0
 10
22.14245351649249
 20
2.697039956387295
 10
22.42529622896711
 20
2.414197243912675
 10
22.70813894144173
 20
2.697039956387295
 10
22.42529622896711
 20
2.979882668861913
  0
LWPOLYLINE
  5
1E6
100
AcDbEntity
  8
nascosto
  6
ByLayer
 62
  256
370
   -1
100
AcDbPolyline
 90
    4
 70
    1
 43
0
 10
23.15668375002587
 20
2.785178560480845
 10
24.42947595616166
 20
1.512386354345058
 10
24.9951613811109
 20
2.078071779294297
 10
23.72236917497511
 20
3.350863985430082
  0
LINE
  5
1E7
100
AcDbEntity
  8
nascosto
  6
ByLayer
 62
  256
370
   -1
100
AcDbLine
 10
23.72236917497511
 20
3.350863985430082
 11
24.28805459992435
 21
3.916549410379321
  0
LINE
  5
1E8
100
AcDbEntity
  8
nascosto
  6
ByLayer
 62
  256
370
   -1
100
AcDbLine
 10
24.9951613811109
 20
2.078071779294297
 11
25.56084680606013
 21
2.643757204243536
  0
LINE
  5
1E9
100
AcDbEntity
  8
nascosto
  6
ByLayer
 62
  256
370
   -1
100
AcDbLine
 10
24.28805459992435
 20
3.916549410379321
 11
25.56084680606013
 21
2.643757204243536
  0
LWPOLYLINE
  5
1EA
100
AcDbEntity
  8
nascosto
  6
ByLayer
 62
  256
370
   -1
100
AcDbPolyline
 90
    4
 70
    1
 43
0
 10
24.07255003602654
 20
3.283525836853275
 10
24.35539274850116
 20
3.000683124378656
 10
24.63823546097577
 20
3.283525836853276
 10
24.35539274850116
 20
3.566368549327895
  0
LWPOLYLINE
  5
1EB
100
AcDbEntity
  8
nascosto
  6
ByLayer
 62
  256
370
   -1
100
AcDbPolyline
 90
    4
 70
    1
 43
0
 10
24.70097895649252
 20
2.655096916387294
 10
24.98382166896713
 20
2.372254203912674
 10
25.26666438144176
 20
2.655096916387294
 10
24.98382166896713
 20
2.937939628861913
  0
LWPOLYLINE
  5
1EC
100
AcDbEntity
  8
nascosto
  6
ByLayer
 62
  256
370
   -1
100
AcDbPolyline
 90
    4
 70
    1
 43
0
 10
25.7152091900259
 20
2.743235520480845
 10
26.98800139616168
 20
1.470443314345058
 10
27.55368682111092
 20
2.036128739294297
 10
26.28089461497514
 20
3.308920945430081
  0
LINE
  5
1ED
100
AcDbEntity
  8
nascosto
  6
ByLayer
 62
  256
370
   -1
100
AcDbLine
 10
26.28089461497514
 20
3.308920945430081
 11
26.84658003992437
 21
3.87460637037932
  0
LINE
  5
1EE
100
AcDbEntity
  8
nascosto
  6
ByLayer
 62
  256
370
   -1
100
AcDbLine
 10
27.55368682111092
 20
2.036128739294297
 11
28.11937224606016
 21
2.601814164243535
  0
LINE
  5
1EF
100
AcDbEntity
  8
nascosto
  6
ByLayer
 62
  256
370
   -1
100
AcDbLine
 10
26.84658003992437
 20
3.87460637037932
 11
28.11937224606016
 21
2.601814164243535
  0
LWPOLYLINE
  5
1F0
100
AcDbEntity
  8
nascosto
  6
ByLayer
 62
  256
370
   -1
100
AcDbPolyline
 90
    4
 70
    1
 43
0
 10
26.63107547602656
 20
3.241582796853274
 10
26.91391818850118
 20
2.958740084378656
 10
27.1967609009758
 20
3.241582796853276
 10
26.91391818850118
 20
3.524425509327894
  0
LWPOLYLINE
  5
1F1
100
AcDbEntity
  8
nascosto
  6
ByLayer
 62
  256
370
   -1
100
AcDbPolyline
 90
    4
 70
    1
 43
0
 10
27.25950439649254
 20
2.613153876387294
 10
27.54234710896716
 20
2.330311163912674
 10
27.82518982144178
 20
2.613153876387294
 10
27.54234710896716
 20
2.895996588861912
  0
LWPOLYLINE
  5
1F2
100
AcDbEntity
  8
nascosto
  6
ByLayer
 62
  256
370
   -1
100
AcDbPolyline
 90
    4
 70
    1
 43
0
 10
28.27373463002592
 20
2.701292480480844
 10
29.54652683616171
 20
1.428500274345057
 10
30.11221226111095
 20
1.994185699294296
 10
28.83942005497516
 20
3.266977905430081
  0
LINE
  5
1F3
100
AcDbEntity
  8
nascosto
  6
ByLayer
 62
  256
370
   -1
100
AcDbLine
 10
28.83942005497516
 20
3.266977905430081
 11
29.4051054799244
 21
3.83266333037932
  0
LINE
  5
1F4
100
AcDbEntity
  8
nascosto
  6
ByLayer
 62
  256
370
   -1
100
AcDbLine
 10
30.11221226111095
 20
1.994185699294296
 11
30.67789768606018
 21
2.559871124243535
  0
LINE
  5
1F5
100
AcDbEntity
  8
nascosto
  6
ByLayer
 62
  256
370
   -1
100
AcDbLine
 10
29.4051054799244
 20
3.83266333037932
 11
30.67789768606018
 21
2.559871124243535
  0
LWPOLYLINE
  5
1F6
100
AcDbEntity
  8
nascosto
  6
ByLayer
 62
  256
370
   -1
100
AcDbPolyline
 90
    4
 70
    1
 43
0
 10
29.18960091602659
 20
3.199639756853274
 10
29.47244362850121
 20
2.916797044378655
 10
29.75528634097583
 20
3.199639756853276
 10
29.47244362850121
 20
3.482482469327894
  0
LWPOLYLINE
  5
1F7
100
AcDbEntity
  8
nascosto
  6
ByLayer
 62
  256
370
   -1
100
AcDbPolyline
 90
    4
 70
    1
 43
0
 10
29.81802983649257
 20
2.571210836387293
 10
30.10087254896719
 20
2.288368123912673
 10
30.38371526144181
 20
2.571210836387293
 10
30.10087254896719
 20
2.854053548861912
  0
LINE
  5
1F8
100
AcDbEntity
  8
nascosto
  6
ByLayer
 62
  256
370
   -1
100
AcDbLine
 10
-2.449293598294706e-16
 20
-14
 11
30
 21
-14
  0
LINE
  5
1F9
100
AcDbEntity
  8
nascosto
  6
ByLayer
 62
  256
370
   -1
100
AcDbLine
 10
-2.449293598294706e-16
 20
-14
 11
0
 21
-10
  0
LINE
  5
1FA
100
AcDbEntity
  8
nascosto
  6
ByLayer
 62
  256
370
   -1
100
AcDbLine
 10
-2.449293598294706e-16
 20
-10
 11
30
 21
-10
  0
LINE
  5
1FB
100
AcDbEntity
  8
nascosto
  6
ByLayer
 62
  256
370
   -1
100
AcDbLine
 10
30
 20
-14
 11
30
 21
-10
  0
LWPOLYLINE
  5
1FC
100
AcDbEntity
  8
nascosto
  6
ByLayer
 62
  256
370
   -1
100
AcDbPolyline
 90
    4
 70
    1
 43
0
 10
0
 20
-11.6
 10
1.8
 20
-11.6
 10
1.8
 20
-10.8
 10
0
 20
-10.8
  0
LINE
  5
1FD
100
AcDbEntity
  8
nascosto
  6
ByLayer
 62
  256
370
   -1
100
AcDbLine
 10
0
 20
-10.8
 11
0
 21
-10
  0
LINE
  5
1FE
100
AcDbEntity
  8
nascosto
  6
ByLayer
 62
  256
370
   -1
100
AcDbLine
 10
1.8
 20
-10.8
 11
1.8
 21
-10
  0
LINE
  5
1FF
100
AcDbEntity
  8
nascosto
  6
ByLayer
 62
  256
370
   -1
100
AcDbLine
 10
0
 20
-10
 11
1.8
 21
-10
  0
LWPOLYLINE
  5
200
100
AcDbEntity
  8
nascosto
  6
ByLayer
 62
  256
370
   -1
100
AcDbPolyline
 90
    4
 70
    1
 43
0
 10
0.2952305229824148
 20
-10.6
 10
0.6952305229824152
 20
-10.6
 10
0.6952305229824152
 20
-10.2
 10
0.2952305229824148
 20
-10.2
  0
LWPOLYLINE
  5
201
100
AcDbEntity
  8
nascosto
  6
ByLayer
 62
  256
370
   -1
100
AcDbPolyline
 90
    4
 70
    1
 43
0
 10
1.18396322529289
 20
-10.6
 10
1.58396322529289
 20
-10.6
 10
1.58396322529289
 20
-10.2
 10
1.18396322529289
 20
-10.2
  0
LWPOLYLINE
  5
202
100
AcDbEntity
  8
nascosto
  6
ByLayer
 62
  256
370
   -1
100
AcDbPolyline
 90
    4
 70
    1
 43
0
 10
1.8
 20
-12.4
 10
0
 20
-12.4
 10
-2.220446049250313e-16
 20
-13.2
 10
1.8
 20
-13.2
  0
LINE
  5
203
100
AcDbEntity
  8
nascosto
  6
ByLayer
 62
  256
370
   -1
100
AcDbLine
 10
1.8
 20
-13.2
 11
1.8
 21
-14
  0
LINE
  5
204
100
AcDbEntity
  8
nascosto
  6
ByLayer
 62
  256
370
   -1
100
AcDbLine
 10
-2.220446049250313e-16
 20
-13.2
 11
-2.220446049250313e-16
 21
-14
  0
LINE
  5
205
100
AcDbEntity
  8
nascosto
  6
ByLayer
 62
  256
370
   -1
100
AcDbLine
 10
1.8
 20
-14
 11
-2.220446049250313e-16
 21
-14
  0
LWPOLYLINE
  5
206
100
AcDbEntity
  8
nascosto
  6
ByLayer
 62
  256
370
   -1
100
AcDbPolyline
 90
    4
 70
    1
 43
0
 10
1.504769477017585
 20
-13.4
 10
1.104769477017585
 20
-13.4
 10
1.104769477017584
 20
-13.8
 10
1.504769477017585
 20
-13.8
  0
LWPOLYLINE
  5
207
100
AcDbEntity
  8
nascosto
  6
ByLayer
 62
  256
370
   -1
100
AcDbPolyline
 90
    4
 70
    1
 43
0
 10
0.61603677470711
 20
-13.4
 10
0.2160367747071097
 20
-13.4
 10
0.2160367747071097
 20
-13.8
 10
0.61603677470711
 20
-13.8
  0
LWPOLYLINE
  5
208
100
AcDbEntity
  8
nascosto
  6
ByLayer
 62
  256
370
   -1
100
AcDbPolyline
 90
    4
 70
    1
 43
0
 10
2.308544921600066
 20
-11.6
 10
4.108544921600066
 20
-11.6
 10
4.108544921600066
 20
-10.8
 10
2.308544921600066
 20
-10.8
  0
LINE
  5
209
100
AcDbEntity
  8
nascosto
  6
ByLayer
 62
  256
370
   -1
100
AcDbLine
 10
4.108544921600066
 20
-10.8
 11
4.108544921600066
 21
-10
  0
LWPOLYLINE
  5
20A
100
AcDbEntity
  8
nascosto
  6
ByLayer
 62
  256
370
   -1
100
AcDbPolyline
 90
    4
 70
    1
 43
0
 10
3.492508146892956
 20
-10.6
 10
3.892508146892956
 20
-10.6
 10
3.892508146892956
 20
-10.2
 10
3.492508146892956
 20
-10.2
  0
LWPOLYLINE
  5
20B
100
AcDbEntity
  8
nascosto
  6
ByLayer
 62
  256
370
   -1
100
AcDbPolyline
 90
    4
 70
    1
 43
0
 10
4.108544921600066
 20
-12.4
 10
2.308544921600066
 20
-12.4
 10
2.308544921600066
 20
-13.2
 10
4.108544921600066
 20
-13.2
  0
LINE
  5
20C
100
AcDbEntity
  8
nascosto
  6
ByLayer
 62
  256
370
   -1
100
AcDbLine
 10
4.108544921600066
 20
-13.2
 11
4.108544921600066
 21
-14
  0
LWPOLYLINE
  5
20D
100
AcDbEntity
  8
nascosto
  6
ByLayer
 62
  256
370
   -1
100
AcDbPolyline
 90
    4
 70
    1
 43
0
 10
3.813314398617651
 20
-13.4
 10
3.413314398617651
 20
-13.4
 10
3.413314398617651
 20
-13.8
 10
3.813314398617651
 20
-13.8
  0
LWPOLYLINE
  5
20E
100
AcDbEntity
  8
nascosto
  6
ByLayer
 62
  256
370
   -1
100
AcDbPolyline
 90
    4
 70
    1
 43
0
 10
2.924581696307176
 20
-13.4
 10
2.524581696307176
 20
-13.4
 10
2.524581696307176
 20
-13.8
 10
2.924581696307176
 20
-13.8
  0
LWPOLYLINE
  5
20F
100
AcDbEntity
  8
nascosto
  6
ByLayer
 62
  256
370
   -1
100
AcDbPolyline
 90
    4
 70
    1
 43
0
 10
4.617089843200133
 20
-11.6
 10
6.417089843200133
 20
-11.6
 10
6.417089843200133
 20
-10.8
 10
4.617089843200133
 20
-10.8
  0
LINE
  5
210
100
AcDbEntity
  8
nascosto
  6
ByLayer
 62
  256
370
   -1
100
AcDbLine
 10
6.417089843200133
 20
-10.8
 11
6.417089843200133
 21
-10
  0
LWPOLYLINE
  5
211
100
AcDbEntity
  8
nascosto
  6
ByLayer
 62
  256
370
   -1
100
AcDbPolyline
 90
    4
 70
    1
 43
0
 10
4.912320366182548
 20
-10.6
 10
5.312320366182548
 20
-10.6
 10
5.312320366182548
 20
-10.2
 10
4.912320366182548
 20
-10.2
  0
LWPOLYLINE
  5
212
100
AcDbEntity
  8
nascosto
  6
ByLayer
 62
  256
370
   -1
100
AcDbPolyline
 90
    4
 70
    1
 43
0
 10
5.801053068493022
 20
-10.6
 10
6.201053068493023
 20
-10.6
 10
6.201053068493023
 20
-10.2
 10
5.801053068493022
 20
-10.2
  0
LWPOLYLINE
  5
213
100
AcDbEntity
  8
nascosto
  6
ByLayer
 62
  256
370
   -1
100
AcDbPolyline
 90
    4
 70
    1
 43
0
 10
6.417089843200133
 20
-12.4
 10
4.617089843200133
 20
-12.4
 10
4.617089843200133
 20
-13.2
 10
6.417089843200133
 20
-13.2
  0
LINE
  5
214
100
AcDbEntity
  8
nascosto
  6
ByLayer
 62
  256
370
   -1
100
AcDbLine
 10
6.417089843200133
 20
-13.2
 11
6.417089843200133
 21
-14
  0
LWPOLYLINE
  5
215
100
AcDbEntity
  8
nascosto
  6
ByLayer
 62
  256
370
   -1
100
AcDbPolyline
 90
    4
 70
    1
 43
0
 10
6.121859320217718
 20
-13.4
 10
5.721859320217717
 20
-13.4
 10
5.721859320217717
 20
-13.8
 10
6.121859320217718
 20
-13.8
  0
LWPOLYLINE
  5
216
100
AcDbEntity
  8
nascosto
  6
ByLayer
 62
  256
370
   -1
100
AcDbPolyline
 90
    4
 70
    1
 43
0
 10
5.233126617907243
 20
-13.4
 10
4.833126617907243
 20
-13.4
 10
4.833126617907243
 20
-13.8
 10
5.233126617907243
 20
-13.8
  0
LWPOLYLINE
  5
217
100
AcDbEntity
  8
nascosto
  6
ByLayer
 62
  256
370
   -1
100
AcDbPolyline
 90
    4
 70
    1
 43
0
 10
6.925634764800199
 20
-11.6
 10
8.725634764800198
 20
-11.6
 10
8.725634764800198
 20
-10.8
 10
6.925634764800199
 20
-10.8
  0
LINE
  5
218
100
AcDbEntity
  8
nascosto
  6
ByLayer
 62
  256
370
   -1
100
AcDbLine
 10
8.725634764800198
 20
-10.8
 11
8.725634764800198
 21
-10
  0
LWPOLYLINE
  5
219
100
AcDbEntity
  8
nascosto
  6
ByLayer
 62
  256
370
   -1
100
AcDbPolyline
 90
    4
 70
    1
 43
0
 10
7.220865287782614
 20
-10.6
 10
7.620865287782614
 20
-10.6
 10
7.620865287782614
 20
-10.2
 10
7.220865287782614
 20
-10.2
  0
LWPOLYLINE
  5
21A
100
AcDbEntity
  8
nascosto
  6
ByLayer
 62
  256
370
   -1
100
AcDbPolyline
 90
    4
 70
    1
 43
0
 10
8.109597990093089
 20
-10.6
 10
8.509597990093088
 20
-10.6
 10
8.509597990093088
 20
-10.2
 10
8.109597990093089
 20
-10.2
  0
LWPOLYLINE
  5
21B
100
AcDbEntity
  8
nascosto
  6
ByLayer
 62
  256
370
   -1
100
AcDbPolyline
 90
    4
 70
    1
 43
0
 10
8.725634764800198
 20
-12.4
 10
6.925634764800199
 20
-12.4
 10
6.925634764800199
 20
-13.2
 10
8.725634764800198
 20
-13.2
  0
LINE
  5
21C
100
AcDbEntity
  8
nascosto
  6
ByLayer
 62
  256
370
   -1
100
AcDbLine
 10
8.725634764800198
 20
-13.2
 11
8.725634764800198
 21
-14
  0
LWPOLYLINE
  5
21D
100
AcDbEntity
  8
nascosto
  6
ByLayer
 62
  256
370
   -1
100
AcDbPolyline
 90
    4
 70
    1
 43
0
 10
8.430404241817783
 20
-13.4
 10
8.030404241817784
 20
-13.4
 10
8.030404241817783
 20
-13.8
 10
8.430404241817783
 20
-13.8
  0
LWPOLYLINE
  5
21E
100
AcDbEntity
  8
nascosto
  6
ByLayer
 62
  256
370
   -1
100
AcDbPolyline
 90
    4
 70
    1
 43
0
 10
7.541671539507309
 20
-13.4
 10
7.141671539507309
 20
-13.4
 10
7.141671539507309
 20
-13.8
 10
7.541671539507309
 20
-13.8
  0
LWPOLYLINE
  5
21F
100
AcDbEntity
  8
nascosto
  6
ByLayer
 62
  256
370
   -1
100
AcDbPolyline
 90
    4
 70
    1
 43
0
 10
9.234179686400266
 20
-11.6
 10
11.03417968640026
 20
-11.6
 10
11.03417968640026
 20
-10.8
 10
9.234179686400266
 20
-10.8
  0
LINE
  5
220
100
AcDbEntity
  8
nascosto
  6
ByLayer
 62
  256
370
   -1
100
AcDbLine
 10
11.03417968640026
 20
-10.8
 11
11.03417968640026
 21
-10
  0
LWPOLYLINE
  5
221
100
AcDbEntity
  8
nascosto
  6
ByLayer
 62
  256
370
   -1
100
AcDbPolyline
 90
    4
 70
    1
 43
0
 10
9.52941020938268
 20
-10.6
 10
9.929410209382681
 20
-10.6
 10
9.929410209382681
 20
-10.2
 10
9.52941020938268
 20
-10.2
  0
LWPOLYLINE
  5
222
100
AcDbEntity
  8
nascosto
  6
ByLayer
 62
  256
370
   -1
100
AcDbPolyline
 90
    4
 70
    1
 43
0
 10
10.41814291169316
 20
-10.6
 10
10.81814291169315
 20
-10.6
 10
10.81814291169315
 20
-10.2
 10
10.41814291169316
 20
-10.2
  0
LWPOLYLINE
  5
223
100
AcDbEntity
  8
nascosto
  6
ByLayer
 62
  256
370
   -1
100
AcDbPolyline
 90
    4
 70
    1
 43
0
 10
11.03417968640026
 20
-12.4
 10
9.234179686400266
 20
-12.4
 10
9.234179686400266
 20
-13.2
 10
11.03417968640026
 20
-13.2
  0
LINE
  5
224
100
AcDbEntity
  8
nascosto
  6
ByLayer
 62
  256
370
   -1
100
AcDbLine
 10
11.03417968640026
 20
-13.2
 11
11.03417968640026
 21
-14
  0
LWPOLYLINE
  5
225
100
AcDbEntity
  8
nascosto
  6
ByLayer
 62
  256
370
   -1
100
AcDbPolyline
 90
    4
 70
    1
 43
0
 10
10.73894916341785
 20
-13.4
 10
10.33894916341785
 20
-13.4
 10
10.33894916341785
 20
-13.8
 10
10.73894916341785
 20
-13.8
  0
LWPOLYLINE
  5
226
100
AcDbEntity
  8
nascosto
  6
ByLayer
 62
  256
370
   -1
100
AcDbPolyline
 90
    4
 70
    1
 43
0
 10
9.850216461107376
 20
-13.4
 10
9.450216461107376
 20
-13.4
 10
9.450216461107376
 20
-13.8
 10
9.850216461107376
 20
-13.8
  0
LWPOLYLINE
  5
227
100
AcDbEntity
  8
nascosto
  6
ByLayer
 62
  256
370
   -1
100
AcDbPolyline
 90
    4
 70
    1
 43
0
 10
11.54272460800033
 20
-11.6
 10
13.34272460800033
 20
-11.6
 10
13.34272460800033
 20
-10.8
 10
11.54272460800033
 20
-10.8
  0
LINE
  5
228
100
AcDbEntity
  8
nascosto
  6
ByLayer
 62
  256
370
   -1
100
AcDbLine
 10
13.34272460800033
 20
-10.8
 11
13.34272460800033
 21
-10
  0
LWPOLYLINE
  5
229
100
AcDbEntity
  8
nascosto
  6
ByLayer
 62
  256
370
   -1
100
AcDbPolyline
 90
    4
 70
    1
 43
0
 10
11.83795513098275
 20
-10.6
 10
12.23795513098275
 20
-10.6
 10
12.23795513098275
 20
-10.2
 10
11.83795513098275
 20
-10.2
  0
LWPOLYLINE
  5
22A
100
AcDbEntity
  8
nascosto
  6
ByLayer
 62
  256
370
   -1
100
AcDbPolyline
 90
    4
 70
    1
 43
0
 10
12.72668783329322
 20
-10.6
 10
13.12668783329322
 20
-10.6
 10
13.12668783329322
 20
-10.2
 10
12.72668783329322
 20
-10.2
  0
LWPOLYLINE
  5
22B
100
AcDbEntity
  8
nascosto
  6
ByLayer
 62
  256
370
   -1
100
AcDbPolyline
 90
    4
 70
    1
 43
0
 10
13.34272460800033
 20
-12.4
 10
11.54272460800033
 20
-12.4
 10
11.54272460800033
 20
-13.2
 10
13.34272460800033
 20
-13.2
  0
LINE
  5
22C
100
AcDbEntity
  8
nascosto
  6
ByLayer
 62
  256
370
   -1
100
AcDbLine
 10
13.34272460800033
 20
-13.2
 11
13.34272460800033
 21
-14
  0
LWPOLYLINE
  5
22D
100
AcDbEntity
  8
nascosto
  6
ByLayer
 62
  256
370
   -1
100
AcDbPolyline
 90
    4
 70
    1
 43
0
 10
13.04749408501792
 20
-13.4
 10
12.64749408501792
 20
-13.4
 10
12.64749408501792
 20
-13.8
 10
13.04749408501792
 20
-13.8
  0
LWPOLYLINE
  5
22E
100
AcDbEntity
  8
nascosto
  6
ByLayer
 62
  256
370
   -1
100
AcDbPolyline
 90
    4
 70
    1
 43
0
 10
12.15876138270744
 20
-13.4
 10
11.75876138270744
 20
-13.4
 10
11.75876138270744
 20
-13.8
 10
12.15876138270744
 20
-13.8
  0
LWPOLYLINE
  5
22F
100
AcDbEntity
  8
nascosto
  6
ByLayer
 62
  256
370
   -1
100
AcDbPolyline
 90
    4
 70
    1
 43
0
 10
13.8512695296004
 20
-11.6
 10
15.6512695296004
 20
-11.6
 10
15.6512695296004
 20
-10.8
 10
13.8512695296004
 20
-10.8
  0
LINE
  5
230
100
AcDbEntity
  8
nascosto
  6
ByLayer
 62
  256
370
   -1
100
AcDbLine
 10
15.6512695296004
 20
-10.8
 11
15.6512695296004
 21
-10
  0
LWPOLYLINE
  5
231
100
AcDbEntity
  8
nascosto
  6
ByLayer
 62
  256
370
   -1
100
AcDbPolyline
 90
    4
 70
    1
 43
0
 10
14.14650005258281
 20
-10.6
 10
14.54650005258281
 20
-10.6
 10
14.54650005258281
 20
-10.2
 10
14.14650005258281
 20
-10.2
  0
LWPOLYLINE
  5
232
100
AcDbEntity
  8
nascosto
  6
ByLayer
 62
  256
370
   -1
100
AcDbPolyline
 90
    4
 70
    1
 43
0
 10
15.03523275489329
 20
-10.6
 10
15.43523275489329
 20
-10.6
 10
15.43523275489329
 20
-10.2
 10
15.03523275489329
 20
-10.2
  0
LWPOLYLINE
  5
233
100
AcDbEntity
  8
nascosto
  6
ByLayer
 62
  256
370
   -1
100
AcDbPolyline
 90
    4
 70
    1
 43
0
 10
15.6512695296004
 20
-12.4
 10
13.8512695296004
 20
-12.4
 10
13.8512695296004
 20
-13.2
 10
15.6512695296004
 20
-13.2
  0
LINE
  5
234
100
AcDbEntity
  8
nascosto
  6
ByLayer
 62
  256
370
   -1
100
AcDbLine
 10
15.6512695296004
 20
-13.2
 11
15.6512695296004
 21
-14
  0
LWPOLYLINE
  5
235
100
AcDbEntity
  8
nascosto
  6
ByLayer
 62
  256
370
   -1
100
AcDbPolyline
 90
    4
 70
    1
 43
0
 10
15.35603900661798
 20
-13.4
 10
14.95603900661798
 20
-13.4
 10
14.95603900661798
 20
-13.8
 10
15.35603900661798
 20
-13.8
  0
LWPOLYLINE
  5
236
100
AcDbEntity
  8
nascosto
  6
ByLayer
 62
  256
370
   -1
100
AcDbPolyline
 90
    4
 70
    1
 43
0
 10
14.46730630430751
 20
-13.4
 10
14.06730630430751
 20
-13.4
 10
14.06730630430751
 20
-13.8
 10
14.46730630430751
 20
-13.8
  0
LWPOLYLINE
  5
237
100
AcDbEntity
  8
nascosto
  6
ByLayer
 62
  256
370
   -1
100
AcDbPolyline
 90
    4
 70
    1
 43
0
 10
16.15981445120046
 20
-11.6
 10
17.95981445120047
 20
-11.6
 10
17.95981445120047
 20
-10.8
 10
16.15981445120046
 20
-10.8
  0
LINE
  5
238
100
AcDbEntity
  8
nascosto
  6
ByLayer
 62
  256
370
   -1
100
AcDbLine
 10
17.95981445120047
 20
-10.8
 11
17.95981445120047
 21
-10
  0
LWPOLYLINE
  5
239
100
AcDbEntity
  8
nascosto
  6
ByLayer
 62
  256
370
   -1
100
AcDbPolyline
 90
    4
 70
    1
 43
0
 10
16.45504497418288
 20
-10.6
 10
16.85504497418288
 20
-10.6
 10
16.85504497418288
 20
-10.2
 10
16.45504497418288
 20
-10.2
  0
LWPOLYLINE
  5
23A
100
AcDbEntity
  8
nascosto
  6
ByLayer
 62
  256
370
   -1
100
AcDbPolyline
 90
    4
 70
    1
 43
0
 10
17.34377767649335
 20
-10.6
 10
17.74377767649336
 20
-10.6
 10
17.74377767649336
 20
-10.2
 10
17.34377767649335
 20
-10.2
  0
LWPOLYLINE
  5
23B
100
AcDbEntity
  8
nascosto
  6
ByLayer
 62
  256
370
   -1
100
AcDbPolyline
 90
    4
 70
    1
 43
0
 10
17.95981445120047
 20
-12.4
 10
16.15981445120046
 20
-12.4
 10
16.15981445120046
 20
-13.2
 10
17.95981445120047
 20
-13.2
  0
LINE
  5
23C
100
AcDbEntity
  8
nascosto
  6
ByLayer
 62
  256
370
   -1
100
AcDbLine
 10
17.95981445120047
 20
-13.2
 11
17.95981445120047
 21
-14
  0
LWPOLYLINE
  5
23D
100
AcDbEntity
  8
nascosto
  6
ByLayer
 62
  256
370
   -1
100
AcDbPolyline
 90
    4
 70
    1
 43
0
 10
17.66458392821805
 20
-13.4
 10
17.26458392821805
 20
-13.4
 10
17.26458392821805
 20
-13.8
 10
17.66458392821805
 20
-13.8
  0
LWPOLYLINE
  5
23E
100
AcDbEntity
  8
nascosto
  6
ByLayer
 62
  256
370
   -1
100
AcDbPolyline
 90
    4
 70
    1
 43
0
 10
16.77585122590757
 20
-13.4
 10
16.37585122590757
 20
-13.4
 10
16.37585122590757
 20
-13.8
 10
16.77585122590757
 20
-13.8
  0
LWPOLYLINE
  5
23F
100
AcDbEntity
  8
nascosto
  6
ByLayer
 62
  256
370
   -1
100
AcDbPolyline
 90
    4
 70
    1
 43
0
 10
18.46835937280053
 20
-11.6
 10
20.26835937280053
 20
-11.6
 10
20.26835937280053
 20
-10.8
 10
18.46835937280053
 20
-10.8
  0
LINE
  5
240
100
AcDbEntity
  8
nascosto
  6
ByLayer
 62
  256
370
   -1
100
AcDbLine
 10
20.26835937280053
 20
-10.8
 11
20.26835937280053
 21
-10
  0
LWPOLYLINE
  5
241
100
AcDbEntity
  8
nascosto
  6
ByLayer
 62
  256
370
   -1
100
AcDbPolyline
 90
    4
 70
    1
 43
0
 10
18.76358989578295
 20
-10.6
 10
19.16358989578295
 20
-10.6
 10
19.16358989578295
 20
-10.2
 10
18.76358989578295
 20
-10.2
  0
LWPOLYLINE
  5
242
100
AcDbEntity
  8
nascosto
  6
ByLayer
 62
  256
370
   -1
100
AcDbPolyline
 90
    4
 70
    1
 43
0
 10
19.65232259809342
 20
-10.6
 10
20.05232259809342
 20
-10.6
 10
20.05232259809342
 20
-10.2
 10
19.65232259809342
 20
-10.2
  0
LWPOLYLINE
  5
243
100
AcDbEntity
  8
nascosto
  6
ByLayer
 62
  256
370
   -1
100
AcDbPolyline
 90
    4
 70
    1
 43
0
 10
20.26835937280053
 20
-12.4
 10
18.46835937280053
 20
-12.4
 10
18.46835937280053
 20
-13.2
 10
20.26835937280053
 20
-13.2
  0
LINE
  5
244
100
AcDbEntity
  8
nascosto
  6
ByLayer
 62
  256
370
   -1
100
AcDbLine
 10
20.26835937280053
 20
-13.2
 11
20.26835937280053
 21
-14
  0
LWPOLYLINE
  5
245
100
AcDbEntity
  8
nascosto
  6
ByLayer
 62
  256
370
   -1
100
AcDbPolyline
 90
    4
 70
    1
 43
0
 10
19.97312884981812
 20
-13.4
 10
19.57312884981812
 20
-13.4
 10
19.57312884981812
 20
-13.8
 10
19.97312884981812
 20
-13.8
  0
LWPOLYLINE
  5
246
100
AcDbEntity
  8
nascosto
  6
ByLayer
 62
  256
370
   -1
100
AcDbPolyline
 90
    4
 70
    1
 43
0
 10
19.08439614750764
 20
-13.4
 10
18.68439614750764
 20
-13.4
 10
18.68439614750764
 20
-13.8
 10
19.08439614750764
 20
-13.8
  0
LWPOLYLINE
  5
247
100
AcDbEntity
  8
nascosto
  6
ByLayer
 62
  256
370
   -1
100
AcDbPolyline
 90
    4
 70
    1
 43
0
 10
20.7769042944006
 20
-11.6
 10
22.5769042944006
 20
-11.6
 10
22.5769042944006
 20
-10.8
 10
20.7769042944006
 20
-10.8
  0
LINE
  5
248
100
AcDbEntity
  8
nascosto
  6
ByLayer
 62
  256
370
   -1
100
AcDbLine
 10
22.5769042944006
 20
-10.8
 11
22.5769042944006
 21
-10
  0
LWPOLYLINE
  5
249
100
AcDbEntity
  8
nascosto
  6
ByLayer
 62
  256
370
   -1
100
AcDbPolyline
 90
    4
 70
    1
 43
0
 10
21.07213481738301
 20
-10.6
 10
21.47213481738302
 20
-10.6
 10
21.47213481738302
 20
-10.2
 10
21.07213481738301
 20
-10.2
  0
LWPOLYLINE
  5
24A
100
AcDbEntity
  8
nascosto
  6
ByLayer
 62
  256
370
   -1
100
AcDbPolyline
 90
    4
 70
    1
 43
0
 10
21.96086751969349
 20
-10.6
 10
22.36086751969349
 20
-10.6
 10
22.36086751969349
 20
-10.2
 10
21.96086751969349
 20
-10.2
  0
LWPOLYLINE
  5
24B
100
AcDbEntity
  8
nascosto
  6
ByLayer
 62
  256
370
   -1
100
AcDbPolyline
 90
    4
 70
    1
 43
0
 10
22.5769042944006
 20
-12.4
 10
20.7769042944006
 20
-12.4
 10
20.7769042944006
 20
-13.2
 10
22.5769042944006
 20
-13.2
  0
LINE
  5
24C
100
AcDbEntity
  8
nascosto
  6
ByLayer
 62
  256
370
   -1
100
AcDbLine
 10
22.5769042944006
 20
-13.2
 11
22.5769042944006
 21
-14
  0
LWPOLYLINE
  5
24D
100
AcDbEntity
  8
nascosto
  6
ByLayer
 62
  256
370
   -1
100
AcDbPolyline
 90
    4
 70
    1
 43
0
 10
22.28167377141818
 20
-13.4
 10
21.88167377141818
 20
-13.4
 10
21.88167377141818
 20
-13.8
 10
22.28167377141818
 20
-13.8
  0
LWPOLYLINE
  5
24E
100
AcDbEntity
  8
nascosto
  6
ByLayer
 62
  256
370
   -1
100
AcDbPolyline
 90
    4
 70
    1
 43
0
 10
21.39294106910771
 20
-13.4
 10
20.99294106910771
 20
-13.4
 10
20.99294106910771
 20
-13.8
 10
21.39294106910771
 20
-13.8
  0
LWPOLYLINE
  5
24F
100
AcDbEntity
  8
nascosto
  6
ByLayer
 62
  256
370
   -1
100
AcDbPolyline
 90
    4
 70
    1
 43
0
 10
23.08544921600067
 20
-11.6
 10
24.88544921600067
 20
-11.6
 10
24.88544921600067
 20
-10.8
 10
23.08544921600067
 20
-10.8
  0
LINE
  5
250
100
AcDbEntity
  8
nascosto
  6
ByLayer
 62
  256
370
   -1
100
AcDbLine
 10
24.88544921600067
 20
-10.8
 11
24.88544921600067
 21
-10
  0
LWPOLYLINE
  5
251
100
AcDbEntity
  8
nascosto
  6
ByLayer
 62
  256
370
   -1
100
AcDbPolyline
 90
    4
 70
    1
 43
0
 10
23.38067973898308
 20
-10.6
 10
23.78067973898308
 20
-10.6
 10
23.78067973898308
 20
-10.2
 10
23.38067973898308
 20
-10.2
  0
LWPOLYLINE
  5
252
100
AcDbEntity
  8
nascosto
  6
ByLayer
 62
  256
370
   -1
100
AcDbPolyline
 90
    4
 70
    1
 43
0
 10
24.26941244129355
 20
-10.6
 10
24.66941244129356
 20
-10.6
 10
24.66941244129356
 20
-10.2
 10
24.26941244129355
 20
-10.2
  0
LWPOLYLINE
  5
253
100
AcDbEntity
  8
nascosto
  6
ByLayer
 62
  256
370
   -1
100
AcDbPolyline
 90
    4
 70
    1
 43
0
 10
24.88544921600067
 20
-12.4
 10
23.08544921600067
 20
-12.4
 10
23.08544921600067
 20
-13.2
 10
24.88544921600067
 20
-13.2
  0
LINE
  5
254
100
AcDbEntity
  8
nascosto
  6
ByLayer
 62
  256
370
   -1
100
AcDbLine
 10
24.88544921600067
 20
-13.2
 11
24.88544921600067
 21
-14
  0
LWPOLYLINE
  5
255
100
AcDbEntity
  8
nascosto
  6
ByLayer
 62
  256
370
   -1
100
AcDbPolyline
 90
    4
 70
    1
 43
0
 10
24.59021869301825
 20
-13.4
 10
24.19021869301825
 20
-13.4
 10
24.19021869301825
 20
-13.8
 10
24.59021869301825
 20
-13.8
  0
LWPOLYLINE
  5
256
100
AcDbEntity
  8
nascosto
  6
ByLayer
 62
  256
370
   -1
100
AcDbPolyline
 90
    4
 70
    1
 43
0
 10
23.70148599070777
 20
-13.4
 10
23.30148599070777
 20
-13.4
 10
23.30148599070777
 20
-13.8
 10
23.70148599070777
 20
-13.8
  0
LWPOLYLINE
  5
257
100
AcDbEntity
  8
nascosto
  6
ByLayer
 62
  256
370
   -1
100
AcDbPolyline
 90
    4
 70
    1
 43
0
 10
25.39399413760073
 20
-11.6
 10
27.19399413760073
 20
-11.6
 10
27.19399413760073
 20
-10.8
 10
25.39399413760073
 20
-10.8
  0
LINE
  5
258
100
AcDbEntity
  8
nascosto
  6
ByLayer
 62
  256
370
   -1
100
AcDbLine
 10
27.19399413760073
 20
-10.8
 11
27.19399413760073
 21
-10
  0
LWPOLYLINE
  5
259
100
AcDbEntity
  8
nascosto
  6
ByLayer
 62
  256
370
   -1
100
AcDbPolyline
 90
    4
 70
    1
 43
0
 10
25.68922466058315
 20
-10.6
 10
26.08922466058315
 20
-10.6
 10
26.08922466058315
 20
-10.2
 10
25.68922466058315
 20
-10.2
  0
LWPOLYLINE
  5
25A
100
AcDbEntity
  8
nascosto
  6
ByLayer
 62
  256
370
   -1
100
AcDbPolyline
 90
    4
 70
    1
 43
0
 10
26.57795736289362
 20
-10.6
 10
26.97795736289362
 20
-10.6
 10
26.97795736289362
 20
-10.2
 10
26.57795736289362
 20
-10.2
  0
LWPOLYLINE
  5
25B
100
AcDbEntity
  8
nascosto
  6
ByLayer
 62
  256
370
   -1
100
AcDbPolyline
 90
    4
 70
    1
 43
0
 10
27.19399413760073
 20
-12.4
 10
25.39399413760073
 20
-12.4
 10
25.39399413760073
 20
-13.2
 10
27.19399413760073
 20
-13.2
  0
LINE
  5
25C
100
AcDbEntity
  8
nascosto
  6
ByLayer
 62
  256
370
   -1
100
AcDbLine
 10
27.19399413760073
 20
-13.2
 11
27.19399413760073
 21
-14
  0
LWPOLYLINE
  5
25D
100
AcDbEntity
  8
nascosto
  6
ByLayer
 62
  256
370
   -1
100
AcDbPolyline
 90
    4
 70
    1
 43
0
 10
26.89876361461832
 20
-13.4
 10
26.49876361461832
 20
-13.4
 10
26.49876361461832
 20
-13.8
 10
26.89876361461832
 20
-13.8
  0
LWPOLYLINE
  5
25E
100
AcDbEntity
  8
nascosto
  6
ByLayer
 62
  256
370
   -1
100
AcDbPolyline
 90
    4
 70
    1
 43
0
 10
26.01003091230784
 20
-13.4
 10
25.61003091230784
 20
-13.4
 10
25.61003091230784
 20
-13.8
 10
26.01003091230784
 20
-13.8
  0
LWPOLYLINE
  5
25F
100
AcDbEntity
  8
nascosto
  6
ByLayer
 62
  256
370
   -1
100
AcDbPolyline
 90
    4
 70
    1
 43
0
 10
27.7025390592008
 20
-11.6
 10
29.5025390592008
 20
-11.6
 10
29.5025390592008
 20
-10.8
 10
27.7025390592008
 20
-10.8
  0
LINE
  5
260
100
AcDbEntity
  8
nascosto
  6
ByLayer
 62
  256
370
   -1
100
AcDbLine
 10
29.5025390592008
 20
-10.8
 11
29.5025390592008
 21
-10
  0
LWPOLYLINE
  5
261
100
AcDbEntity
  8
nascosto
  6
ByLayer
 62
  256
370
   -1
100
AcDbPolyline
 90
    4
 70
    1
 43
0
 10
27.99776958218321
 20
-10.6
 10
28.39776958218321
 20
-10.6
 10
28.39776958218321
 20
-10.2
 10
27.99776958218321
 20
-10.2
  0
LWPOLYLINE
  5
262
100
AcDbEntity
  8
nascosto
  6
ByLayer
 62
  256
370
   -1
100
AcDbPolyline
 90
    4
 70
    1
 43
0
 10
28.88650228449368
 20
-10.6
 10
29.28650228449369
 20
-10.6
 10
29.28650228449369
 20
-10.2
 10
28.88650228449368
 20
-10.2
  0
LWPOLYLINE
  5
263
100
AcDbEntity
  8
nascosto
  6
ByLayer
 62
  256
370
   -1
100
AcDbPolyline
 90
    4
 70
    1
 43
0
 10
29.5025390592008
 20
-12.4
 10
27.7025390592008
 20
-12.4
 10
27.7025390592008
 20
-13.2
 10
29.5025390592008
 20
-13.2
  0
LINE
  5
264
100
AcDbEntity
  8
nascosto
  6
ByLayer
 62
  256
370
   -1
100
AcDbLine
 10
29.5025390592008
 20
-13.2
 11
29.5025390592008
 21
-14
  0
LWPOLYLINE
  5
265
100
AcDbEntity
  8
nascosto
  6
ByLayer
 62
  256
370
   -1
100
AcDbPolyline
 90
    4
 70
    1
 43
0
 10
29.20730853621838
 20
-13.4
 10
28.80730853621838
 20
-13.4
 10
28.80730853621838
 20
-13.8
 10
29.20730853621838
 20
-13.8
  0
LWPOLYLINE
  5
266
100
AcDbEntity
  8
nascosto
  6
ByLayer
 62
  256
370
   -1
100
AcDbPolyline
 90
    4
 70
    1
 43
0
 10
28.3185758339079
 20
-13.4
 10
27.91857583390791
 20
-13.4
 10
27.91857583390791
 20
-13.8
 10
28.3185758339079
 20
-13.8
  0
INSERT
  5
267
100
AcDbEntity
  8
nascosto
  6
ByLayer
 62
  256
370
   -1
100
AcDbBlockReference
  2
180per80
 10
6
 20
10.6
 30
0
 41
1
 42
1
 43
0
 50
0
 70
    1
 71
    1
 44
0
 45
0
  0
DIMENSION
  5
268
100
AcDbEntity
  8
nascosto
  6
ByLayer
 62
  256
370
   -1
100
AcDbDimension
  2
*D7
 10
39.97696000000131
 20
-1.221825212922278e-15
 30
0
 11
38.10196000000131
 21
0.9449368571725298
 31
0
 70
   32
 71
    5
 72
    0
  3
Standard
 53
0
210
0
220
0
230
1
100
AcDbAlignedDimension
 13
1.402746996161434
 23
1.889873714345063
 33
0
 14
30
 24
0
 34
0
 50
90
100
AcDbRotatedDimension
  0
DIMENSION
  5
269
100
AcDbEntity
  8
misure2
  6
ByLayer
 62
  256
370
   -1
100
AcDbDimension
  2
*D8
 10
24
 20
-23.87327068505438
 30
0
 11
22.125
 21
-24.77327068505438
 31
0
 70
   32
 71
    5
 72
    0
  3
Standard
 53
0
210
0
220
0
230
1
100
AcDbAlignedDimension
 13
18
 23
-25.67327068505438
 33
0
 14
18
 24
-23.87327068505438
 34
0
 50
90
100
AcDbRotatedDimension
  0
DIMENSION
  5
26A
100
AcDbEntity
  8
misure2
  6
ByLayer
 62
  256
370
   -1
100
AcDbDimension
  2
*D9
 10
17.2
 20
-45
 30
0
 11
16.8
 21
-43.125
 31
0
 70
   32
 71
    5
 72
    0
  3
Standard
 53
0
210
0
220
0
230
1
100
AcDbAlignedDimension
 13
16.4
 23
-37.67327068505438
 33
0
 14
17.2
 24
-37.67327068505438
 34
0
100
AcDbRotatedDimension
  0
DIMENSION
  5
26B
100
AcDbEntity
  8
misure2
  6
ByLayer
 62
  256
370
   -1
100
AcDbDimension
  2
*D10
 10
18
 20
-50
 30
0
 11
17.2
 21
-48.125
 31
0
 70
   32
 71
    5
 72
    0
  3
Standard
 53
0
210
0
220
0
230
1
100
AcDbAlignedDimension
 13
16.4
 23
-35.87327068505438
 33
0
 14
18
 24
-36
 34
0
100
AcDbRotatedDimension
  0
DIMENSION
  5
26C
100
AcDbEntity
  8
misure2
  6
ByLayer
 62
  256
370
   -1
100
AcDbDimension
  2
*D11
 10
4.999999999999996
 20
-45
 30
0
 11
3.299999999999999
 21
-43.125
 31
0
 70
   32
 71
    5
 72
    0
  3
Standard
 53
0
210
0
220
0
230
1
100
AcDbAlignedDimension
 13
1.600000000000001
 23
-37.67327068505438
 33
0
 14
4.999999999999997
 24
-36.39999999999999
 34
0
100
AcDbRotatedDimension
  0
DIMENSION
  5
26D
100
AcDbEntity
  8
misure2
  6
ByLayer
 62
  256
370
   -1
100
AcDbDimension
  2
*D12
 10
10.2
 20
-50
 30
0
 11
9.199999999999999
 21
-48.125
 31
0
 70
   32
 71
    5
 72
    0
  3
Standard
 53
0
210
0
220
0
230
1
100
AcDbAlignedDimension
 13
8.199999999999999
 23
-36.39999999999999
 33
0
 14
10.2
 24
-36.39999999999999
 34
0
100
AcDbRotatedDimension
  0
DIMENSION
  5
26E
100
AcDbEntity
  8
misure2
  6
ByLayer
 62
  256
370
   -1
100
AcDbDimension
  2
*D13
 10
22.19111323863557
 20
-32.87327068505438
 30
0
 11
20.31611323863557
 21
-33.17327068505438
 31
0
 70
   32
 71
    5
 72
    0
  3
Standard
 53
0
210
0
220
0
230
1
100
AcDbAlignedDimension
 13
18
 23
-33.47327068505437
 33
0
 14
18
 24
-32.87327068505438
 34
0
 50
90
100
AcDbRotatedDimension
  0
DIMENSION
  5
26F
100
AcDbEntity
  8
misure2
  6
ByLayer
 62
  256
370
   -1
100
AcDbDimension
  2
*D14
 10
16.4
 20
-57.86064360616848
 30
0
 11
14.9
 21
-55.98564360616848
 31
0
 70
   32
 71
    5
 72
    0
  3
Standard
 53
0
210
0
220
0
230
1
100
AcDbAlignedDimension
 13
13.4
 23
-36.39999999999999
 33
0
 14
16.4
 24
-35.87327068505438
 34
0
100
AcDbRotatedDimension
  0
DIMENSION
  5
270
100
AcDbEntity
  8
misure
  6
ByLayer
 62
  256
370
   -1
100
AcDbDimension
  2
*D15
 10
-1.306913921289244
 20
-40
 30
0
 11
-3.181913921289243
 21
-31
 31
0
 70
   32
 71
    5
  3
Standard
 53
0
210
0
220
0
230
1
100
AcDbAlignedDimension
 13
18
 23
-22
 33
0
 14
18
 24
-40
 34
0
 50
90
100
AcDbRotatedDimension
  0
DIMENSION
  5
271
100
AcDbEntity
  8
misure
  6
ByLayer
 62
  256
370
   -1
100
AcDbDimension
  2
*D16
 10
18
 20
-21.14824345358952
 30
0
 11
9
 21
-19.27324345358952
 31
0
 70
   32
 71
    5
  3
Standard
 53
0
210
0
220
0
230
1
100
AcDbAlignedDimension
 13
0
 23
-22
 33
0
 14
18
 24
-22
 34
0
100
AcDbRotatedDimension
  0
DIMENSION
  5
272
100
AcDbEntity
  8
misure
  6
ByLayer
 62
  256
370
   -1
100
AcDbDimension
  2
*D17
 10
-2.871218598858574
 20
-25.85070033412981
 30
0
 11
-4.746218598858574
 21
-24.8619855095921
 31
0
 70
   32
 71
    5
  3
Standard
 53
0
210
0
220
0
230
1
100
AcDbAlignedDimension
 13
15.40025876352342
 23
-23.87327068505438
 33
0
 14
5
 24
-25.85070033412981
 34
0
 50
90
100
AcDbRotatedDimension
  0
DIMENSION
  5
273
100
AcDbEntity
  8
misure
  6
ByLayer
 62
  256
370
   -1
100
AcDbDimension
  2
*D18
 10
10.2
 20
-43.95983189791087
 30
0
 11
9.199999999999999
 21
-42.08483189791087
 31
0
 70
   32
 71
    5
  3
Standard
 53
0
210
0
220
0
230
1
100
AcDbAlignedDimension
 13
8.199999999999999
 23
-37.25070033412981
 33
0
 14
10.2
 24
-37.25070033412981
 34
0
100
AcDbRotatedDimension
  0
DIMENSION
  5
274
100
AcDbEntity
  8
misure
  6
ByLayer
 62
  256
370
   -1
100
AcDbDimension
  2
*D19
 10
1.600000000000001
 20
-47.99938401825943
 30
0
 11
3.299999999999999
 21
-46.12438401825943
 31
0
 70
   32
 71
    5
  3
Standard
 53
0
210
0
220
0
230
1
100
AcDbAlignedDimension
 13
4.999999999999997
 23
-37.25070033412981
 33
0
 14
1.600000000000001
 24
-37.67327068505438
 34
0
100
AcDbRotatedDimension
  0
DIMENSION
  5
275
100
AcDbEntity
  8
misure
  6
ByLayer
 62
  256
370
   -1
100
AcDbDimension
  2
*D20
 10
16.4
 20
-47.99938401825943
 30
0
 11
14.9
 21
-46.12438401825943
 31
0
 70
   32
 71
    5
  3
Standard
 53
0
210
0
220
0
230
1
100
AcDbAlignedDimension
 13
13.4
 23
-25.85070033412981
 33
0
 14
16.4
 24
-26.27327068505438
 34
0
100
AcDbRotatedDimension
  0
DIMENSION
  5
276
100
AcDbEntity
  8
misure
  6
ByLayer
 62
  256
370
   -1
100
AcDbDimension
  2
*D21
 10
-0.9885021659205968
 20
-2.999999999999996
 30
0
 11
-2.863502165920597
 21
-4.999999999999998
 31
0
 70
   32
 71
    5
  3
Standard
 53
0
210
0
220
0
230
1
100
AcDbAlignedDimension
 13
30
 23
-7
 33
0
 14
30
 24
-3
 34
0
 50
90
100
AcDbRotatedDimension
  0
DIMENSION
  5
277
100
AcDbEntity
  8
misure
  6
ByLayer
 62
  256
370
   -1
100
AcDbDimension
  2
*D22
 10
-4.410240432568795
 20
-6.999999999999999
 30
0
 11
-6.285240432568795
 21
-5.802246729728131
 31
0
 70
   32
 71
    5
  3
Standard
 53
0
210
0
220
0
230
1
100
AcDbAlignedDimension
 13
1.841471074303886
 23
-4.604493459456263
 33
0
 14
0
 24
-7
 34
0
 50
90
100
AcDbRotatedDimension
  0
ENDSEC
  0
SECTION
  2
OBJECTS
  0
DICTIONARY
  5
C
330
0
100
AcDbDictionary
281
    1
  3
ACAD_GROUP
350
D
  0
DICTIONARY
  5
D
330
C
100
AcDbDictionary
281
    1
  0
ENDSEC
  0
EOF
